<?xml version="1.0" encoding="utf-8"?>
<!-- Generator: Adobe Illustrator 16.0.0, SVG Export Plug-In . SVG Version: 6.00 Build 0)  -->
<!DOCTYPE svg PUBLIC "-//W3C//DTD SVG 1.1//EN" "http://www.w3.org/Graphics/SVG/1.1/DTD/svg11.dtd">
<svg version="1.1" xmlns="http://www.w3.org/2000/svg" xmlns:xlink="http://www.w3.org/1999/xlink" x="0px" y="0px" width="56px"
	 height="56px" viewBox="0 0 56 56" enable-background="new 0 0 56 56" xml:space="preserve">
<g id="Layer_1" display="none">
	<g id="Layer_2" display="inline">
		<path fill="#FFFFFF" d="M41.163,5.575c0,0-4.931-2.767-8.996-3.575c-4.065-0.808-11.833,2.25-11.833,2.25l-10.75,6.083
			c0,0-3.583,11.75-3.583,12.5S4.333,36.667,4.333,36.667l0.162,3.366l1.838,2.217l1.5,2.084l3.417,3.5l4.605,2.171l2.979,2.412
			l3.915,1.25l5.252,0.5l7.833-3.667l3.417-5.583l3.167-8.417l3.916-3v-3.416l-4,0.583l-5.75,1.417l-2.833-1.167L31.083,30
			l-1.5-2.417l-1.48-0.5l-1.769,4l-2,3.166l-8.083-2.166L12.583,25.5L14.25,16l9.667-8.583l4.917-1.667L34.5,4.833l5.833,1.333
			L41.163,5.575"/>
	</g>
	<g id="Layer_3" display="inline">
		<path fill="#FFFFFF" d="M13.625,17.875l11.708-11.75L31.75,4.75L36.125,5L41.5,7.5c0,0,6.875,6.375,7.5,6.5
			s1.877,6.454,1.877,6.454L53,28.625c0,0-1.625,9.25-1.875,9.875s-7.25,10-7.25,10l-4.5,1L40,44.25l4.625-8.125l2.125-3.75L45,29
			l-6.75,2.75L36.5,32l-2-0.875L32.125,29.5L28,27.315l-2.667,5.352L19.25,32.25L11.75,24L13.625,17.875z"/>
	</g>
	<g id="Layer_4" display="inline">
		<polygon fill="#FFFFFF" points="32.375,29 29.75,26.5 29.75,23.375 33,23.375 35.323,26.188 34,29 		"/>
		<polygon fill="#FFFFFF" points="39.25,29 37.125,27.125 37.125,23.375 40.5,22.125 44.5,22.125 45.125,26.188 42.625,29 		"/>
	</g>
	<g id="Layer_1_1_" display="inline">
		<polygon fill="#377254" points="35.332,9 35.323,9 35.326,9 		"/>

			<linearGradient id="SVGID_1_" gradientUnits="userSpaceOnUse" x1="283.3262" y1="-325.5894" x2="329.1921" y2="-352.07" gradientTransform="matrix(1 0 0 -1 -278 -311)">
			<stop  offset="0" style="stop-color:#CC94B0"/>
			<stop  offset="1" style="stop-color:#4E6384"/>
		</linearGradient>
		<path fill="url(#SVGID_1_)" d="M49.77,12.806c-3.937-4.599-4.709-4.987-6.324-6.033c-1.611-1.046-5.301-2.548-7.324-3.095
			c-2.021-0.546-8.008-0.34-12.49,1.797c-4.483,2.139-7.964,4.938-9.375,6.689c-1.41,1.752-4.144,5.613-4.55,10.717
			c-0.41,5.142,0.591,8.828,3.255,11.051c1.908,1.594,6.528,5.512,12.603,1.28c1.365-0.887,1.274-1.114,1.274-1.114l2.479,0.637
			c-4.299,3.256-8.167,5.461-13.422,3.23c-5.255-2.229-7.749-8.234-7.839-11.703c-0.092-3.465,0.286-6.793,1.628-9.433
			c1.343-2.639,3.799-6.553,8.1-9.556c4.301-3.003,9.783-5.097,16.176-4.368c0.521-0.106,1.643-0.44,2.063-1.865
			c-2.642,1.244-5.405,0.152-7.917,0.152C13.56,1.192,1.771,13.239,1.771,28.1c0,14.862,11.789,26.908,26.332,26.908
			c14.543,0,26.331-12.046,26.331-26.908C54.434,22.418,52.71,17.148,49.77,12.806z M7.443,35.775
			c2.731,5.188,7.463,7.492,11.922,8.918c5.583,0.638,8.949-2.579,9.859-3.368c0.907-0.787,1.912-0.272,0.938,0.789
			c-0.971,1.063-6.915,4.43-10.677,3.793C8.566,43.236,6.625,34.622,6.625,34.622S6.928,35.076,7.443,35.775z M5.684,40.566
			c0,0,0.428,0.578,2.305,2.308c4.409,4.944,9.102,6.369,15.139,6.703c8.767-0.548,7.675-4.156,10.405-4.884
			c0.213,2.82-4.975,6.398-9.769,7.188C14.452,53.036,5.684,40.566,5.684,40.566z M36.688,46.969
			c-1.817,3.307-5.035,6.885-13.921,6.158c6.337-0.939,7.869-0.971,11.669-6.825c1.77-4.61,1.678-6.22,1.646-7.221
			c-0.03-1.001-0.482-3.429-2.458-5.217c-1.517-0.882-2.092-0.548-2.604-0.486c-0.518,0.062-3.01,0.091-3.671-2.396
			c0.758-2.187,0.758-1.975,0.758-1.975s-1.396,3.793,3.429,3.793c1.576,0.119,2.352,0,3.177,1.305
			c0.826,1.305,2.04,5.369,1.979,6.461c1.063-2.334,1.334-2.519,1.457-2.577C38.602,41.325,38.507,43.66,36.688,46.969z
			 M40.032,36.102c0,0,0.204-1.068-0.773-1.685c0,0-0.547,0.706-1.864,3.05c-0.066-0.139-0.111-0.206-0.479-0.662
			c-0.365-0.453-1.891-3.299-2.48-3.843c-0.594-0.547-2.094-0.729-3.596-0.753c-1.592-0.59-1.729-2.479-1.934-4.109
			c0.052,0.166,0.145,0.311,0.256,0.458c0.283,0.859,0.734,1.881,1.171,2.649c0.708,1.25,2.542,0.5,3,0.625s0.834-0.292,2.417,1.291
			c1.75,0.916,1.955-0.2,1.955-0.2c0.053,0.021,0.104,0.039,0.165,0.061c1.344-0.887,2.549-0.797,3.209-0.729
			c2.116,0.272,2.435-0.36,2.798-0.456c0.365-0.089,1.389-0.932,1.957,0.251c-0.113-0.045-0.568-0.374-1.139,1.945
			c0,0-0.576-0.979-1.244,0.444c-0.676-0.293-0.438-1.273-1.213,0.934C41.762,34.463,42.036,34.055,40.032,36.102z M31.789,26.539
			c0.763,0.421,1.248,0.289,1.682,0.165c0.133,0.397,0.122,0.455,0.122,0.455c-1.182,0.648-2.347-0.163-2.608-0.516
			c-0.426-0.401-0.609-1.786-0.188-2.886l0.615,0.432C31.318,24.758,30.863,25.872,31.789,26.539z M32.366,25.997
			c0.249,0.193,0.637,0.193,0.692,0.193c0.057,0,0.455,0.206-0.125,0.308c-0.521,0.069-0.83-0.103-1.061-0.434
			c-0.229-0.327-0.146-0.759,0.139-1.248l0.354,0.363C32.366,25.179,31.934,25.736,32.366,25.997z M35.542,29.084
			c0.167-2.167,0.833-1.542,1-1.084s0.208,2.542,0,2.792s-0.625,0.75-0.625,0.75S35.375,31.251,35.542,29.084z M41.391,24.564
			c0,0,0-0.091,0.803-0.485c0.197,0.395,0.35,0.668,0.365,1.502c0.017,0.833-0.765,1.635-1.853,1.638
			c-1.624,0.006-2.048-1.304-2.048-1.304l0.623-0.409c0.076,0.242,0.354,0.86,0.627,1.027c0.271,0.166,0.758,0.185,1.229-0.012
			c0.469-0.196,0.678-0.837,0.647-1.172C41.753,25.016,41.648,25.005,41.391,24.564z M40.343,27.751c1.601,0,2.458-1.046,2.671-1.76
			c0.213-0.712,0.106-1.642-0.473-2.245c0.563-0.304,0.486-0.257,0.503-0.243c0.728,1.336,0.833,3.854-0.836,4.672
			c-1.424,0.531-1.972,0.531-3.865-1.228c-0.243-0.394-0.38-0.591-0.38-0.591l0.316-0.228
			C38.279,26.128,39.369,27.751,40.343,27.751z M46.092,44.48c-1.133,1.277-5.096,4.095-5.096,4.095s0.729-0.818,1.577-1.88
			c2.518-2.428,3.519-7.436,3.974-11.043c0.061-0.243,0.184,0.123,2.123,1.305c-0.361-1.001-0.848-3.459-0.908-4.309
			c-0.062-0.853,0.424-3.367,0.454-7.769c0.03-4.398-2.487-7.371-3.883-8.979c0.242,0.545,0.212,0.485-0.03,2.123
			c-0.972-1.153-4.552-2.245-7.221-2.154c-4.553,0.152-5.583,2.457-5.855,2.214c-0.271-0.242-0.303-0.363-0.424-3.337
			c-4.065,3.732-3.701,12.043-4.004,13.349c-0.303,1.304-1.092,1.544-1.426,2.063c-1.305-0.519-5.309-0.972-7.614-2.576
			c-2.246-2.005-1.153-4.888-0.031-5.729c0.485-0.31,2.275-0.978,3.367,1.631c0.304-2.124-1.547-4.55-4.671-3.519
			c-2.366-3.55,4.442-8.049,7.524-9.445C29.627,7.952,34.657,8.993,35.323,9C30.952,8,27.374,7.674,22.4,9.707
			c1.092-0.668,3.205-2.155,5.369-2.666c3.153-0.744,8.221-0.711,11.407,0.807c3.188,1.517,6.4,3.209,9.375,7.486
			c2.237,3.22,3.033,7.566,3.213,10.054c0.187,2.486-0.332,5.965-0.938,9.334C50.218,38.09,47.398,43.005,46.092,44.48z"/>
	</g>
</g>
<g id="Layer_2_1_" display="none">
	<path display="inline" d="M45.236,8.299c-4.572,2.192-9.033,5.095-13.3,7.833c-2.369,1.521-4.514,2.149-4.908,4.853
		c-0.042,0.006-0.083,0.011-0.121,0.033c-0.061,0.036-0.107,0.092-0.152,0.146c-0.15,0.179-0.25,0.362-0.34,0.575
		c-0.08,0.187-0.159,0.402-0.293,0.63c-0.045,0.077-0.101,0.149-0.155,0.223c-0.096-0.301-0.125-0.595-0.346-0.869
		c-0.281-0.35-0.801-0.715-1.234-0.844c-0.795-0.237-1.992-0.026-2.49,0.716c-0.174,0.258-0.255,0.56-0.284,0.863
		c-0.145-0.203-0.255-0.433-0.359-0.658c-0.071-0.154-0.135-0.318-0.199-0.483c0.063-1.233-2.749-2.658-3.467-3.055
		c-2.194-1.215-4.057-3.148-6.064-4.67c-1.858-1.409-4.088-2.304-6.211-3.25c-0.553-0.247-1.148,0.263-0.843,0.843
		c1.454,2.764,4.922,4.204,6.741,6.882c0.525,0.774,3.338,3.671,1.974,4.638c-0.289,0.205-0.55,0.42-0.799,0.646
		c-0.026,0.003-0.053,0.004-0.079,0.007c-0.189-0.001-0.473-0.001-0.79-0.019c-0.158-0.016-0.318-0.042-0.481-0.078
		c-0.05-0.021-0.104-0.039-0.146-0.065c-0.438-0.277-0.789-0.579-1.289-0.691c-0.027-0.016-0.053-0.037-0.08-0.052
		c-0.264-0.147-0.554-0.125-0.78,0.008c-0.017-0.007-0.03-0.018-0.048-0.024c-0.744-0.283-1.086,0.701-0.694,1.192
		c0.531,0.665,1.358,1.175,2.034,1.687c0.706,0.535,1.66,0.847,2.575,0.952c0.725,0.519,1.507,0.996,2.281,1.434
		c-0.065,0.173-0.129,0.35-0.221,0.528c-0.08,0.156-0.18,0.283-0.278,0.412c-0.208,0.252-0.438,0.478-0.674,0.643
		c-0.012,0.008-0.025,0.014-0.037,0.021c-0.227,0.152-0.457,0.249-0.675,0.25c-0.279-0.008-0.45,0.155-0.517,0.36
		c-0.287,0.189-0.411,0.576-0.127,0.852c0.558,0.543,1.791,0.443,2.519,0.465c0.588,0.017,1.491,0.233,2.07-0.039
		c0.396-0.034,0.794-0.08,1.085-0.14c-0.082,0.263-0.171,0.521-0.299,0.766c-0.152,0.289-0.319,0.575-0.497,0.85
		c-0.151,0.233-0.363,0.334-0.41,0.622c-0.022,0.138,0.012,0.279,0.144,0.353c0.22,0.122,0.414,0.104,0.586,0.017
		c0.056,0.025,0.121,0.04,0.197,0.036c0.056-0.003,0.1-0.023,0.153-0.03c0.015,0.009,0.027,0.023,0.042,0.029
		c0.254,0.099,0.476-0.001,0.662-0.182c0.034-0.026,0.064-0.063,0.096-0.094c0.464-0.234,0.869-0.576,1.312-0.92
		c0.203-0.158,0.471-0.428,0.67-0.73c0.099-0.111,0.196-0.228,0.287-0.351c0.265-0.195,0.521-0.4,0.771-0.546
		c0.032,0.022,0.068,0.035,0.103,0.054c0.148,2.407,1.158,5.145,1.751,7.353c0.023,0.088,0.052,0.173,0.077,0.26
		c0.095,1.124,0.237,2.257,0.646,3.187c0.044,0.197,0.085,0.395,0.126,0.592c-0.044,0.501-0.089,1.002-0.122,1.502
		c-0.037,0.275,0.161,0.471,0.401,0.537c0.088,1.198-0.11,2.45,0.253,3.593c0.085,0.268,0.458,0.268,0.542,0
		c0.008-0.024,0.011-0.051,0.019-0.075c0.269,0.618,1.185,0.014,0.972-0.464c-0.023-0.507-0.09-1.008-0.179-1.507
		c0.173-0.049,0.321-0.202,0.347-0.404c0.143-1.124-0.066-2.247-0.407-3.345c0.329-3.135,0.391-6.368,0.116-9.524
		c0.052-1.116,0.133-2.226,0.262-3.313c0.099,0.011,0.2,0.009,0.296-0.015c0.955,0.525,2.39,1.354,3.465,1.24
		c0.138,0.034,0.282,0.065,0.425,0.097c0.238,0.063,0.477,0.129,0.715,0.187c0.294,0.07,0.645,0.133,0.987,0.139
		c0.43,0.034,0.851-0.012,1.208-0.256c0.123-0.083,0.133-0.21,0.08-0.31c0.016-0.023,0.03-0.047,0.047-0.07
		c0.157,0.009,0.311,0,0.453-0.051c0.182-0.064,0.262-0.249,0.173-0.424c-0.289-0.566-1.049-0.71-1.588-0.938
		c-0.146-0.062-0.29-0.13-0.434-0.199c-0.02-0.081-0.043-0.165-0.062-0.242c-0.082-0.344-0.152-0.664-0.21-0.987
		c0.282-0.064,0.568-0.117,0.855-0.168c0.669,0.321,1.698,0.127,2.316,0.023c1.267-0.214,3.344-0.014,4.182-1.19
		c0.111-0.156,0.104-0.423,0-0.58c-0.024-0.036-0.048-0.072-0.072-0.108c-0.183-0.274-0.481-0.34-0.773-0.203
		c-0.215,0.101-0.562,0.096-0.936,0.04c-0.216-0.096-0.434-0.188-0.654-0.27c-0.781-1.378-2.108-0.246-0.209-1.588
		c1.911-0.424,3.401-1.88,4.757-3.271c0.455-0.467-0.024-1.076-0.563-0.98c-0.04-0.002-0.079,0.002-0.118,0.001
		c-0.073-0.047-0.152-0.083-0.241-0.091c-0.833-0.076-1.841,0.104-2.719,0.378c-0.446,0.012-0.89,0.04-1.334,0.069
		c0.008-0.01,0.014-0.015,0.021-0.025c2.52-3.3,5.548-7.938,9.045-10.323C46.322,8.82,45.844,8.008,45.236,8.299z M34.865,19.865
		c-0.229,0.285-0.202,0.642,0.11,0.855c0.794,0.542,1.668,0.314,2.584,0.203c0.09,0.221,0.3,0.409,0.565,0.439
		c0.021,0.002,0.04,0,0.062,0.003c-0.57,0.423-1.724,0.983-1.858,1.08c-0.151,0.11-0.295,0.231-0.442,0.348
		c-0.053-0.078-0.171-0.111-0.252-0.034c-0.149,0.142-0.245,0.305-0.3,0.477c-0.233,0.196-0.465,0.394-0.696,0.59
		c-0.268,0.226-0.194,0.614,0,0.85c1.55,1.884-2.461,1.237-3.949,1.647c-0.227,0.063-0.439,0.255-0.491,0.491
		c-0.173,0.792-0.029,1.14-0.033,2.062c-0.003,0.654-2.483-0.87-3.044-1.133c-0.492-0.231-1.101,0.04-1.104,0.633
		c0,0.083,0,0.167-0.001,0.25c0,0.109,0.032,0.195,0.067,0.278c-0.106,0.144-0.194,0.306-0.267,0.482
		c-0.034,0.016-0.063,0.038-0.069,0.079c-0.009,0.056-0.015,0.113-0.023,0.169c-0.188,0.59-0.251,1.293-0.276,1.978
		c-0.209,1.748-0.339,3.523-0.444,5.301c-0.033,0.293-0.066,0.586-0.099,0.879c-0.074-0.701-0.138-1.377-0.246-1.926
		c-0.406-2.073-0.75-4.219-1.498-6.194c-0.042-0.112-0.127-0.163-0.216-0.186c-0.126-0.229-0.367-0.391-0.695-0.423
		c-1.264-0.124-1.983,2.168-2.479,0.475c-0.115-0.392-0.569-0.71-0.983-0.558c-0.734,0.27-3.218,0.555-2.016-0.833
		c0.375-0.433,0.218-1.043-0.325-1.233c-0.7-0.245-1.34-0.625-1.963-1.033c0.009-0.187-0.045-0.377-0.208-0.53
		c-0.348-0.327-0.736-0.525-1.151-0.675c0.325-0.552,1.702-1.758,2.041-2.235c0.125-0.175,0.108-0.454,0-0.631
		c-1.114-1.833-2.313-3.77-3.637-5.462c-1.039-1.327-2.746-2.416-4.148-3.637c2.454,1.29,4.689,2.766,6.98,4.556
		c0.667,0.521,4.276,2.184,5.729,3.361c-0.125,0.277-0.065,0.583-0.016,0.886c0.065,0.402,0.126,0.724,0.297,1.105
		c0.263,0.589,0.713,1.278,1.394,1.301c0.01,0.012,0.02,0.026,0.03,0.037c0.191,0.218,0.472,0.026,0.484-0.203
		c0.172-0.178,0.161-0.457,0.027-0.679c0.222-0.649,0.836-1.165,1.554-1.009c0.334,0.072,0.691,0.451,0.769,0.767
		c0.033,0.136,0.148,0.573,0.19,0.726c-0.089,0.109-0.154,0.245-0.152,0.426V24c0.005,0.426,0.457,0.855,0.899,0.685
		c0.341-0.132,0.522-0.373,0.603-0.656c0.485-0.085,0.838-0.669,1.004-1.071c0.04-0.083,0.07-0.169,0.09-0.259
		c0.008-0.027,0.119-0.468-0.018-0.214c0.091-0.17,0.11-0.365,0.136-0.552c0.002-0.014,0.003-0.029,0.004-0.043
		c0.001-0.014,0.007-0.026,0.004-0.039c0.01-0.089,0.016-0.179,0.016-0.268c5.084-3.846-0.221-1.742,3.589-3.838
		c1.594-0.877,3.15-1.825,4.73-2.746c2.002-1.166,3.982-2.422,5.996-3.606C39.207,14.042,36.945,17.272,34.865,19.865z"/>
</g>
<g id="Layer_3_1_" display="none">
	<path display="inline" d="M49.45,32.048c0.001-0.002,0.001-0.004,0.001-0.006c-0.212,0.055-0.422,0.12-0.632,0.186
		c-1.307-2.904-3.537-5.391-5.521-7.878c-1.258-1.579-2.201-3.263-3.192-5.006c-0.983-1.731-2.38-2.657-3.566-4.242
		c-0.036-0.049-0.104-0.009-0.08,0.047c0.731,1.726,1.909,3.059,2.684,4.758c0.756,1.66,1.367,3.011,2.448,4.504
		c1.53,2.114,2.839,4.807,4.733,6.718c-4.832-1.858-10.256-2.131-14.891-4.8c-0.11-0.063-0.219-0.113-0.329-0.173
		c0.698-0.689,1.021-1.628,1.48-2.659c0.937-2.1,1.688-4.365,2.3-6.584c0.044-0.162-0.168-0.234-0.257-0.108
		c-1.335,1.876-2.896,3.51-4.039,5.527c-0.471,0.832-0.861,1.719-1.192,2.615c-0.047,0.126-0.055,0.248-0.046,0.367
		c-2.501-1.039-4.957-1.427-7.803-2.077c-1.951-0.445-3.825-0.876-5.813-1.172c0.125,0.019-3.545-0.468-3.619-0.581
		c-0.157-0.245-0.501-0.135-0.524,0.142c-0.07,0.868,0.249,1.863,0.987,2.379c-2.102,3.964-3.965,8.599-5.027,12.908
		C6.298,42.006,3.663,47.18,3.078,52.375c-0.006,0.057,0.074,0.058,0.092,0.013c2.118-5.334,4.264-11.056,6.776-16.209
		c1.732-3.552,4.698-7.421,5.315-11.44c2.785,0.596,5.583,1.181,8.387,1.692c1.223,0.593,2.411,1.23,3.507,1.786
		c2.156,1.094,4.457,1.743,6.693,2.625c0.1,0.039,0.168-0.126,0.072-0.172c-2.757-1.33-5.559-2.588-8.354-3.843
		c-0.074-0.033-0.149-0.067-0.223-0.101c0.343,0.059,0.686,0.124,1.028,0.179c2.068,0.333,4.271,2.15,6.211,2.985
		c1.561,0.671,3.316,1.022,4.957,1.446c1.215,0.314,2.438,0.521,3.662,0.691c1.528,0.551,3.347,0.653,5.042,0.98
		c-6.34,2.126-12.41,5.441-18.674,7.687c-8.159,2.924-15.076,7.651-22.723,11.46c-0.111-0.191-0.324-0.316-0.635-0.241
		c-0.475,0.114-0.795,0.359-1.082,0.746c-0.249,0.335,0.25,0.843,0.584,0.585c0.073-0.057,0.154-0.093,0.236-0.125
		c0.081-0.031,0.166-0.045,0.262-0.032c0.407,0.056,0.631-0.153,0.704-0.41c0.001-0.005,0.001-0.009,0.002-0.013
		c0.011-0.043,0.016-0.087,0.019-0.131c8.458-2.442,16.689-6.216,24.938-9.262c3.729-1.378,7.386-3.261,10.989-4.942
		c3.28-1.531,6.802-2.114,9.679-4.41C51.459,33.189,50.435,31.74,49.45,32.048z"/>
	<g display="inline">
		<path d="M35.943,14.43C35.955,14.425,35.956,14.422,35.943,14.43L35.943,14.43z"/>
		<path d="M49.938,17.697c-0.848-0.384-1.72-0.648-2.592-0.969c-1.449-0.533-3.618-0.511-4.894-1.328
			c-1.713-1.096-3.773-1.183-5.574-1.96c-0.24-0.104-0.553,0-0.7,0.195c-0.051-0.046-0.113-0.085-0.202-0.099
			c-0.153-0.024-0.281,0.002-0.392,0.06c-0.059-0.003-0.114-0.013-0.176-0.004c-0.914,0.136-1.295,1.411-1.577,2.156
			c-0.377,1-0.509,2.342-0.252,3.39c0.012,0.049,0.074,0.04,0.09,0c0.358-0.91,1.158-1.479,1.52-2.391
			c0.21-0.533,0.491-1.001,0.803-1.461c0.312,0.546,0.78,1.009,1.187,1.489c0.929,1.097,1.637,2.376,2.622,3.424
			c0.126,0.133,0.294,0.087,0.394-0.024c0.052,0.074,0.114,0.143,0.161,0.22c0.439,0.73,0.785,1.38,1.359,2.015
			c0.043,0.048,0.118-0.026,0.07-0.07c-1.057-0.982-1.868-3.403-2.273-4.765c-0.213-0.713-0.671-1.374-1.154-2.015
			c0.11,0.054,0.223,0.111,0.337,0.174c1.473,0.819,2.837,1.763,4.459,2.282c0.917,0.293,3.927,2.118,5.841,2.192
			c-0.542,2.424-1.183,4.792-1.571,7.267c-0.225,1.427-0.377,4.1,0.733,5.244c0.587,0.606,1.804,0.183,1.735-0.719
			c-0.053-0.704,0.264-1.432,0.443-2.098c0.305-1.123,0.052-2.498,0.049-3.652c-0.005-2.222,0.278-4.358-0.021-6.571
			c0.086-0.124,0.156-0.268,0.203-0.441C50.714,18.694,50.489,17.946,49.938,17.697z"/>
	</g>
	<path display="inline" d="M46.318,11.99c-0.022-0.113-0.082-0.201-0.142-0.288c0.306-0.296,0.24-0.875-0.26-1.059
		c-1.121-0.414-2.319-0.45-3.438-0.969c-0.006-0.002-0.012-0.004-0.018-0.007c0.05-0.091,0.094-0.187,0.145-0.283
		c0.114-0.218,0.276-0.397,0.411-0.604c0.118-0.182,0.197-0.398,0.298-0.59c0.108-0.208,0.294-0.378,0.332-0.616
		c0.022-0.142-0.035-0.314-0.196-0.346c-0.009-0.002-0.017,0-0.024-0.001c-0.007-0.277-0.291-0.424-0.591-0.525
		c-0.006-0.009-0.004-0.019-0.011-0.027c-0.226-0.292-0.538-0.521-0.751-0.816c-0.287-0.398-0.547-0.761-1.069-0.832
		c-0.406-0.055-0.789,0.031-1.012,0.412c-0.229,0.39-0.113,0.943,0.278,1.188c-0.243,0.442-0.517,0.872-0.69,1.36
		c-0.02,0.053,0.057,0.078,0.085,0.036c0.024-0.034,0.052-0.061,0.076-0.094c-0.082,0.194-0.161,0.389-0.224,0.588
		c-0.229,0.142-0.399,0.341-0.585,0.541c-0.282,0.303-0.652,0.557-0.987,0.795c-0.264,0.188-0.396,0.514-0.541,0.793
		c-0.192,0.369-0.432,0.673-0.668,1.011c-0.112,0.161-0.104,0.319-0.027,0.445c-0.335,0.433-0.664,0.858-0.955,1.327
		c-0.027,0.043-0.025,0.083-0.011,0.116c-0.05,0.188,0.09,0.423,0.332,0.351c0.742-0.22,1.487-0.188,2.251-0.445
		c0.985-0.332,1.988-0.583,3.013-0.752c0.836-0.139,1.835-0.212,2.76-0.408c-0.556,1.272-0.001,3.23-0.458,4.485
		c-0.153,0.421,0.448,0.608,0.669,0.278l0.012,0.009c0.484-0.627,0.704-1.563,1.045-2.276C45.828,13.82,46.552,13.133,46.318,11.99z
		 M42.593,8.162c-0.104,0.285-0.229,0.526-0.387,0.786c-0.1,0.164-0.141,0.354-0.216,0.529c-0.652-0.241-1.321-0.381-2.012-0.49
		c0.001-0.001,0.002-0.003,0.004-0.005c0.064-0.06,0.092-0.127,0.098-0.194c0.049-0.002,0.096-0.008,0.145-0.012
		c0.011,0.011,0.021,0.026,0.038,0.02c0.038-0.013,0.077-0.026,0.115-0.04c0.011-0.002,0.021-0.001,0.032-0.004
		c0.147-0.033,0.294-0.091,0.438-0.156c0.621-0.209,1.25-0.421,1.842-0.705C42.655,7.985,42.623,8.079,42.593,8.162z M40.086,8.132
		c0.146-0.222,0.292-0.444,0.39-0.695c0.063-0.16,0.12-0.324,0.183-0.486c0.034-0.03,0.063-0.062,0.099-0.092
		c0.006-0.004,0.011-0.011,0.016-0.016c0.577,0.178,1.165,0.179,1.777,0.302c0.143,0.029,0.25-0.031,0.305-0.124
		c0.13,0.073,0.227,0.14,0.215,0.178c-0.008,0.025,0.007,0.041,0.009,0.063c0,0-0.001,0.001-0.002,0.001
		c-0.055-0.082-0.158-0.139-0.264-0.116c-0.565,0.124-1.298,0.417-1.714,0.825c-0.282,0.277-0.676,0.536-1.066,0.614
		c-0.003,0-0.005,0.001-0.007,0.001c-0.026-0.039-0.062-0.07-0.101-0.097C39.995,8.384,40.046,8.26,40.086,8.132z M41.161,12.051
		c-1.607,0.508-3.316,0.743-4.925,1.217c0.253-0.322,0.521-0.629,0.792-0.937c0.118,0.034,0.246,0.035,0.361-0.021
		c0.617-0.298,0.887-0.994,1.287-1.509c0.06-0.076,0.124-0.146,0.188-0.218c0.415-0.364,0.831-0.725,1.032-1.259
		c0.028-0.076,0.003-0.14-0.036-0.198c0.015-0.02,0.031-0.038,0.047-0.056c0.291,0.027,0.571,0.111,0.843,0.226
		c-0.165-0.034-0.332-0.059-0.5-0.062c-0.184-0.003-0.178,0.266,0,0.281c0.862,0.072,1.753,0.852,2.563,1.088
		c0.115,0.034,0.223,0.084,0.334,0.126c0.328,0.188,0.657,0.373,0.981,0.567c0.067,0.041,0.141,0.067,0.213,0.097
		C43.26,11.524,42.164,11.734,41.161,12.051z"/>
</g>
<g id="Layer_4_1_" display="none">
	<g display="inline">
		<path fill="#C70039" d="M42.542,6.835c-0.376-0.318-0.715-0.691-1.072-1.032c-0.392-0.374-0.808-0.718-1.197-1.092
			c-0.328-0.314-0.723-0.524-1.063-0.817c-0.003-0.004-0.007-0.005-0.011-0.007c-0.028-0.025-0.061-0.043-0.089-0.069
			c-0.05-0.048-0.134-0.06-0.198-0.037L38.84,3.806c-0.104,0.037-0.162,0.154-0.123,0.259l0.024,0.072
			c0.009,0.024,0.027,0.04,0.042,0.056c-0.001,0.01-0.003,0.021-0.004,0.031c-0.011,0.018-0.03,0.028-0.034,0.052
			c-0.004,0.018,0.004,0.034,0.003,0.052c-0.001-0.001-0.005-0.001-0.006-0.001c-0.001,0.034,0.001,0.065,0.003,0.1
			c-0.011,0.007-0.021,0.012-0.026,0.024c-0.176,0.319-0.061,0.725-0.047,1.067c0.006,0.228,0.005,0.485,0.039,0.728
			c0.009,0.256,0.017,0.498-0.013,0.663c-0.024,0.14,0.094,0.211,0.203,0.208c0.025,0.026,0.052,0.025,0.07-0.003
			c0.005,0.004,0.006,0.009,0.008,0.014c-0.003,0.116-0.013,0.233-0.019,0.354c-0.003,0.03,0.042,0.036,0.054,0.01
			c0.03-0.068,0.058-0.136,0.079-0.205c0.007-0.005,0.019,0.003,0.018-0.006l-0.003-0.031c0.045-0.141,0.055-0.283,0.042-0.425
			c0.045,0.13,0.11,0.248,0.236,0.328c0.172,0.109,0.378-0.044,0.409-0.223c0.002-0.001,0.001-0.003,0.004-0.005
			c0.008,0.007,0.018,0.01,0.024,0.018c0.075,0.076,0.204,0.088,0.301,0.056c0.073-0.025,0.147-0.048,0.222-0.073
			c0.061-0.02,0.083-0.066,0.116-0.107c0.024,0.023,0.046,0.052,0.073,0.069c0.021,0.027,0.051,0.032,0.074,0.051
			c0.004,0.016,0.01,0.031,0.017,0.047c0.095,0.286,0.375,0.336,0.592,0.245c0.113,0.021,0.224,0.053,0.331,0.076V7.294
			C41.586,7.3,41.621,7.31,41.664,7.31c0.262,0.002,0.391-0.194,0.392-0.403c0.107,0.083,0.208,0.161,0.318,0.248
			c0.059,0.045,0.15,0.018,0.165-0.058c0.001-0.011,0.003-0.022,0.004-0.033c0.025-0.017,0.037-0.039,0.041-0.061
			c0.016,0.009,0.036,0.018,0.048,0.028c0.028,0.027,0.074-0.007,0.062-0.042C42.665,6.911,42.61,6.891,42.542,6.835z"/>
		<path fill="#900C3E" d="M42.833,7.053c-0.012-0.004-0.032-0.006-0.047-0.011c-0.024-0.018-0.051-0.035-0.089-0.037
			c-0.027-0.002-0.058,0-0.087-0.001c-0.023-0.004-0.043,0-0.067-0.001c-0.292-0.308-1.356-0.254-1.705-0.273
			C39.86,6.676,38.88,6.823,37.91,6.745c-0.684-0.056-1.36-0.054-2.042,0.015c-0.052-0.017-0.105-0.01-0.16,0.01
			c-0.007,0.001-0.017,0-0.024,0c-0.072,0.009-0.111,0.061-0.127,0.118c-0.91,0.919-1.608,2.104-2.452,3.092
			c-0.573,0.671-1.122,1.34-1.643,2.059c-0.348,0.481-0.813,1.241-1.248,1.632c-0.072,0.065,0.004,0.186,0.088,0.128
			c0.316-0.22,0.598-0.501,0.863-0.81c-0.01,0.146,0.027,0.291,0.102,0.419c0.213,0.51,0.886,0.626,1.239,0.177
			c0.194-0.005,0.392-0.072,0.55-0.23c0.045-0.043,0.087-0.097,0.131-0.144c0.141-0.029,0.278-0.087,0.392-0.204
			c0.186,0.061,0.391,0.042,0.585-0.133c0.055-0.049,0.107-0.113,0.163-0.167c0.046-0.007,0.092,0.007,0.136-0.01
			c0.753-0.311,1.318-1.047,1.81-1.782c0.214-0.246,0.399-0.499,0.594-0.753c0.433,0.055,0.86-0.024,1.293-0.142
			c0.085,0.065,0.165,0.131,0.256,0.189c0.438,0.288,1.27-0.053,0.973-0.67c-0.006-0.009-0.011-0.013-0.017-0.021l0.012-0.004
			c0.194-0.072,0.325-0.21,0.398-0.373c0.013-0.005,0.027-0.008,0.038-0.014c0.586,0.079,1.192-0.009,1.673-0.287
			c0.092,0.008,0.184-0.006,0.271-0.033c0.292,0.12,0.63-0.037,0.729-0.35c0.22-0.321,0.313-0.766,0.153-1.109
			c0.01-0.005,0.019-0.003,0.026-0.012c0.004-0.006,0.007-0.012,0.012-0.017c0.043,0.002,0.087,0.021,0.134,0.015
			C42.983,7.314,42.988,7.1,42.833,7.053z"/>
		<path fill="#FF5733" d="M42.418,7.338c-0.056-0.025-0.119-0.032-0.188,0.008c-0.269,0.157-0.555,0.299-0.836,0.446
			c-0.579,0.267-1.171,0.561-1.765,0.863c-2.942,1.334-6.156,2.494-8.6,4.459c-0.156,0.092-0.322,0.169-0.475,0.27
			c-0.072,0.05-0.093,0.12-0.091,0.192c-0.04,0.035-0.086,0.066-0.127,0.103c-0.1,0.092,0.056,0.262,0.16,0.175
			c0.025-0.022,0.063-0.042,0.09-0.064c0.053,0.03,0.115,0.043,0.185,0.019l0.073-0.026c0.117-0.041,0.146-0.137,0.138-0.233
			c-0.009,0.078-0.004,0.16,0.022,0.25c0.104,0.354,0.3,0.466,0.529,0.472c0.033,0.038,0.063,0.089,0.106,0.105
			c0.327,0.117,0.571,0.044,0.877-0.107c0.063-0.032,0.134-0.074,0.206-0.119c0.124,0.165,0.316,0.287,0.537,0.285
			c0.135,0.288,0.422,0.484,0.781,0.316c0.29-0.136,0.563-0.298,0.826-0.478c0.095-0.053,0.188-0.121,0.283-0.18
			c0.047,0.069,0.106,0.125,0.174,0.173c-0.17,0.651,0.77,1.113,1.261,0.594c0.201-0.212,0.389-0.438,0.569-0.668
			c0.068-0.004,0.134-0.022,0.198-0.055c0.049,0.068,0.107,0.125,0.176,0.17c0.039,0.448,0.51,0.752,0.893,0.662
			c0.144,0.486,0.821,0.419,1.03,0.035c0.012-0.024,0.021-0.052,0.033-0.077c0.084,0.007,0.169-0.002,0.248-0.028
			c-0.031,0.206-0.055,0.41-0.053,0.618c0.009,0.852,1.289,0.885,1.454,0.088c0.002-0.009,0.003-0.019,0.005-0.026
			c0.223-0.031,0.423-0.151,0.539-0.37c0.004,0.02,0,0.032,0.007,0.054c0.002,0.009,0.01,0.011,0.014,0.021v0.001
			c0.003,0.257,0.382,0.219,0.392-0.029c0.005-0.106,0.024-0.212,0.033-0.318c0.234-1.098,0.452-2.281,0.516-3.387
			c0.037-0.66,0.129-1.315,0.174-1.97c0.018-0.149,0.033-0.294,0.054-0.447c0.018-0.148,0.243-1.314-0.051-1.21
			c0.155-0.055,0.24-0.231,0.185-0.386L42.978,7.46c-0.025-0.069-0.08-0.119-0.142-0.153C43.031,7.148,42.978,7.111,42.418,7.338z"
			/>
		<path fill="#571845" d="M49.274,18.836c-0.02-0.177-0.037-0.353-0.096-0.535c-0.113-0.344-0.22-0.692-0.337-1.038
			c-0.042-0.279-0.099-0.546-0.314-0.785c-0.233-0.26-0.541-0.347-0.816-0.307c-0.033-0.029-0.047-0.074-0.087-0.094
			c-0.357-0.18-0.788-0.181-1.198-0.153c-0.075-0.044-0.148-0.07-0.223-0.082c-2.162-1.353-5.632-0.884-8.089-1.629
			c-1.162-0.353-2.643-0.224-3.843-0.321c-0.861-0.071-2.37-0.081-3.383-0.341c-0.045,0.207-0.086,0.412-0.128,0.619
			c1.038,0.934,2.947,1.403,4.114,1.706c0.095,0.024,0.186,0.051,0.279,0.075c-0.285,0.157-0.566,0.36-0.851,0.619
			c-0.055,0.05-0.107,0.099-0.163,0.149c-0.862,0.789-0.94,2.654-0.168,3.519c0.181,0.203,0.392,0.373,0.613,0.524
			c0.36,0.839,1.057,1.513,2.068,1.631c0.023,0.004,0.051,0.002,0.076,0.006c0.812,1.055,1.756,1.591,3.034,2.051
			c1.163,0.421,2.556,0.81,3.779,0.973c0.202,0.01,0.404,0.024,0.606,0.036c0.237,0.264,0.484,0.494,0.762,0.69
			c0.113,0.153,0.232,0.291,0.364,0.41c0.786,0.918,1.755,1.196,2.639,1.048c0.004,0.007,0.009,0.011,0.011,0.018
			c0.093,0.137,0.186,0.272,0.286,0.407c0.456,0.528,1.082,0.823,1.783,0.576c0.499-0.177,0.877-0.626,0.995-1.136
			c0.06,0.095,0.117,0.189,0.179,0.284c0.572,0.861,1.813-0.032,1.303-0.906C51.034,24.382,50.868,21.147,49.274,18.836z"/>
		<path fill="#FFC300" d="M52.21,27.82c-0.169-0.435-0.559-0.571-0.979-0.611c-3.438-2.385-7.037-4.557-10.469-6.941
			c-3.181-2.213-6.314-5.09-9.766-6.775c-0.03-0.015-0.057-0.007-0.082-0.006c-0.278-0.173-0.694-0.076-0.738,0.285
			c-0.001,0-0.002,0-0.004,0c-0.002,0.04-0.002,0.075-0.007,0.114c0,0.005-0.001,0.009,0,0.014c0,0.001,0,0.001,0,0.002
			c-0.059,0.743-0.091,1.444,0.004,2.184c-0.127,0.71-0.237,1.479-0.333,2.266c-0.271,1.153-0.541,2.308-0.592,3.502
			c-0.105,2.444-0.594,5.024-0.444,7.468c0.01-0.002,0.017-0.004,0.027-0.006c0.093,0.81,1.404,0.982,1.467,0.097
			c0.02-0.264,0.049-0.532,0.073-0.798c0.059,0.224,0.145,0.427,0.239,0.621c0.023,0.244,0.067,0.49,0.107,0.736
			c0.003,0.051,0.003,0.104,0.008,0.156c0.004,0,0.011,0,0.016,0c0.021,0.111,0.03,0.226,0.054,0.338
			c0.275,1.301,2.152,0.97,2.438-0.139c0.848,1.267,3.111,1.122,3.523-0.445c0.295-0.188,0.532-0.441,0.697-0.738
			c0.097,0.104,0.19,0.211,0.292,0.309c0.383,0.6,0.813,1.153,1.299,1.628c0.136,0.165,0.285,0.324,0.485,0.464
			c1.241,0.861,2.797,0.107,3.049-1.087c0.411-0.204,0.742-0.567,0.977-0.995c0.651,0.42,1.312,0.293,1.801-0.091
			c0.19,0.182,0.399,0.347,0.616,0.497c0.416,0.289,0.908,0.41,1.363,0.316c0.158-0.007,0.319-0.027,0.48-0.086
			c0.521-0.191,0.896-0.603,1.084-1.092c0.138,0,0.271-0.024,0.405-0.059c0.101,0.002,0.202,0.008,0.304,0.002
			c0.33-0.02,0.499,0.043,0.823-0.124c-0.281,0.146-0.24,0.097,0.058,0.252c0.095,0.05,0.216-0.034,0.206-0.14
			c-0.012-0.117-0.034-0.173-0.036-0.225c0.395,0.009,0.749-0.238,0.896-0.567c0.087,0.02,0.174,0.037,0.273,0.056
			c0.016,0.012,0.029,0.024,0.044,0.035c0.004,0.002,0.007,0.007,0.009,0.01c0.001,0,0.001-0.001,0.002-0.001
			c0.015,0.007,0.024,0.017,0.037,0.025c0.13,0.08,0.257-0.057,0.24-0.187C52.216,28.011,52.248,27.919,52.21,27.82z"/>
		<path fill="#C70039" d="M51.619,27.521c-10.137,0.804-21.643-2.779-31.469,0.154c-0.305-0.315-0.759-0.424-1.051-0.004
			c-2.05,2.943-3.639,6.252-5.252,9.552c-0.965,1.44-1.709,3.131-2.489,4.778c-0.786,1.25-1.666,2.413-2.292,3.813
			c-0.024,0.051-0.059,0.127-0.102,0.215c-0.168,0.204-0.325,0.422-0.509,0.605c-1.663,1.692-2.017,3.883-2.892,6.111
			c-0.027,0.073-0.028,0.14-0.017,0.2c-0.165,0.142-0.326,0.273-0.258,0.595c0.007,0.034,0.022,0.055,0.033,0.085
			c-0.03,0.063-0.036,0.131-0.027,0.2c-0.123,0.193-0.239,0.391-0.349,0.607c-0.122,0.233,0.19,0.558,0.317,0.319
			c0.005-0.009,0.012-0.02,0.019-0.028c0.035,0.022,0.072,0.043,0.109,0.048c0.165,0.022,0.267-0.063,0.383-0.174
			c0.228-0.219,0.457-0.414,0.705-0.6c0.186-0.141,0.398-0.292,0.553-0.484c0.429-0.284,0.856-0.577,1.335-0.733
			c0.273-0.088,0.628-0.382,0.873-0.575c2.222-0.647,4.294-2.131,6.113-3.399c4.532-3.161,9.431-5.244,14.287-7.723
			c7.455-3.807,14.923-7.492,22.1-11.899c0.228-0.141,0.281-0.377,0.248-0.621C52.337,28.335,52.095,27.481,51.619,27.521z"/>
	</g>
</g>
<g id="Layer_11" display="none">
	<g display="inline">
		<path fill="#16167B" d="M21.863,22.374c0.221-0.3,0.441-0.599,0.672-0.891C22.304,21.775,22.084,22.075,21.863,22.374z"/>
		<path fill="#16167B" d="M25.622,17.997c-0.481,0.486-0.938,0.984-1.391,1.484c0.456-0.5,0.921-0.994,1.396-1.478
			C25.631,17.999,25.626,17.994,25.622,17.997z"/>
		<path fill="#16167B" d="M22.535,21.483c0.249-0.316,0.511-0.623,0.771-0.932C23.044,20.859,22.785,21.167,22.535,21.483z"/>
		<path fill="#16167B" d="M24.134,19.586c0.032-0.036,0.066-0.069,0.098-0.105C24.2,19.517,24.166,19.55,24.134,19.586z"/>
		<path fill="#16167B" d="M23.305,20.552c0.275-0.323,0.543-0.651,0.829-0.966C23.849,19.902,23.578,20.229,23.305,20.552z"/>
		<path fill="#16167B" d="M21.266,23.206c0.195-0.28,0.394-0.558,0.597-0.832C21.661,22.649,21.458,22.924,21.266,23.206z"/>
		<path fill="#16167B" d="M38.867,19.343c-0.196-0.817-0.513-1.595-0.863-2.36c-0.325-1.107-0.77-2.308-1.375-3.152
			c0.03-0.095,0.032-0.201-0.047-0.288c-0.055-0.067-0.124-0.121-0.184-0.183c-0.069-0.31-0.334-1.242-0.031-1.096
			c0.018,0.008,0.034-0.018,0.016-0.027c-0.083-0.042-0.165-0.085-0.248-0.128c-0.013-0.006-0.03,0.001-0.029,0.017
			c0.004,0.12,0.02,0.242,0.033,0.364c-0.014-0.014-0.04-0.007-0.036,0.018c0.027,0.158,0.069,0.313,0.106,0.47
			c0.014,0.079,0.024,0.156,0.04,0.235c-0.217-0.199-0.45-0.378-0.715-0.506c-0.058-0.039-0.112-0.079-0.169-0.119
			c-0.009-0.071-0.036-0.14-0.11-0.184c-0.138-0.081-0.279-0.134-0.42-0.192c-0.06-0.037-0.123-0.069-0.186-0.098
			c0.084-0.146,0.106-0.327,0.009-0.477c-0.066-0.102-0.14-0.172-0.216-0.235c-0.055-0.225-0.269-0.409-0.567-0.355
			c-0.283,0.051-0.564,0.105-0.846,0.159c-0.048-0.022-0.1-0.037-0.154-0.041c-2.561-0.199-5.228,0.525-7.796,1.017
			c-0.479,0.055-0.961,0.127-1.451,0.25c-0.177,0.044-0.269,0.149-0.306,0.271c-0.342,0.159-0.677,0.343-1.006,0.538
			c-0.01-0.118-0.11-0.229-0.242-0.179c-1.375,0.512-3.024,1.429-3.96,2.553c-0.114,0.137-0.011,0.391,0.189,0.324
			c0.074-0.025,0.141-0.064,0.214-0.092c-0.141,0.087-0.282,0.177-0.419,0.271c-0.007-0.031-0.021-0.059-0.045-0.078
			c-0.026-0.191-0.067-0.375-0.136-0.549c-0.015-0.039-0.066-0.041-0.081,0c-0.116,0.316-0.2,0.668-0.281,1.023
			c-0.015-0.461-0.083-0.877-0.281-1.15c-0.012-0.016-0.033-0.017-0.044,0c-1.025,1.491-0.497,4.907-0.378,6.623
			c0.048,0.691,0.129,1.423,0.238,2.167c0.02,0.151,0.041,0.299,0.07,0.445c0.297,1.821,0.78,3.688,1.48,5.217
			c0.063,0.138,0.27,0.037,0.236-0.1c-0.148-0.611-0.129-1.201-0.015-1.774c0.016,0.017,0.031,0.034,0.046,0.052
			c0.23,0.43,0.475,0.835,0.733,1.197c0.08,0.112,0.283,0.048,0.236-0.1c-0.038-0.12-0.087-0.235-0.128-0.354
			c0.047,0.028,0.084,0.069,0.134,0.095c0.113,0.059,0.202,0.023,0.264-0.039c0.354,0.362,0.773,0.666,1.341,0.89
			c0.054,0.021,0.101-0.062,0.057-0.098c-0.268-0.224-0.539-0.419-0.83-0.611c-0.219-0.145-0.404-0.33-0.576-0.529
			c1.355,0.714,2.859,1.19,4.415,1.473c-0.993-0.091-1.968-0.305-2.903-0.703c-0.049-0.021-0.094,0.048-0.043,0.074
			c1.711,0.883,3.645,1.056,5.57,0.911c0.88,0.038,1.76,0.018,2.626-0.047c0.041,0.261,0.137,0.518,0.228,0.777
			c0.187,0.532,0.208,1.191,0.205,1.79c-0.057,0.031-0.116,0.06-0.165,0.099c-0.156,0.127-0.147,0.365-0.067,0.526
			c0.405,0.819,1.692,1.092,2.524,0.973c0.572-0.082,1.127-0.165,1.685-0.234c0.027,0.001,0.055,0.002,0.081,0.003
			c0.276,0.041,0.553,0.082,0.835,0.11c0.201,0.021,0.331-0.089,0.392-0.235c0.329-0.039,0.745-0.141,0.876-0.411
			c0.904-1.876-3.826-1.657-5.446-1.151c-0.047-0.428-0.11-0.854-0.215-1.271c-0.07-0.276-0.195-0.513-0.325-0.767
			c-0.026-0.052-0.081-0.148-0.133-0.249c0.856-0.083,1.698-0.21,2.503-0.392c0.105-0.023,0.084-0.203-0.026-0.191
			c-0.783,0.081-1.585,0.143-2.394,0.19c0.244-0.052,0.49-0.103,0.729-0.158c1.78-0.414,5.731-1.333,7.438-3.032
			c-0.016,0.156-0.019,0.319-0.039,0.473c-0.019,0.138,0.205,0.193,0.262,0.071c0.143-0.305,0.236-0.635,0.315-0.971
			c0.065-0.083,0.092-0.189,0.063-0.293c0.013-0.068,0.032-0.134,0.044-0.203c0.027-0.064,0.063-0.127,0.084-0.193
			c0.015-0.046-0.002-0.084-0.028-0.114c0.242-1.982-0.259-4.248-0.653-6.042c0.573,2.189,0.747,4.426,1.145,6.63
			c0.008,0.041,0.067,0.028,0.069-0.009C39.903,23.686,39.375,21.457,38.867,19.343z M17.114,20.737
			c-0.002,0.034-0.005,0.076-0.008,0.111c-0.135-1.372-0.165-2.767-0.054-4.223c0.093-1.215,0.259,0.205,0.282,0.925
			C17.136,18.622,17.172,19.876,17.114,20.737z M18.699,22.926c-0.103-0.093-0.225-0.092-0.324-0.038
			c-0.068-0.544-0.127-1.089-0.154-1.639c-0.03-0.62,0.024-1.198,0.122-1.758c-0.008,0.659,0.011,1.302,0.017,1.883
			c0,0.021,0.029,0.02,0.031,0c0.097-0.99,0.113-2.068,0.238-3.107c0.227-0.778,0.511-1.542,0.775-2.336
			c1.474,0.288,3.367-0.007,4.721-0.17c2.102-0.254,4.182-0.382,6.208-1.011c0.003,0.096,0.07,0.172,0.167,0.182
			c0.187,0.02,0.357-0.049,0.519-0.147c0.013,0.825,0.349,1.884,0.948,2.389c0.153,1.438,0.422,2.895,0.512,4.313
			c-0.055,0.003-0.111,0.025-0.161,0.08c-0.514,0.563-0.955,1.186-1.459,1.766c-0.168,0.162-0.336,0.324-0.502,0.488
			c-0.917,0.673-2.42,0.985-3.398,1.391c-1.398,0.582-3.903,0.467-5.998-0.211c-0.195-0.135-0.381-0.285-0.562-0.441
			c0.275-0.462,0.565-0.912,0.867-1.354c-0.304,0.437-0.598,0.886-0.883,1.341C19.792,24.033,19.263,23.433,18.699,22.926z
			 M19.047,26.829c0-0.003-0.001-0.007-0.001-0.01c0.033-0.016,0.059-0.044,0.049-0.095c-0.102-0.511-0.231-1.012-0.358-1.513
			c0.246,0.211,0.564,0.385,0.911,0.543c-0.045,0.078-0.096,0.15-0.14,0.229c-0.149,0.267-0.292,0.563-0.425,0.868
			C19.07,26.843,19.059,26.837,19.047,26.829z M27.764,29.787c-1.281-0.018-2.56-0.12-3.81-0.34c1.711,0.26,3.529,0.316,5.241,0.046
			C28.718,29.608,28.241,29.712,27.764,29.787z M32.822,27.605c-0.611,0.126-1.221,0.25-1.848,0.377
			c-1.727,0.352-3.639,0.777-5.517,0.898c-0.502-0.012-1.005-0.027-1.509-0.06c-1.736-0.381-3.319-0.905-4.781-1.917
			c0.152-0.383,0.332-0.759,0.529-1.128c0.131,0.059,0.253,0.123,0.396,0.174c0.65,0.476,1.413,0.729,2.247,0.51
			c0.376,0.05,0.757,0.086,1.137,0.112c1.028,0.361,2.109,0.666,3.083,0.397c0.62-0.17,1.186-0.439,1.733-0.741
			c0.67-0.264,1.264-0.636,1.821-1.123c0.038-0.025,0.087-0.05,0.122-0.076c0.137-0.101,0.263-0.203,0.382-0.306
			c0.727-0.481,1.379-1.065,1.939-1.752c0.066,1.104,0.246,2.199,0.393,3.294C33.017,26.763,32.877,27.183,32.822,27.605z
			 M36.979,26.356c-0.009,0.005-0.019,0.009-0.027,0.014c-1.038,0.496-2.135,0.802-3.263,1.056c0.006-0.11,0.012-0.22,0.018-0.332
			c0.02-0.204,0.039-0.408,0.049-0.609c0.009-0.087,0.014-0.165,0.013-0.22c0-0.018-0.004-0.037-0.005-0.054
			c0.01-0.281,0.015-0.562,0.011-0.839c0.048-1.709,0.03-3.451-0.153-5.048c-0.074-0.643-0.249-1.346-0.433-2.063
			c-0.085-1.082-0.225-2.19-0.583-3.101c-0.006-0.227,0.001-0.448,0.027-0.661c0.011-0.091-0.021-0.151-0.072-0.188
			c0.434-0.33,0.902-0.6,1.423-0.692c0.081,0.041,0.167,0.071,0.267,0.071c0.277,0,0.544-0.072,0.816-0.12
			c0.147,0.765,0.721,1.317,1.163,1.94c0.007,0.009,0.016,0.007,0.024,0.006c0.292,0.792,0.591,1.586,0.833,2.399
			c0.22,1.075,0.405,2.157,0.575,3.24c0.225,1.426,0.217,3.075,0.531,4.486C37.797,25.911,37.395,26.157,36.979,26.356z"/>
	</g>
	<path display="inline" fill="#16167B" d="M20.595,20.31c-0.15-0.22-0.307-0.306-0.46-0.307c-0.08-0.102-0.166-0.191-0.259-0.263
		c0.004-0.039,0.018-0.075,0.02-0.115c0.019-0.3-0.35-0.493-0.595-0.342c-0.274,0.169-0.465,0.454-0.578,0.79
		c-0.095,0.022-0.18,0.104-0.153,0.227c0.018,0.083,0.034,0.171,0.05,0.256c-0.069,0.613,0.077,1.285,0.427,1.731
		c0.042,0.132,0.078,0.266,0.14,0.396c0.106,0.223,0.399,0.209,0.563,0.066c0.042,0.01,0.082,0.025,0.126,0.03
		c0.76,0.096,0.81-0.786,0.793-1.326C20.779,21.036,20.779,20.579,20.595,20.31z"/>
	<path display="inline" fill="#16167B" d="M29.734,18.908c-0.056-0.11-0.138-0.234-0.236-0.351c-0.015-0.039-0.023-0.082-0.04-0.121
		c-0.001-0.001-0.001-0.003-0.002-0.005c0,0,0,0-0.001,0c-0.073-0.164-0.169-0.313-0.323-0.406
		c-0.038-0.023-0.077-0.034-0.115-0.036c-0.005-0.039-0.016-0.076-0.02-0.114c-0.015-0.154-0.244-0.16-0.244,0
		c0,0.043-0.001,0.086-0.001,0.129c-0.202-0.074-0.421-0.061-0.612,0.12c-0.055,0.052-0.081,0.124-0.125,0.184
		c-0.023,0.025-0.039,0.056-0.058,0.085c-0.354,0.557-0.344,1.345-0.244,1.953c0.065,0.39,0.242,1.048,0.563,1.44
		c0.204,0.306,0.525,0.496,0.87,0.449c0.042,0.025,0.079,0.058,0.13,0.068c0.019,0.011,0.025,0.034,0.045,0.042
		c0.049,0.021,0.121,0.019,0.148-0.038c0.149,0.019,0.305-0.045,0.349-0.22c0.018-0.068,0.012-0.143,0.022-0.213
		c0.018-0.055,0.036-0.111,0.05-0.167c0.035-0.063,0.066-0.13,0.063-0.208c-0.002-0.034-0.01-0.069-0.014-0.103
		c0.001-0.008-0.002-0.017-0.001-0.024c0.006-0.011,0.012-0.022,0.018-0.033C30.325,20.577,30.094,19.625,29.734,18.908z"/>
	<path display="inline" fill="#16167B" d="M26.69,32.925c-0.452-0.289-0.887-0.262-1.386-0.337c0.04-0.321,0.068-0.441,0.069-0.838
		c0-0.2-0.21-0.285-0.361-0.208c-0.048-0.345-0.086-0.69-0.118-1.042c-0.018-0.196-0.275-0.164-0.278,0.002
		c-0.004-0.001-0.007-0.002-0.011-0.002c-0.046,0.544-0.045,1.062,0.005,1.582c-0.573-0.216-1.305,0.053-1.894,0.176
		c-1.129,0.236-2.482,0.809-2.457,2.117c0.019,0.963,1.396,0.621,1.914,0.478c1.48-0.413,3.147-0.566,4.516-1.277
		C26.952,33.438,26.916,33.07,26.69,32.925z M24.213,33.244c0.382-0.007,0.803-0.001,1.192,0.052
		c-0.419,0.139-0.854,0.248-1.293,0.345C24.225,33.539,24.27,33.388,24.213,33.244z"/>
	<path display="inline" fill="#16167B" d="M41.475,30.736c0.436-0.461,0.667-1.236,0.764-1.852c0.246-0.583,0.267-1.206-0.207-1.739
		c-0.457-0.516-1.331-0.132-1.766,0.191c-0.028,0.021-0.047,0.051-0.074,0.073c-0.051-0.172-0.098-0.345-0.153-0.516
		c-0.208-0.876-0.557-1.705-0.9-2.557c-0.079-0.195-0.168-0.397-0.261-0.601c-0.158-0.423-0.313-0.847-0.45-1.271
		c-0.227-0.697-0.526-1.476-0.908-2.202c-0.001-0.006-0.003-0.012-0.004-0.019c0-0.003-0.004,0.002-0.006,0.001
		c-0.238-0.452-0.502-0.887-0.821-1.253c0.014-0.099,0.012-0.199-0.025-0.284c-0.108-0.246-0.495-0.531-0.65-0.35
		c-0.001,0-0.001-0.001-0.002-0.001c-0.019-0.013-0.04,0.016-0.023,0.031l0.003,0.003c-0.026,0.047-0.046,0.108-0.046,0.202
		c0,0.21,0.071,0.399,0.148,0.586c-0.294-0.141-0.235-0.523-0.205-0.805c0.002-0.014-0.019-0.014-0.023-0.003
		c-0.089,0.211-0.233,0.363-0.128,0.6c0.09,0.202,0.223,0.33,0.425,0.415c0.006,0.002,0.01,0.001,0.016,0.003
		c0.017,0.041,0.033,0.082,0.048,0.124c0.116,0.341,0.218,0.653,0.463,0.926c0.062,0.069,0.174-0.004,0.15-0.088
		c-0.014-0.053-0.023-0.076-0.047-0.125c-0.005-0.01-0.016,0.003-0.025,0c-0.167-0.234-0.253-0.495-0.331-0.771
		c-0.005-0.017-0.017-0.038-0.023-0.055c0.109-0.037,0.188-0.135,0.237-0.25c0.415,0.578,0.72,1.256,0.989,1.948
		c0.271,1.174,0.789,2.3,1.257,3.439c0.252,0.704,0.485,1.413,0.712,2.124c0.091,0.39,0.162,0.783,0.188,1.188
		c-0.302,0.439-0.473,0.978-0.521,1.497c-0.016,0.165-0.019,0.347-0.004,0.53c-0.028,0.155-0.04,0.313-0.013,0.477
		c0.029,0.176,0.138,0.284,0.279,0.351c0.11,0.155,0.256,0.284,0.457,0.355c0.114,0.041,0.224,0.054,0.329,0.055
		c0.029,0.006,0.06,0.012,0.092,0.015c0.187,0.342,0.471,0.614,0.845,0.677c0.436,0.071,0.745-0.395,0.433-0.744
		C41.6,30.96,41.53,30.851,41.475,30.736z"/>
	<path display="inline" fill="#16167B" d="M16.18,20.778c-0.03-0.03-0.06-0.061-0.09-0.091c0.028-0.053,0.053-0.108,0.082-0.16
		c0.019-0.027,0.004-0.054-0.02-0.07c-0.006-0.004-0.011,0.003-0.018,0.001c-0.017-0.005-0.035-0.014-0.048,0.002
		c-0.003,0.003-0.005,0.007-0.008,0.011c0,0,0,0-0.001,0c-0.002,0.003-0.004,0.006-0.006,0.009
		c-0.048,0.062-0.091,0.132-0.138,0.196c-0.008,0.007-0.021,0.007-0.027,0.018c-0.012,0.021-0.021,0.045-0.033,0.067
		c-1.064,1.5-1.706,3.628-2.247,5.329c-0.112,0.352-0.254,0.896-0.328,1.454c-0.061,0.013-0.125,0.035-0.19,0.066
		c-0.06-0.057-0.116-0.122-0.18-0.169c-0.123-0.093-0.263-0.057-0.372,0.025c-0.035-0.021-0.066-0.048-0.103-0.068
		c-0.229-0.119-0.525-0.021-0.596,0.242c-0.219,0.817,0.346,1.912,0.732,2.625c0.291,0.537,1.051,1.687,1.815,1.468
		c0.807-0.23,0.739-1.005,0.313-1.544c-0.045-0.057-0.092-0.112-0.137-0.169c0.009-0.194-0.001-0.423-0.032-0.662
		c0.026-0.005,0.055-0.002,0.079-0.016c0.413-0.25,0.354-0.568,0.053-0.901c-0.034-0.037-0.077-0.058-0.123-0.067
		c-0.054-0.326-0.126-0.676-0.089-0.956c0.101-0.774,0.176-1.551,0.358-2.311c0.296-1.235,0.464-2.913,1.159-3.993
		c-0.009,0.015,0.013,0.033,0.025,0.019c0.149-0.183,0.102-0.1,0.184-0.301C16.203,20.816,16.193,20.792,16.18,20.778z
		 M14.182,25.942c-0.088,0.448-0.225,1.012-0.28,1.572c-0.028-0.007-0.058-0.004-0.085,0.011c-0.036,0.02-0.062,0.05-0.094,0.075
		c-0.017-0.009-0.035-0.016-0.052-0.023c0.064-0.69,0.178-1.343,0.398-2.043c0.188-0.597,0.402-1.193,0.629-1.786
		C14.495,24.483,14.323,25.225,14.182,25.942z"/>
</g>
<g id="Layer_6" display="none">
	<path display="inline" fill="#5B007A" d="M38.141,16.625c-0.188-1.599-0.88-4.829-2.774-5.376c-0.009-0.013-0.016-0.03-0.024-0.043
		c-0.325-0.469-1.055-0.57-1.392-0.057c-0.693,0.101-1.268,0.449-1.738,0.963c-0.354,0.09-0.656,0.341-0.747,0.817
		c-0.033,0.174-0.069,0.34-0.101,0.505c-0.093,0.2-0.18,0.406-0.258,0.622c-0.439,0.716-0.687,1.588-0.543,2.311
		c-0.035,0.267-0.065,0.534-0.086,0.799c0.024-0.239,0.063-0.477,0.105-0.712c0.016,0.063,0.021,0.13,0.043,0.19
		c0.041,0.111,0.102,0.216,0.173,0.314c-0.019,0.175-0.024,0.342-0.032,0.51c-0.493,0.06-0.988,0.563-0.875,1.142
		c0.137,0.696,0.454,1.397,0.787,2.065c0.003,0.014,0.007,0.027,0.011,0.041c0.07,0.488,0.229,0.949,0.555,1.326
		c0.719,1.145,2.036,2.329,3.266,1.944c0.296-0.093,0.532-0.235,0.745-0.398c0.42-0.115,0.839-0.349,1.243-0.75
		C37.972,21.375,38.369,18.56,38.141,16.625z"/>
	<path display="inline" fill="#5B007A" d="M45.625,12.864c-0.842-1.94-2.247-3.391-3.951-4.588c-0.522-0.367-1.186-0.808-1.83-1.112
		c-1.884-1.007-4.142-1.35-6.594-1.278c-1.958,0.058-4.726,0.986-6.098,2.419c-0.141,0.147-0.3,0.299-0.461,0.451
		C26.364,8.203,26,7.675,25.533,7.217c-0.044-0.043-0.105,0.021-0.066,0.066c0.18,0.208,0.341,0.427,0.49,0.652
		c-0.535-0.659-1.152-1.207-1.893-1.69c-0.569-0.371-1.208-0.709-1.83-0.98c-0.458-0.199-1.485-0.218-1.854-0.613
		c0.005-0.011,0.014-0.021,0.019-0.031c0.31-0.65,0.277-1.238-0.002-1.889c-0.264-0.616-1.026-0.883-1.604-1.074
		c-0.36-0.119-0.717-0.164-1.06-0.148c-0.028,0.001-0.056,0.002-0.083,0.004c-0.112,0.009-0.222,0.025-0.33,0.048
		c-0.026,0.006-0.052,0.011-0.078,0.018c-0.109,0.027-0.215,0.062-0.318,0.104c-0.032,0.013-0.063,0.026-0.094,0.04
		c-0.07,0.033-0.14,0.067-0.207,0.107c-0.413,0.228-0.777,0.557-1.045,0.956c-0.644,0.957-0.803,2.236-0.188,3.248
		c0.337,0.554,0.835,0.811,1.377,0.868c0.199,0.105,0.416,0.17,0.645,0.164c0.532-0.015,0.968-0.273,1.277-0.66
		c0.065-0.039,0.128-0.082,0.191-0.125c0.32-0.216,0.623-0.481,0.893-0.778c0.579,0.467,1.277,0.481,2.064,0.706
		c1.675,0.477,3.2,1.436,4.439,2.642c0.061,0.059,0.143,0.042,0.194-0.005c0.014,0.028,0.025,0.057,0.038,0.085
		c-1.147,1.06-2.592,2.247-3.178,3.672c-0.409,0.456-0.788,0.936-1.135,1.343c-0.053,0.062,0.002,0.134,0.066,0.126
		c-0.035,0.071-0.063,0.145-0.093,0.218c-0.704-0.363-1.527-0.248-2.087,0.563c-0.134,0.194-0.244,0.411-0.335,0.641
		c-0.694,1.066-0.849,2.735-0.91,3.808c-0.071,1.264,0.446,2.841,1.392,3.773c0.405,1.028,1.057,1.919,2.126,1.919
		c0.472,0,0.857-0.143,1.181-0.376c0.292,0.416,0.619,0.803,1,1.137c0.074,0.202,0.163,0.398,0.248,0.597
		c0.119,0.052,0.238,0.096,0.355,0.18c0.062,0.044,0.119,0.098,0.18,0.145c-0.105-0.187-0.223-0.367-0.319-0.557
		c0.094,0.066,0.192,0.128,0.289,0.192c0.351,0.492,0.846,0.887,1.371,1.194c0.112,0.065,0.24,0.14,0.373,0.215
		c0.037,0.038,0.089,0.089,0.185,0.185c0.003,0.001,0.006,0.002,0.01,0.003c0.035,0.025,0.068-0.01,0.059-0.048
		c0.006,0.003,0.013,0.007,0.02,0.01c0.012,0.008,0.022,0.016,0.035,0.023c0.048,0.051,0.094,0.09,0.141,0.134
		c0.053,0.029,0.106,0.052,0.16,0.086c0.087,0.055,0.175,0.105,0.262,0.158c0.148,0.06,0.292,0.131,0.438,0.196
		c-0.031-0.039-0.064-0.076-0.095-0.114c0.046,0.007,0.077-0.02,0.095-0.055c0.145,0.038,0.287,0.059,0.426,0.066
		c-0.007,0.051,0.01,0.105,0.079,0.129c0.134,0.047,0.27,0.087,0.405,0.129c0.065,0.006,0.133,0.007,0.198,0.015
		c0.059-0.014,0.116-0.015,0.174-0.022c0.04,0.019,0.083,0.039,0.123,0.057c0.251,0.11,0.536,0.28,0.836,0.455
		c-0.055,0.126-0.098,0.265-0.131,0.41c0.135-0.017,0.276-0.019,0.428-0.001c0.054,0.006,0.107,0.008,0.16,0.015
		c1.393-0.579,2.902-0.647,4.372-0.343c0.251-0.183,0.521-0.321,0.812-0.375c-0.047-0.049-0.094-0.097-0.145-0.142
		c0.251-0.128,0.5-0.264,0.756-0.38c0.084-0.045,0.18-0.081,0.274-0.118c0.345-0.152,0.69-0.302,1.04-0.444
		c0.1-0.058,0.197-0.107,0.302-0.179c0.261-0.178,0.555-0.264,0.854-0.286c0.22-0.089,0.438-0.183,0.657-0.277
		c0.367-0.273,0.727-0.55,1.082-0.831c0.051-0.05,0.107-0.092,0.157-0.143c0.044-0.032,0.084-0.07,0.127-0.103
		c0.001,0.007,0.006,0.013,0.007,0.02c0.022-0.018,0.046-0.035,0.068-0.053c0.356-0.285,0.728-0.432,1.09-0.492
		c1.013-0.924,2.09-1.781,3.082-2.621c0.027-0.035,0.054-0.069,0.081-0.104c0.082-0.348,0.146-0.7,0.169-1.061
		C46.958,18.824,46.947,15.914,45.625,12.864z M43.47,20.22c-0.047,0.106-0.104,0.193-0.16,0.283
		c-0.026,0.113-0.07,0.221-0.104,0.332c0.026,0.046,0.055,0.09,0.081,0.136c-0.103,0.226-0.222,0.443-0.334,0.665
		c-0.007-0.03-0.014-0.057-0.021-0.086c-0.287,0.613-0.68,1.182-1.207,1.676c-0.068,0.064-0.14,0.113-0.211,0.167
		c0.006,0.105,0.01,0.224,0.016,0.318c-1.806,1.985-4.317,2.984-6.946,3.681c-0.228,0.06-0.521,0.111-0.843,0.157
		c-0.009-0.025-0.009-0.053-0.021-0.074c-0.223-0.401-0.46-0.568-0.682-0.58c-0.263,0.37-0.654,0.649-1.185,0.741
		c-0.368,0.145-0.789,0.181-1.242,0.044c-0.062-0.019-0.124-0.032-0.185-0.049c-0.214,0.013-0.431,0.007-0.648-0.035
		c-0.122-0.023-0.239-0.058-0.356-0.093c-0.052-0.008-0.104-0.013-0.155-0.022c-0.018-0.015-0.037-0.028-0.054-0.043
		c-0.119-0.041-0.237-0.083-0.354-0.13c-0.162-0.039-0.328-0.092-0.496-0.172c-0.359-0.171-0.724-0.329-1.083-0.5
		c-0.046-0.022-0.079-0.053-0.121-0.077c-0.413-0.205-0.823-0.427-1.244-0.618c-0.194-0.373-0.402-0.722-0.609-1.074
		c-0.069-0.099-0.125-0.202-0.169-0.308c-0.319-0.206-0.574-0.496-0.747-0.832c0.517-0.34,0.585-0.96,0.313-1.399
		c0.065-0.376,0.107-0.768,0.12-1.174c0.012-0.098,0.024-0.196,0.03-0.296c0.151-0.463,0.102-0.968-0.042-1.478
		c-0.035-0.653-0.179-1.333-0.481-1.911c-0.004-0.014-0.009-0.026-0.013-0.04c-0.085-0.677-0.29-1.336-0.875-1.725
		c-0.029-0.019-0.065-0.027-0.099-0.038c-0.07-0.144-0.136-0.291-0.216-0.431c-0.022-0.04-0.052-0.07-0.076-0.108
		c0.177-0.472,0.382-0.938,0.636-1.393c0.164-0.179,0.31-0.373,0.416-0.601c0.02-0.043,0.023-0.087,0.023-0.13
		c1.007-1.081,1.978-1.963,2.99-2.684c0.319,0.799,0.629,1.604,1.052,2.353c0.055,0.097,0.191,0.028,0.171-0.072
		c-0.164-0.848-0.552-1.701-0.926-2.501c0.534-0.358,1.085-0.664,1.661-0.928c0.695-0.271,1.389-0.526,2.091-0.73
		c0.899-0.223,1.874-0.364,2.96-0.422c0.213-0.011,0.415,0.004,0.623,0.006c0.559,0.007,1.103,0.05,1.623,0.15
		c0.475,0.126,0.922,0.249,1.354,0.375c1.697,0.616,3.151,1.713,4.323,3.099c-0.13,0.075-0.264,0.174-0.401,0.312
		c-0.001,0.001-0.001,0.002-0.002,0.002c0.676,0.679,1.23,1.522,1.628,2.446c0.119,0.067,0.205,0.157,0.301,0.24
		c0.106,1.047,0.255,2.041,0.378,3.014C43.958,18.555,43.816,19.431,43.47,20.22z"/>
</g>
<g id="Layer_10" display="none">
	<path display="inline" fill="#5B007A" d="M22.941,8.721c-0.503,0.311-0.919,0.794-1.269,1.385c-0.043,0.037-0.081,0.082-0.107,0.14
		c-0.041,0.089-0.075,0.181-0.114,0.271c-0.025,0.05-0.053,0.096-0.077,0.147c-0.282-0.161-0.639-0.138-0.825,0.25
		c-0.024,0.051-0.044,0.107-0.067,0.159l0,0v0c-0.167,0.367-0.315,0.758-0.454,1.164c-0.042,0.013-0.083,0.022-0.125,0.043
		c-2.03,1.038-3.949,3.309-6.264,3.838c-0.952-0.3-1.93-0.523-2.935-0.728c-0.439-0.089-1.021,0.21-0.965,0.735
		c0.001,0.008,0.003,0.016,0.004,0.024c-0.102,0.253-0.08,0.544,0.13,0.726c0.531,2.242,2.181,3.847,2.127,6.229
		c-0.234-0.043-0.495-0.048-0.807,0.038c-1.832,0.504-2.414,4.081-2.117,5.563c0.056,0.279,0.316,0.504,0.58,0.579
		c0.881,0.252,1.036,0.111,1.893-0.313c1.105-0.547-1.139,3.482-1.438,4.294c-1.191,3.232,1.044,6.851,1.637,9.942
		c0.064,0.337,0.427,0.574,0.754,0.574c0.167-0.001,0.333-0.001,0.5-0.001c1.008-0.001,1.008-1.562,0-1.563
		c-0.137,0-1.501-7.708-1.359-8.531c0.429-2.491,4.445-4.692,2.583-7.235c-0.218-0.297-0.563-0.507-0.946-0.385
		c-1.885,0.602-2.161,2.044-1.673-1.03c-0.16,1.012,1.183,1.404,1.542,0.425c0.243-0.662,0.584-1.265,0.809-1.887
		c0.265,0.372,0.593,0.69,0.98,0.904c0.012,0.277,0.025,0.542,0.027,0.771c0.018,1.59,0.225,3.154,0.488,4.711
		c0.01,0.153,0.021,0.307,0.031,0.461c-0.082,0.987-0.092,1.98-0.035,2.953c0.035,0.599,0.944,0.783,1.086,0.146
		c0.01-0.045,0.015-0.091,0.023-0.136c0.18-0.079,0.311-0.244,0.285-0.511c-0.041-0.413-0.067-0.826-0.097-1.239
		c0.256,0.584,1.09,0.546,1.299-0.076c0.641-1.906,0.382-4.404,0.668-6.307c0.039-0.259,0.193-0.894,0.383-1.641
		c0.022-0.007,0.044-0.015,0.066-0.022c-0.236,2.356,0.042,5.126,1.179,6.796c0.299,0.438,1.047,0.55,1.319,0
		c0.158-0.319,0.26-0.57,0.25-0.879c0.025,0.039,0.043,0.082,0.069,0.121c0.452,0.684,1.634,0.266,1.368-0.577
		c-0.944-2.995-1.593-5.973-1.693-9.107c0.018-0.124,0.029-0.252,0.049-0.375c0.033-0.192-0.003-0.351-0.066-0.486
		c0.016-3.479,1.755-6.419,2.204-9.669C23.909,8.921,23.449,8.407,22.941,8.721z M18.063,15.468
		c-0.371-0.046-0.734-0.026-1.083,0.074c0.566-0.385,1.136-0.776,1.722-1.132C18.484,14.762,18.261,15.112,18.063,15.468z
		 M16.476,24.944c0.254,0.009,0.499-0.045,0.729-0.144c-0.245,0.767-0.469,1.542-0.671,2.324
		C16.519,26.396,16.503,25.669,16.476,24.944z M11.855,17.446c0.14,0.012,0.282,0.028,0.419,0.029
		c0.445,0.136,0.92,0.287,1.369,0.431c-0.238,0.521-0.388,1.076-0.453,1.647C12.378,18.505,11.971,17.836,11.855,17.446z"/>
	<path display="inline" fill="#5B007A" d="M35.819,17.218c-0.405-1.377-2.001-2.249-3.391-2.081
		c-0.392-0.051-0.787-0.061-1.179-0.028c-1.771,0.148-3.16,1.566-3.88,3.1c-0.699,1.488-1.028,3.724-0.164,5.215
		c0.989,1.709,2.886,2.053,4.672,1.524c0.961-0.285,1.71-0.792,2.272-1.424C36.292,22.26,37.124,19.333,35.819,17.218z"/>
</g>
<g id="Layer_12" display="none">
	<path display="inline" fill="#5B007A" d="M41.537,10.861c-0.042-0.416-0.152-0.846-0.314-1.272
		c0.111-0.939,0.135-1.919-0.328-2.688c-0.384-0.638-1.062-0.583-1.816-0.214c-1.476-1.135-3.335-1.4-4.791,0.496
		c-0.071,0.093-0.13,0.185-0.198,0.277c-0.136,0.034-0.261,0.111-0.334,0.251c-0.123,0.233-0.218,0.487-0.326,0.732
		c-1.195,1.957-1.637,3.9-1.411,6.401c0.075,0.832,0.094,2.23,0.489,3.28c-0.16-0.05-0.339-0.036-0.501,0.04
		c-0.312-0.613-0.821-1.101-1.31-1.61c-0.478-0.497-1.276-0.268-1.573,0.248c-0.731-0.141-1.54,0.067-2.086,0.822
		c-1.798,2.484-2.683,5.469-3.251,8.455c-0.573,3.008-0.145,5.687-0.145,8.671c0,0.325,0.065,0.607,0.177,0.85
		c0.011,0.812,0.226,1.524,0.567,2.087c0.23,1.035,0.603,1.915,1.198,2.078c1.217,0.335,1.826-0.369,2.151-1.332
		c0.55-0.418,1.082-1.099,1.532-2.125c0.09-0.204,0.058-0.42-0.143-0.546c-0.216-0.136-0.421-0.333-0.68-0.198
		c-0.041,0.021-0.099,0.063-0.165,0.116l-0.116-0.293c-0.018-0.046-0.054-0.063-0.08-0.098c-0.921-2.428,0.132-5.57,0.552-8.016
		c0.364-2.121,0.468-4.68,1.403-6.674c0.026,0.072,0.048,0.13,0.057,0.159c0.012,0.039,0.069,0.022,0.061-0.017
		c-0.021-0.087-0.04-0.173-0.061-0.259c0.058-0.116,0.105-0.238,0.169-0.35c0.009-0.015-0.013-0.032-0.024-0.019
		c-0.065,0.073-0.115,0.158-0.175,0.235c-0.006-0.022-0.011-0.044-0.016-0.066c0.128-0.206,0.249-0.415,0.389-0.613
		c0.03,0.036,0.063,0.074,0.095,0.11c-2.348,6.033-1.656,12.122-0.329,18.24c0.075,0.684,0.161,1.361,0.271,2.023
		c0.033,0.198,0.334,0.113,0.301-0.084c-0.117-0.702-0.203-1.418-0.281-2.137c-0.002-0.022-0.003-0.044-0.005-0.066
		c0.061,0.188,0.11,0.381,0.18,0.564c0.059,0.153,0.147,0.258,0.246,0.342l0.211,1.714c0.114,0.932,1.501,0.992,1.498,0
		c-0.001-0.583-0.028-1.164-0.063-1.745c0.221,1.106,0.437,2.233,0.409,2.361c-0.009,0.04,0.047,0.055,0.061,0.018
		c0.01-0.026,0.018-0.047,0.026-0.071c0.016,0.068,0.027,0.139,0.044,0.207c0.144,0.602,1.077,0.467,1.068-0.145
		c-0.003-0.19-0.019-0.38-0.045-0.569c0.524,0.081,1.081-0.433,0.746-1.043c-0.303-0.551-0.529-1.122-0.725-1.7
		c0.086-0.136,0.131-0.301,0.098-0.482c-0.366-1.968-0.597-3.965-0.694-5.969c0.005-0.217,0.011-0.437,0.013-0.644
		c0.016-1.353,0.162-2.71,0.245-4.061c0.014-0.463,0.045-0.925,0.07-1.388c0.304-1.617,0.639-3.132,0.896-4.416
		c0.229,0.059,0.47,0.109,0.733,0.138c2.104,0.231,3.916-2.004,4.874-3.531C41.565,15.447,41.756,13.019,41.537,10.861z
		 M27.682,28.309c-0.077,0.424-0.165,0.857-0.253,1.292c0.004-0.801,0.048-1.615,0.183-2.467c0.262-1.653,0.691-3.312,1.359-4.856
		C28.227,24.183,28.024,26.43,27.682,28.309z M29.973,27.875c-0.075,0.763-0.141,1.556-0.186,2.359
		c-0.127-3.389,0.376-6.91,0.926-10.246c0.1,0.118,0.201,0.24,0.305,0.369c0.002,0.002,0.004,0.002,0.006,0.005
		c0.015,0.062,0.032,0.123,0.045,0.186C30.291,22.883,30.214,25.447,29.973,27.875z M35.195,14.502
		c-0.049-0.143-0.09-0.357-0.126-0.597c0.099,0.023,0.2,0.032,0.304,0.028c0.167,0.067,0.344,0.099,0.524,0.094
		C35.976,14.493,35.754,14.664,35.195,14.502z M37.212,8.015c-0.259,0.228-0.503,0.455-0.729,0.674
		c0.024-0.269,0.04-0.534,0.031-0.786C36.747,7.94,36.98,7.978,37.212,8.015z M35.47,8.095c0.095-0.119,0.189-0.22,0.282-0.315
		c0.146,0.023,0.29,0.047,0.436,0.07C36.184,7.9,36.182,7.943,36.176,8c-0.022,0.209-0.035,0.42-0.051,0.63
		c-0.219-0.227-0.503-0.335-0.797-0.344C35.377,8.223,35.419,8.159,35.47,8.095z M34.927,17.265
		c-0.063-0.409-0.17-0.821-0.252-1.204c-0.046-0.214-0.08-0.424-0.112-0.633c0.118,0.159,0.253,0.286,0.399,0.391
		c0.123,0.543,0.146,1.09,0.155,1.645c-0.056-0.057-0.117-0.106-0.171-0.167C34.939,17.286,34.934,17.276,34.927,17.265z
		 M35.445,17.71c0.06-0.608-0.063-1.373-0.137-1.71c0.073,0.025,0.142,0.059,0.22,0.072c0.145,0.023,0.269-0.015,0.351-0.143
		c0.323-0.505,0.442-1.22,0.475-1.984c0.212-0.078,0.398-0.209,0.54-0.382c-0.064,0.646-0.134,1.295-0.21,1.942
		C36.401,16.261,35.963,16.839,35.445,17.71z M37.275,9.475c-0.019,0.611-0.08,1.224-0.146,1.835
		c-0.118-0.775-0.368-1.546-0.688-2.189c0.008-0.061,0.012-0.123,0.019-0.184c0.255-0.225,0.539-0.464,0.837-0.7
		C37.3,8.65,37.298,9.063,37.275,9.475z M34.147,21.591c0.035-0.204,0.063-0.41,0.101-0.613c0.092-0.484-0.611-0.692-0.746-0.206
		c-0.238,0.861-0.412,1.738-0.555,2.622c-0.003-0.311-0.007-0.622-0.01-0.933c0.076-0.61,0.112-1.206,0.123-1.791
		c0.136-0.055,0.197-0.256,0.037-0.336c-0.012-0.006-0.024-0.01-0.036-0.015c-0.004-0.287-0.018-0.568-0.045-0.845
		c0.344,0.567,0.844,0.968,1.534,1.19C34.414,20.959,34.279,21.27,34.147,21.591z M38.87,16.452
		c-0.397,0.769-1.048,1.467-1.784,1.993c-0.041-0.004-0.078-0.02-0.118-0.025c0.058-0.131,0.115-0.276,0.171-0.438
		c0.241-0.698,0.346-1.508,0.398-2.337c0.122-0.484,0.214-0.982,0.229-1.52c0.004-0.154-0.065-0.255-0.161-0.314
		c0.012-0.493,0.026-0.97,0.061-1.411c0.104-1.335,0.578-3.195,0.33-4.683c0.038-0.026,0.076-0.055,0.114-0.081
		c1.055,0.958,1.752,3.048,1.822,3.896C40.075,13.258,39.655,14.928,38.87,16.452z M40.979,9.024
		c-0.383-0.776-0.936-1.506-1.578-2.078c0.898-0.306,1.593-0.058,1.612,1.429C41.016,8.593,40.991,8.808,40.979,9.024z"/>
	<path display="inline" fill="#5B007A" d="M33.442,44.116c-0.097-0.132-0.212-0.245-0.335-0.351
		c0.083-0.045,0.164-0.099,0.242-0.166c0.107-0.092-0.007-0.276-0.137-0.235c-0.246,0.078-0.521,0.035-0.791-0.067
		c-0.107-0.061-0.216-0.121-0.322-0.181c-0.037-0.021-0.091-0.05-0.139-0.075c0.297,0.075,0.594,0.146,0.877,0.22
		c0.136,0.035,0.236-0.134,0.137-0.235c-0.609-0.616-1.188-1.106-1.964-1.516c-0.727-0.383-1.36-0.907-2.075-1.292
		c-0.367-0.197-0.987,0.04-0.927,0.532c0.068,0.552,0.28,0.925,0.661,1.327c0.445,0.47,0.803,1.015,1.324,1.409
		c0.73,0.553,2.132,1.606,3.143,1.383C33.438,44.803,33.636,44.378,33.442,44.116z"/>
</g>
<g id="Layer_13" display="none">
	<path display="inline" fill="#5B007A" d="M28.857,11.659c-5.075-1.682-12.236-0.158-14.513,5.333
		c-0.014,0.034,0.04,0.054,0.057,0.024c2.778-4.688,10.771-6.324,14.912-2.782c4.368,3.738,4.23,7.416,3.914,12.641
		c-0.258,4.261-2.945,8.123-6.354,10.521c-3.398,2.39-6.055-0.83-7.727-3.065c-0.527-0.705-1.397-0.887-2.086-0.27
		c-4.342,3.89,1.638,9.535,6.041,9.479c8.302-0.104,13.247-6.77,14.388-14.507C38.433,22.645,35.641,13.907,28.857,11.659z"/>
	<path display="inline" fill="#5B007A" d="M49.745,16.247c-1.478,0.362-2.991,1.22-4.558,1.107c-0.8-0.058-1.545,0.031-2.303,0.146
		c-0.318-0.449-1.024-0.652-1.414-0.155c-0.465,0.592-0.62,1.194-0.921,1.896c-0.069,0.162-0.124,0.355-0.175,0.558
		c-0.259-1.624-0.68-3.242-2.237-3.845c-0.04-0.015-0.073,0.036-0.053,0.069c1.272,2.13,0.866,4.502,1.317,6.801
		c0.118,0.599,0.858,0.663,1.252,0.331c0.949-0.8,1.074-2.236,1.523-3.424c1.643,0.808,4.957,0.084,6.979-0.407
		c-0.233,1.655-0.388,5.122-1.052,5.232c-3.142,0.52-5.124,1.095-7.86,2.823c-1.72,1.086-2.947,1.902-2.67,3.996
		c0.289,2.18-0.006,4.537,0.181,6.75c0.077,0.901,0.514,3.482,0.326,4.623c-0.051,0.107-0.081,0.232-0.082,0.377
		c0,0.042,0,0.083-0.001,0.125c-0.005,1.027,1.402,1.141,1.721,0.232c1.024-2.925-0.497-7.438-0.529-10.545
		c-0.036-3.581,5.601-8.349,9.497-6.756c0.471,0.193,0.846-0.279,0.895-0.682c0.269-2.186,0.542-4.116,0.036-6.221h0.001
		c0.688,0.108,1.297-0.215,1.573-0.726c0.056-0.068,0.117-0.125,0.167-0.208C52.021,17.241,50.939,15.955,49.745,16.247z"/>
</g>
<g id="Layer_14" display="none">
	<path display="inline" fill="#5B007A" d="M28.165,42.683c-0.801-0.375-1.572-0.613-2.234-1.238
		c-0.073-0.068-0.183,0.041-0.11,0.111c0.607,0.587,1.453,1.086,2.284,1.27C28.187,42.844,28.248,42.722,28.165,42.683z"/>
	<path display="inline" fill="#5B007A" d="M29.048,44.315c-0.205,0.079-0.396,0.18-0.585,0.287c-0.156-0.12-0.325-0.228-0.502-0.323
		c0.05-0.058,0.081-0.13,0.051-0.227c-0.168-0.537-0.652-0.758-1.131-0.983c-0.167-0.079-0.317-0.182-0.46-0.292
		c-0.01-0.009-0.02-0.021-0.03-0.027c0.131-0.096,0.203-0.296,0.069-0.459c-0.028-0.034-0.056-0.067-0.083-0.102
		c-0.043-0.053-0.108-0.072-0.175-0.08c-0.377-0.259-0.78-0.486-1.13-0.776c0.231,0.039,0.459,0.064,0.68,0.058
		c0.099-0.003,0.186-0.12,0.122-0.212c-0.771-1.095-2.229-1.649-3.379-2.232c-0.885-0.449-1.687-1.006-2.525-1.528
		c-0.833-0.681-1.765-1.209-2.729-1.688c-0.811-0.561-1.729-0.982-2.581-1.479c-0.326-0.19-0.652-0.379-0.979-0.568
		c0.229,0.028,0.42-0.074,0.529-0.24c0.278,0.1,0.542,0.244,0.768,0.458c0.056,0.056,0.116,0.106,0.176,0.158
		c0.026,0.018,0.063,0.043,0.121,0.085l0.006,0.004c1.319-3.314,2.736-6.619,4.17-9.804c0.499-1.108,3.688-6.303,5.079-4.622
		c1.628,1.968,1.595,5.25,1.995,7.639c0.169,0.858,0.347,1.715,0.532,2.571c0.243,1.146,0.125,1.798-0.198,2.172
		c-0.906-0.426-1.901-0.461-2.889-0.313c-0.535,0.079-1.059,0.193-1.585,0.31c-0.403,0.089-0.814,0.273-1.232,0.389
		c0.177-0.401,0.283-0.855,0.287-1.2c0.002-0.181,0.039-0.373,0.083-0.569c1.167-0.099,2.3-0.354,3.48-0.372
		c0.712-0.011,0.991-0.978,0.364-1.344c-0.337-0.196-0.575-0.172-0.827-0.089c-0.079-0.476-0.157-0.952-0.24-1.429
		c-0.117-0.667-0.112-1.366-0.247-2.029c0.109-0.457-0.161-0.93-0.667-1.019c-0.057-0.583-0.767-0.957-1.312-0.49
		c-1.21,1.036-1.557,2.782-2.278,4.14c-0.383,0.721-0.543,1.703-0.79,2.485c-0.322,1.02-0.754,1.974-0.732,3.054
		c0.008,0.377,0.225,0.594,0.488,0.669c0.163,0.142,0.366,0.24,0.616,0.238c0.042,0,0.083-0.001,0.125-0.001
		c0.073,0,0.126-0.027,0.191-0.04c2.128-0.287,5.535,0.589,7.611-0.086c0.787,0.144,1.599,0.356,2.21-0.269
		c0.216-0.221,0.202-0.551,0-0.773c-0.078-0.085-0.166-0.15-0.256-0.209c0.031-0.096,0.055-0.191,0.063-0.279
		c0.071-0.832,0.136-1.624,0.078-2.457c-0.051-0.749,0.051-1.661-0.63-2.115c-0.427-3.985-1.339-10.127-4.157-10.902
		c-4.725-1.299-7.869,8.96-8.91,11.935c-0.053,0.151-0.113,0.303-0.167,0.454c-0.003-0.002-0.004-0.004-0.008-0.005
		c-0.073-0.025-0.133,0.061-0.105,0.126c-0.037,0-0.074,0-0.111-0.001c-0.096-0.001-0.186,0.044-0.271,0.083
		c-0.093,0.041-0.22,0.05-0.327,0.07c-0.915-0.111-1.836-0.197-2.762-0.261c-0.03-0.016-0.06-0.032-0.099-0.04
		c-1.48-0.28-3.034-0.09-4.479-0.531c-0.901-0.276-2.073,0.012-2.682,0.709c-0.331,0.379-0.415,1.003,0,1.371
		c0.262,0.232,0.526,0.458,0.783,0.691c0.133,0.171,0.298,0.325,0.486,0.478c0.01,0.011,0.021,0.02,0.031,0.03
		c0.001-0.001,0.002-0.002,0.002-0.004c0.06,0.048,0.113,0.096,0.18,0.145c0.172,0.127,0.363,0.159,0.547,0.13
		c0.75,1.179,1.847,2.213,2.85,3.263c0.312,0.373,0.639,0.742,0.981,1.108c0.007,0.009,0.015,0.018,0.022,0.026
		c0.479,0.608,0.967,1.178,1.462,1.727c-0.808,2.314-1.443,4.676-1.721,7.131c-0.15,0.082-0.244,0.247-0.205,0.447
		c0.023,0.121,0.065,0.211,0.12,0.285c-0.006,0.078-0.021,0.154-0.027,0.232c-0.003,0.042,0.053,0.061,0.08,0.033
		c0.039-0.038,0.071-0.088,0.106-0.131c0.037,0.018,0.081,0.03,0.126,0.041c0.008,0.003,0.01,0.009,0.019,0.012
		c0.01,0.004,0.019-0.004,0.029-0.002c0.021,0.004,0.038,0.012,0.062,0.014c-0.007-0.005-0.014-0.011-0.021-0.016
		c0.109,0.008,0.204-0.037,0.271-0.119c0.361,0.174,0.816,0.176,1.256,0.104c0.158-0.025,0.329-0.046,0.493-0.068
		c0.212-0.015,0.424-0.042,0.625-0.055c0.024-0.002,0.027-0.022,0.037-0.038c1.094-0.14,2.246-0.291,3.222-0.723
		c0.243-0.047,0.484-0.099,0.73-0.14c1.041-0.173,1.932-0.692,2.878-1.055c0.123,0.032,0.257,0.038,0.401-0.023
		c0.217-0.094,0.304-0.173,0.479-0.337c0.138-0.129,0.173-0.296,0.142-0.45c0.089-0.15,0.084-0.363-0.1-0.453
		c-2.289-1.117-4.539-2.522-6.482-4.17c-0.331-0.28-0.651-0.579-0.967-0.883c0.036-0.099,0.076-0.198,0.112-0.297
		c-0.395-0.254-0.777-0.528-1.126-0.839c-0.011,0.029-0.023,0.059-0.034,0.088c-1.264-1.305-2.501-2.651-3.952-3.68
		c-0.44-0.45-0.868-0.911-1.295-1.372c0.246-0.283,0.349-0.685,0.105-1.02c-0.099-0.136-0.197-0.259-0.296-0.377
		c0.389,0.01,0.791,0.063,1.083,0.03c0.645-0.07,1.279-0.204,1.915-0.327c1.395-0.082,2.792-0.138,4.185-0.271
		c0.334,0.107,0.684,0.1,1.002-0.028c-0.319,0.86-0.652,1.716-0.991,2.57c-0.004-0.024-0.014-0.049-0.021-0.074
		c0.011-0.193-0.105-0.408-0.291-0.474c-0.026-0.009-0.054-0.008-0.081-0.016c-0.348-0.244-0.829-0.284-1.194-0.062
		c-0.067,0.021-0.133,0.042-0.2,0.064c-0.048-0.002-0.098-0.005-0.147-0.008c0,0,0,0,0,0c-0.295-0.084-0.562-0.08-0.844-0.021
		c-0.121-0.07-0.242-0.14-0.362-0.21c-0.44-0.376-0.9-0.726-1.376-1.023c-0.069-0.043-0.13,0.063-0.063,0.107
		c0.13,0.087,0.245,0.188,0.366,0.284c-0.095-0.058-0.192-0.111-0.287-0.169c-0.09-0.055-0.195,0.077-0.114,0.147
		c0.443,0.381,0.908,0.794,1.384,1.212c-0.141,0.222-0.117,0.544,0.199,0.614c0.197,0.044,0.383,0.057,0.567,0.048
		c1.784,1.523,3.771,3.007,5.94,3.435c0.159,0.1,0.319,0.195,0.481,0.29c1.002,0.845,1.988,1.717,3.095,2.43
		c0.906,0.584,2.155,1.355,3.353,1.661c0.118,0.177,0.265,0.328,0.408,0.483c-0.04-0.021-0.073-0.052-0.114-0.071
		c-0.167-0.077-0.438,0.053-0.352,0.271c0.152,0.385,0.509,0.577,0.789,0.869c0.012,0.013,0.023,0.025,0.035,0.038
		c-0.067-0.042-0.135-0.08-0.202-0.123c-0.034-0.021-0.063,0.031-0.031,0.055c0.176,0.128,0.348,0.256,0.521,0.384
		c0.343,0.378,0.678,0.762,1.034,1.129c0.191,0.196,0.535,0.521,0.907,0.758c-0.029,0.067-0.057,0.136-0.086,0.203
		c-0.029,0.038-0.039,0.079-0.057,0.119c-1.028,0.521-2.219,0.849-3.188,1.311c-0.444,0.212-0.896,0.403-1.349,0.592
		c-0.787,0.29-1.573,0.588-2.374,0.871c-0.321,0.113-0.637,0.244-0.951,0.383c-0.595,0.211-1.19,0.423-1.783,0.643
		c-0.163,0.061-0.232,0.199-0.232,0.336c-0.855,0.43-1.717,0.83-2.61,1.108c0.008-0.008,0.015-0.017,0.023-0.024
		c0.076-0.062,0.029-0.188-0.056-0.211c-0.697-0.191-1.497-0.006-2.221-0.072c-0.533-0.049-1.042,0.019-1.575-0.087
		c-0.383-0.076-0.636-0.204-1.032-0.125c-0.039,0.008-0.069,0.027-0.103,0.044c-0.618-0.225-1.123-0.511-1.375-0.864
		c-0.871-1.219-2.67-2.335-3.052-3.835c-0.565-2.221,3.743-3.598,5.293-5.297c0,0.661,0,1.322,0.016,1.983
		c0,0.021,0.03,0.02,0.031,0c0.043-0.715,0.077-1.383,0.029-2.067c0.09-0.105,0.172-0.211,0.238-0.319
		c0.233-0.381-0.147-0.763-0.533-0.693c-0.056,0.011-0.112,0.021-0.168,0.03c-0.187,0.034-0.281,0.198-0.318,0.366
		c-2.186,2.071-7.587,3.571-5.611,7.431c0.427,0.834,1.468,1.642,2.127,2.293c0.745,0.736,1.166,1.597,2.148,2.013
		c1.233,0.521,3.042,0.33,4.526-0.044c-0.002,0.091,0.048,0.179,0.171,0.179c2.135,0.009,3.616-0.789,5.542-1.651
		c0.465-0.208,0.933-0.401,1.402-0.59c1.415-0.432,2.823-0.878,4.192-1.45c1.098-0.459,2.308-0.756,3.406-1.247
		c0.154,0.027,0.314,0,0.457-0.109l0.612-0.472c0.207-0.139,0.408-0.289,0.597-0.46C30.411,44.811,29.677,44.015,29.048,44.315z
		 M22.559,27.445c0.007,0.051,0.011,0.104,0.02,0.153c0.056,0.32,0.111,0.64,0.167,0.96c0.014,0.161,0.033,0.32,0.056,0.479
		c-0.335,0.041-0.669,0.091-1.003,0.147c-0.007-0.133-0.028-0.262-0.077-0.383c-0.009-0.021-0.022-0.038-0.032-0.059
		C21.963,28.301,22.247,27.865,22.559,27.445z M19.884,43.839c-0.209,0.082-0.416,0.183-0.623,0.277c0-0.032-0.009-0.064-0.039-0.09
		c-0.426-0.373-0.974-0.57-1.394-0.938c-0.178-0.156-0.375-0.272-0.571-0.388c-0.004-0.079-0.018-0.15-0.034-0.222
		C18.11,42.997,19.001,43.47,19.884,43.839z M13.031,40.056c0.008-0.023,0.018-0.047,0.026-0.069
		c1.007,1.025,2.063,1.993,3.215,2.976c0.214,0.183,0.458,0.218,0.712,0.092c0.05-0.024,0.1-0.05,0.15-0.074
		c0.049-0.024,0.081-0.069,0.102-0.119c0.121,0.083,0.243,0.167,0.363,0.259c0.43,0.333,0.904,0.636,1.308,1.006
		c0,0.033,0.015,0.066,0.046,0.081c0.02,0.009,0.041,0.011,0.061,0.021c-0.424,0.198-0.845,0.401-1.263,0.581
		c-0.599,0.259-1.229,0.494-1.862,0.715c-0.709,0.13-1.413,0.339-2.114,0.474c-0.27,0.051-1.149,0.335-1.94,0.464
		c-0.039-0.016-0.077-0.024-0.116-0.042c-0.261-0.122-0.496-0.229-0.747-0.317l0.004-0.023
		C11.994,44.35,12.442,41.728,13.031,40.056z"/>
</g>
<g id="Layer_15" display="none">
	<path display="inline" fill="#5B007A" d="M20.5,21.431c-0.021,0.001-0.042,0.002-0.063,0.003c-0.729,0.036-0.729,1.096,0,1.132
		c0.021,0.001,0.042,0.002,0.063,0.003C21.233,22.604,21.233,21.396,20.5,21.431z"/>
	<path display="inline" fill="#5B007A" d="M26.373,25.488c-0.029-0.045-0.059-0.09-0.088-0.136c-1.11-1.704-3.459-1.704-4.569,0
		c-0.029,0.045-0.059,0.091-0.088,0.136c-1.155,1.773,0.367,4.135,2.373,4.135S27.528,27.261,26.373,25.488z"/>
	<path display="inline" fill="#5B007A" d="M32.167,23.007c-1.214-3.289-6.65-4.193-8.414-0.828c-0.07,0.134,0.066,0.246,0.192,0.192
		c1.51-0.642,2.616-1.225,4.353-0.915c2.812,0.501,2.727,4.656,1.839,6.479c-0.965,1.981-3.484,3.46-5.106,4.846
		c-1.328,1.135,0.463,3.478,1.874,2.429c0.065-0.048,0.13-0.097,0.195-0.145c0.042-0.031,0.078-0.066,0.116-0.1
		c0,0.001,0.001,0.002,0.001,0.003c0.014-0.014,0.028-0.027,0.042-0.04c0.036-0.033,0.072-0.065,0.104-0.099
		C30.891,31.511,34.075,28.176,32.167,23.007z"/>
	<path display="inline" fill="#5B007A" d="M41.417,23.666c-0.661-4.38-2.904-8.791-7.866-9.261
		c-3.103-0.294-10.399,0.763-11.063,4.83c-0.07,0.43,0.347,0.868,0.78,0.6c2.473-1.53,6.012-2.327,8.861-2.389
		c4.107-0.09,5.479,3.452,5.893,6.681c0.46,3.592-1.108,6.317-3.417,8.854c-5.171,5.684-12.648,11.079-19.403,14.675
		c-2.552,1.358-0.787,5.674,1.982,4.701c0.644-0.227,1.133-0.46,1.605-0.847c5.716-3.364,11.059-7.94,15.94-12.354
		C39.248,35.067,42.364,29.956,41.417,23.666z"/>
</g>
<g id="Layer_16" display="none">
</g>
<g id="Layer_8" display="none">
	<path display="inline" fill="#5B007A" d="M37.92,8.601c-0.337-0.099-0.519,0.31-0.319,0.548c0.035,0.042,0.061,0.084,0.095,0.125
		c-3.313-1.553-7.666-0.637-10.438,1.797c-0.054-0.05-0.137-0.07-0.19-0.004c-0.337,0.415-0.842,0.681-1.235,1.047
		c-0.466,0.436-0.834,1.084-1.102,1.652c-0.325,0.688-0.791,2.261-0.075,2.86c0.046,0.039,0.109,0.059,0.168,0.083
		c-0.056,0.013-0.113,0.028-0.167,0.04c-2.178,0.469-4.309,0.92-6.381,1.648c-0.117-0.3-0.249-0.587-0.403-0.829
		c-0.131-0.206-0.303-0.366-0.491-0.478c-0.211-0.43-0.796-1.373-1.387-0.935c-0.459,0.339-0.525,0.903-0.583,1.438
		c-0.031,0.287-0.016,0.575,0.008,0.862c-0.006,0.208,0.001,0.418,0.016,0.623c-0.342,0.004-0.681,0.067-0.999,0.211
		c-0.726,0.33-1.289,0.704-1.764,1.134c-0.318,0.213-0.619,0.447-0.835,0.73c-0.361,0.473-0.704,0.968-1.012,1.482
		c-0.021-0.066-0.04-0.137-0.063-0.2c-0.009-0.027-0.02-0.053-0.029-0.08c-0.036-0.094-0.073-0.185-0.113-0.268
		c-0.044-0.104-0.082-0.21-0.132-0.311c-0.04-0.208-0.087-0.408-0.129-0.614c0.037-0.251,0.042-0.504-0.015-0.729
		c-0.176-0.688-1.1-0.974-1.537-0.374c-0.193,0.265-0.194,0.548-0.125,0.856c0,0.003,0.002,0.004,0.003,0.007
		c-0.096,0.102-0.163,0.235-0.158,0.416c0.009,0.337,0.01,0.701,0.302,0.93c0.015,0.012,0.033,0.016,0.048,0.026
		c0,0.006-0.001,0.012-0.001,0.019c-0.262,0.739,0.024,1.695,0.114,2.415c0.096,0.764,0.268,1.897,0.849,2.517
		c0.098,0.153,0.213,0.291,0.348,0.407c0.294,0.423,0.706,0.727,1.315,0.789c0.509,0.052,0.619-0.552,0.367-0.874
		c0.073-0.157,0.089-0.331,0.042-0.491c0.481,0.555,1.103,0.967,1.773,1.269c-0.057-0.02-0.112-0.041-0.169-0.06
		c-0.061-0.021-0.087,0.076-0.026,0.097c0.474,0.161,0.942,0.339,1.417,0.5c0.061,0.021,0.087-0.075,0.026-0.096
		c-0.057-0.02-0.113-0.04-0.17-0.061c0.018,0.005,0.035,0.013,0.053,0.017c0.099,0.023,0.136-0.117,0.042-0.15
		c-0.447-0.161-0.896-0.346-1.332-0.556c0.092,0.032,0.173,0.082,0.273,0.1c0.158,0.029,0.244-0.166,0.108-0.257
		c-0.337-0.228-0.708-0.417-1.017-0.682c-0.36-0.309-0.701-0.628-1.049-0.951c-0.063-0.058-0.136-0.038-0.177,0.011
		c-0.283-1.037-0.426-2.164-0.715-3.217c1.024-1.46,2.693-3.444,4.512-3.685c0.049,0.442,0.132,0.824,0.21,1.029
		c-0.297,1.067-0.278,2.247-0.084,3.395c0.112,2.058,0.555,4.325,1.664,5.044c0.309,0.35,0.755,0.474,1.233,0.504
		c0.065,0.004,0.132-0.008,0.198-0.021c0.21,0.07,0.427,0.112,0.654,0.098c0.585-0.038,0.739-0.973,0.664-2.253
		c0.081-0.729-0.001-1.527-0.026-2.15c-0.064-1.582-0.229-4.396-1.43-5.639c-0.04-0.225-0.091-0.443-0.162-0.662
		c1.006-0.285,2.019-0.542,3.056-0.733c1.731-0.318,6.101-1.886,7.282-0.3c0.028,0.038,0.061,0.066,0.093,0.089
		c-0.015,0.717-0.032,1.434,0.049,2.162c0.019,0.17,0.033,0.357,0.048,0.545c-0.193,0.637-0.347,1.282-0.411,1.913
		c-0.053,0.521-0.245,1.244-0.075,1.752c0.03,0.113,0.079,0.219,0.116,0.329c-0.051,0.147-0.116,0.281-0.179,0.417
		c-2.691,1.036-5.445,2.108-8.02,3.41c-0.162,0.082-0.047,0.327,0.121,0.285c1.925-0.479,3.873-0.902,5.782-1.448
		c0.468-0.134,1.014-0.275,1.556-0.458c0.242,0.417,0.757,0.666,1.263,0.239c0.171,0.075,0.375,0.105,0.602,0.069
		c0.401-0.064,0.71-0.268,0.95-0.553c0.071-0.012,0.142-0.016,0.216-0.048c3.166-1.406,1.847-10.389-1.252-10.587
		c-0.239-0.19-0.605-0.147-0.762,0.122c-0.199,0.08-0.394,0.254-0.429,0.478c-0.809-0.362-1.898-0.093-2.904,0.165
		c0.032-0.049,0.071-0.091,0.082-0.16c0.125-0.821,0.203-1.619,0.402-2.434c0.215-0.884,0.811-1.582,1.175-2.38
		c2.796-2.326,7.116-2.926,10.273-1.104c0.968,0.558,1.622,1.163,2.043,1.803c0.294,0.767,0.49,1.56,0.626,2.388
		c-0.079,2.243-1.598,4.701-2.117,7.012c-0.066,0.294,0.273,0.491,0.496,0.289c0.608-0.55,1.137-1.196,1.579-1.898
		c-0.395,1.303-1.133,2.476-2.051,3.537c-1.028,1.189-4.628,1.59-4.628,1.59c0.208-0.137,0.077-0.457-0.169-0.4
		c-0.284,0.084-0.572,0.144-0.866,0.181c-0.278,0.041-0.37,0.403-0.251,0.618c0.754,1.357,3.153,1.14,4.413,0.92
		c2.078-0.362,4.024-2.479,4.797-4.321C42.773,18.632,42.663,9.986,37.92,8.601z"/>
</g>
<g id="Layer_7" display="none">
	<path display="inline" fill="#5B007A" d="M42.159,13.685c-9.639,1.022-24.832,8.768-28.045,18.528
		c-0.063,0.191,0.191,0.32,0.326,0.189c0.256-0.248,0.531-0.48,0.792-0.727c-0.234,0.59-0.41,1.197-0.462,1.836
		c-0.013,0.16,0.218,0.211,0.292,0.08c1.993-3.561,7.685-6.303,11.082-8.368c3.929-2.387,8.512-3.61,12.31-6.112
		c0.676-0.445,0.502-1.773-0.452-1.671c-0.098,0.011-0.194,0.037-0.295,0.048c1.663-0.727,3.289-1.516,4.806-2.497
		C43.048,14.646,42.901,13.606,42.159,13.685z"/>
	<path display="inline" fill="#5B007A" d="M32.45,23.215c-5.585,1.28-10.959,4.9-14.863,9.007c-0.32,0.338,0.149,0.773,0.497,0.498
		c4.531-3.607,10.097-5.256,14.786-8.507C33.375,23.862,33.07,23.072,32.45,23.215z"/>
	<path display="inline" fill="#5B007A" d="M50.889,3.733c-2.643,0.112-5.435,0.941-8.207,2.059
		c-0.071-0.283-0.356-0.535-0.668-0.455c-4.941,1.276-9.389,4.466-13.615,7.491c-5.306,2.988-10.416,7.252-13.388,12.469
		c-0.34,0.597,0.529,1.326,0.979,0.755c0.543-0.688,1.127-1.355,1.736-2.007c-0.055,0.171-0.127,0.331-0.174,0.506
		c-0.023,0.088,0.095,0.135,0.142,0.06c0.546-0.848,1.187-1.607,1.833-2.363c3.734-3.484,8.254-6.379,12.572-8.697
		c6.029-3.24,13.831-4.797,19.12-9.02C51.542,4.274,51.272,3.717,50.889,3.733z"/>
	<path display="inline" fill="#5B007A" d="M49.02,3.667c-0.151,0-0.151,0.234,0,0.234C49.169,3.901,49.169,3.667,49.02,3.667z"/>
	<path display="inline" fill="none" stroke="#5B007A" stroke-width="0" stroke-linecap="round" stroke-linejoin="round" d="
		M9.728,35.629c0.05,0,0.05-0.076,0-0.076"/>
	<path display="inline" fill="#5B007A" d="M33.189,48.801c-0.415-0.231-0.855-0.415-1.305-0.581
		c-0.754-0.486-1.603-0.73-2.502-1.023c-0.088-0.028-0.177-0.064-0.266-0.094c-0.176-0.278-0.413-0.522-0.648-0.769
		c0.041,0.01,0.082,0.035,0.125,0.047c0.156,0.041,0.321-0.139,0.22-0.287c-0.405-0.594-0.975-1.076-1.589-1.516
		C27.03,44.356,26.79,44.172,26.537,44c0-0.049,0.004-0.099-0.009-0.146c-0.25-0.893-0.939-1.287-1.668-1.804
		c-1.086-0.77-1.839-1.767-2.703-2.765c-0.278-0.321-0.583-0.625-0.886-0.93c0.057-0.08,0.09-0.179,0.061-0.281
		c-0.211-0.748-0.935-1.354-1.453-1.907c-0.346-0.37-0.836-0.705-1.182-1.113c-0.03-0.04-0.057-0.083-0.087-0.123
		c-0.064-0.086-0.116-0.18-0.167-0.272c0.951-0.782,1.953-0.879,3.047-1.439c1.27-0.649,2.691-1.201,3.819-2.077
		c0.297-0.231,0.052-0.779-0.31-0.747c-1.847,0.163-3.647,1.467-5.32,2.204c-0.619,0.272-1.766,0.8-1.838,1.529
		c-0.141-0.104-0.389-0.076-0.446,0.13c-0.15,0.539,0.115,0.869,0.38,1.344c0.445,0.795,0.771,1.589,1.325,2.315
		c0.176,0.23,0.357,0.494,0.543,0.758c0.01,0.022,0.019,0.048,0.029,0.069c0.003,0.006,0.007,0.013,0.01,0.019
		c-0.096-0.026-0.191-0.056-0.283-0.099c-0.02,0.039-0.025,0.085,0.014,0.128c0.251,0.272,0.515,0.566,0.786,0.868
		c0.176,0.272,0.362,0.538,0.555,0.801c-0.398-0.253-0.797-0.507-1.216-0.741c-0.303-0.248-0.591-0.484-0.837-0.686
		c-0.256-0.539-0.606-1.029-1.071-1.578c-1.012-1.197-2.026-2.273-2.929-3.502c-0.239-0.391-0.506-0.76-0.729-1.166
		c-0.146-0.264-0.335-0.563-0.538-0.873c-0.659-1.25-1.159-2.541-1.699-3.84c-0.014-0.1-0.024-0.199-0.045-0.301
		c-0.087-0.422-0.078-0.843-0.061-1.27c0.018-0.443-0.137-0.74,0.06-1.192c0.056-0.128-0.085-0.25-0.196-0.151
		c-0.02,0.017-0.034,0.042-0.052,0.06c0.011-0.023,0.016-0.047,0.012-0.07c0.005-0.004,0.012-0.008,0.017-0.012
		c0.057-0.05-0.002-0.158-0.076-0.13c-0.03,0.011-0.062,0.026-0.093,0.038c-0.001,0-0.001,0-0.002,0
		c-0.024,0.007-0.044,0.021-0.068,0.029c-0.046,0.019-0.091,0.037-0.137,0.056c-0.029-0.065-0.091-0.126-0.155-0.14
		c-0.112-0.023-0.224-0.045-0.336-0.067c-0.012-0.002-0.016,0.009-0.026,0.011c-0.609-0.267-1.233-0.217-2.014-0.229
		c-1.516-0.023-3.177-0.934-4.395-1.772c-0.039-0.027-0.093-0.026-0.142-0.009c-0.223-0.215-0.433-0.433-0.6-0.65
		c-0.111-0.144-0.398-0.379-0.612-0.611c-0.879-1.644-1.723-3.303-2.556-4.994c-0.079-0.16-0.336-0.047-0.286,0.121
		c0.551,1.829,1.4,3.462,2.28,5.078c0.062,0.383,0.337,0.819,0.67,1.23c0.183,0.338,0.364,0.677,0.542,1.019
		c-0.028-0.028-0.06-0.051-0.087-0.079c-0.049-0.049-0.142,0.018-0.099,0.076c0.134,0.177,0.292,0.354,0.449,0.53
		c0.198,0.395,0.386,0.795,0.566,1.202C4.264,25.89,4.24,25.939,4.234,26c-0.146,1.605,1.609,3.668,2.693,5.004
		c0.17,0.258,0.345,0.511,0.522,0.759c-0.177,0.216-0.322,0.436-0.351,0.766c-0.02,0.239,0.192,0.386,0.406,0.397
		c0.213,0.894,1.081,1.733,1.584,2.409c0.064,0.087,0.137,0.183,0.212,0.282c-0.094,0.006-0.183,0.068-0.183,0.182
		c-0.014,1.754,1.293,2.928,2.222,4.254c1.261,1.803,2.755,3.816,4.916,4.514c0.333,0.105,0.682-0.244,0.575-0.576
		c-0.561-1.744-2.001-2.926-3.209-4.258c-0.601-0.662-1.216-1.295-1.878-1.896c-0.185-0.169-0.42-0.363-0.668-0.57
		c0.221,0.1,0.447,0.162,0.676,0.149c0.24-0.014,0.49-0.159,0.558-0.405c0.578,0.847,1.229,1.662,1.958,2.359
		c0.819,1.117,1.752,2.195,2.776,3.117c-0.04-0.023-0.079-0.044-0.119-0.067c-0.105-0.063-0.191,0.093-0.095,0.162
		c1.303,0.937,2.645,1.841,4.027,2.675c1.024,1.136,3.109,2.053,4.053,2.5c2.126,1.008,5.089,2.859,7.419,1.681
		c0.224,0.022,0.446,0.048,0.673,0.063C33.378,49.525,33.505,48.978,33.189,48.801z"/>
</g>
<g id="Layer_17">
	<path fill="#706072" d="M15.667,8.244c0.293,0,22.399,0,22.399,0l14.379,16.94L28.773,36.4l-3.162-6.13
		c0,0,16.66-4.428,2.673-15.328c-9.781,6.245-15.357,14.306-15.357,14.306s-2.152,11.694,9.977,18.507
		C10.776,39.921-2.516,45.059,8.732,11.45c13.107,0,7.521-3.206,7.521-3.206"/>
</g>
<g id="Layer_18" display="none">
	<path display="inline" fill="#706072" d="M15.003,29.742c0.168,0,12.831,0,12.831,0l8.236,9.703l-13.56,6.426l-1.812-3.512
		c0,0,9.543-2.537,1.531-8.78c-5.603,3.577-8.796,8.195-8.796,8.195s-1.233,6.699,5.715,10.601
		c-6.948-4.488-14.563-1.545-8.119-20.797c7.508,0,4.309-1.836,4.309-1.836"/>
	<g display="inline">
		<path fill="#504096" d="M55.038,26.764c-0.004-0.044-0.01-0.088-0.016-0.131c-0.001-0.045-0.066-0.046-0.074-0.006
			c-0.015,0.099-0.021,0.083-0.006,0.161C54.956,26.858,55.063,26.832,55.038,26.764z"/>

			<linearGradient id="SVGID_2_" gradientUnits="userSpaceOnUse" x1="3.7075" y1="29.3164" x2="54.9336" y2="29.3164" gradientTransform="matrix(0.9128 0.4084 -0.4084 0.9128 12.3096 -11.3393)">
			<stop  offset="0.2118" style="stop-color:#900C3E"/>
			<stop  offset="1" style="stop-color:#FF5733"/>
		</linearGradient>
		<path fill="url(#SVGID_2_)" d="M54.886,27.252c-0.108,0.519-0.308,0.937-0.547,1.328c-0.02,0.006-0.037,0.013-0.053,0.032
			c-0.257,0.312-0.504,0.627-0.746,0.944c0.263-0.701,0.477-1.411,0.579-2.096c0.058-0.404,0.063-0.874,0.021-1.369
			c0.071-0.021,0.131-0.07,0.149-0.158c0.143-0.779-0.094-1.554-0.312-2.296c-0.232-0.802-0.492-1.483-1.064-2.114
			c-0.037-0.04-0.12-0.006-0.091,0.049c0.021,0.042,0.041,0.083,0.064,0.126c0.021,0.043,0.081,0.021,0.07-0.027
			c0.112,0.43,0.192,0.892,0.267,1.362c-0.41-0.708-0.949-1.281-1.629-1.552c-0.057-0.097-0.114-0.191-0.183-0.296
			c-0.193-0.295-0.406-0.573-0.637-0.837c-0.231-0.26-0.675-0.376-0.966-0.559c-0.098-0.06-0.198,0.035-0.144,0.135
			c0.036,0.067,0.064,0.138,0.095,0.213l-0.017-0.01c-0.021-0.037-0.043-0.068-0.064-0.105c-0.259-0.449-0.658-0.803-0.861-1.278
			c-0.01-0.026-0.055-0.019-0.049,0.011c0.052,0.275,0.138,0.47,0.273,0.711c0.315,0.562,0.477,1.195,0.776,1.766
			c0.237,0.458,0.554,0.905,0.899,1.325c0.009,0.081,0.038,0.167,0.099,0.252c1.47,2.1,2.379,4.112,0.623,6.472
			c-1.473,1.98-3.275,2.887-5.774,3.122c-2.097,0.2-4.238,0.362-4.773-2.345c-0.25-1.269,0.123-1.964,0.145-3.099
			c0.042-1.918,0.222-3.864-0.041-5.774c-0.018-0.113-0.158-0.124-0.206-0.035c-0.103-0.163-0.185-0.323-0.269-0.478
			c0.202-0.968-0.19-2.363-0.529-3.218c-0.168-0.413-0.519-0.655-0.904-0.734c0.01-0.448-0.137-0.89-0.362-1.303
			c0.021-0.123,0.034-0.254,0.018-0.4c-0.058-0.52-0.352-1.007-0.685-1.391c-0.417-0.482-0.724-1.003-1.1-1.521
			c-0.296-0.402-0.625-0.575-0.956-0.597c-0.384-0.465-0.653-0.995-1.271-1.203c-0.369-0.125-0.787-0.087-1.113,0.097
			c-0.748-0.867-1.613-1.651-2.576-2.046c-0.086-0.639-0.396-1.254-1.014-1.717c-0.627-0.471-1.202-0.677-1.77-0.75
			c-0.046-0.028-0.091-0.054-0.143-0.087c-0.936-0.296-1.834-0.493-2.802-0.653c-0.28-0.046-0.542-0.083-0.797-0.115
			c-0.333-0.228-0.737-0.393-1.236-0.452c-0.12-0.015-0.246-0.026-0.37-0.041c-0.648-0.129-1.351-0.164-2.074-0.129
			c-1.898-0.029-3.936,0.226-5.313,1.219c-0.994,0.393-1.881,0.835-2.569,1.264c-1.505,0.939-3.793,1.705-4.974,3.08
			c-1.891,2.2-3.262,4.555-4.369,7.244c-0.937,2.284-0.862,4.313-0.981,6.779c-0.099,2.045-0.798,3.88-0.025,5.905
			c0.134,0.352,0.272,0.69,0.412,1.021c-0.112,1.12,0.082,2.265,0.626,3.208c0.007,0.012,0.018,0.021,0.025,0.033
			c0.374,2.195,3.212,4.378,4.525,6.037c0.501,0.634,1.117,0.924,1.727,0.968c0.467,0.56,0.975,1.081,1.578,1.438
			c-0.308-0.44-0.624-0.875-0.971-1.289c-0.283-0.338-0.562-0.662-0.778-1.014c-0.252-0.25-0.466-0.556-0.681-0.834
			c-0.094-0.121-0.184-0.244-0.274-0.367c-1.319-0.902-2.456-2.025-2.891-3.514c-0.103-0.353,0.331-0.746,0.658-0.506
			c1.87,1.36,3.535,2.975,5.612,4.04c0.058,0.028,0.117,0.05,0.175,0.079c-2.291-1.664-3.923-3.979-4.729-6.736
			c-0.041-0.137,0.145-0.196,0.22-0.091c1.143,1.616,2.417,3.295,3.947,4.623c-0.969-1.087-1.743-2.418-2.2-3.767
			c-2.138-1.807-3.843-4.162-4.676-6.648c0.127,1.583,0.185,3.189,0.852,4.611c0.069,0.146-0.106,0.301-0.232,0.179
			c-2.076-2.029-2.975-5.545-2.142-8.379c0.091-0.307,0.563-0.413,0.72-0.095c0.099,0.205,0.167,0.418,0.243,0.631
			c-0.073-2.861,1.188-5.635,4.422-7.655c0.207-0.13,0.511,0.14,0.352,0.352c-5.699,7.562,0.447,15.161,6.896,19.745
			c0.078,0.055,0.109,0.131,0.107,0.205c0.071,0.034,0.14,0.072,0.21,0.109c-0.098-0.211-0.198-0.423-0.293-0.64
			c-3.104-2.249-6.363-5.511-7.179-9.271c-0.009-0.043,0.045-0.064,0.07-0.028c1.771,2.458,4.699,4.875,7.221,6.632
			c0.072,0.023,0.141,0.056,0.2,0.108c0.028,0.025,0.051,0.057,0.078,0.083c0.036,0.024,0.072,0.05,0.107,0.075
			c1.276,0.867,2.95,2.222,4.576,2.26c0.692,0.017,1.175-0.294,1.633-0.686c-0.272-0.815-0.783-1.538-1.539-1.913
			c-0.098-0.048-0.156-0.067-0.194-0.075c-0.163,0.209-0.297,0.424-0.499,0.606c-0.479,0.433-1.172,0.468-1.64,0
			c-1.32-1.32,0.488-3.188,1.859-3.323c0.032-0.002,0.063,0.002,0.094,0c-0.538-0.298-1.099-0.486-1.659-0.485
			c-0.25,0-0.284-0.298-0.116-0.428c1.439-1.107,2.251-1.493,4.13-0.777c1.375,0.526,2.612,1.836,3.432,3.182
			c-0.016-0.193-0.021-0.385-0.012-0.574c0.021-0.513,0.657-0.67,0.938-0.254c0.218,0.326,0.41,0.698,0.588,1.088
			c0.008,0.002,0.014,0.008,0.021,0.012c-0.229-0.688-0.506-1.363-0.841-2.005c-0.042-0.552-0.17-1.087-0.54-1.525
			c-0.927-1.102-0.831-4.118-0.419-5.864c0.171-0.718-0.015-1.273-0.381-1.656c0.049-0.09,0.09-0.19,0.146-0.267
			c1.4-1.963,2.81-2.863,4.729-3.301c0.426,0.063,0.807,0.128,1.07,0.161c0.064,0.008,0.119,0,0.181,0.001
			c0.513,0.681,1.396,1.234,1.915,1.625c0.268,0.202,0.556,0.231,0.816,0.167c0.187,0.502,0.383,1.006,0.757,1.4
			c0.354,0.375,0.372,0.68,0.366,1.186c0.021,0.197,0.072,0.382,0.145,0.562c0.057,0.306,0.191,0.854,0.219,1.037
			c0.106,0.758,0.488,1.255,1.047,1.749c0.024,0.022,0.053,0.033,0.079,0.053c-0.144,0.568-0.224,1.155-0.286,1.726
			c-0.054,0.193-0.106,0.392-0.17,0.579c-0.094,0.28-0.044,0.528,0.078,0.73c0.006,0.07,0.016,0.142,0.025,0.213
			c-0.053,0.086-0.099,0.178-0.119,0.286c-0.079,0.353-0.148,0.726-0.182,1.097c-0.068-0.601-0.114-1.213-0.169-1.819
			c-0.014-0.117-0.174-0.109-0.2-0.006c-2.129,8.808,7.322,11.063,13.267,6.858c0.049-0.036,0.095-0.084,0.147-0.12
			c2.443-0.89,3.869-3.68,4.61-6.02c0.187-0.475,0.355-0.962,0.509-1.447C54.979,27.219,54.898,27.195,54.886,27.252z M6.653,14.974
			c-0.067,0.099-0.215,0.013-0.16-0.094c1.122-2.208,3.03-3.538,5.38-4.168c0.273-0.074,0.472,0.354,0.198,0.469
			C10.018,12.048,7.932,13.079,6.653,14.974z M17.441,11.37c-2.831,1.938-4.772,4.564-6.283,7.612
			c-0.074,0.15-0.348,0.085-0.326-0.088c0.904-7.026,9.287-12.999,16.281-12.119c0.5,0.063,0.613,0.697,0.12,0.881
			C23.92,8.892,20.445,9.315,17.441,11.37z M34.264,15.011c-2.027-2.099-4.861-4.884-8.043-4.144
			c-0.187,0.043-0.265-0.237-0.081-0.284c3.383-0.877,6.296,1.887,8.293,4.259C34.531,14.958,34.373,15.125,34.264,15.011z"/>
		<g id="Layer_1_2_">

				<linearGradient id="SVGID_3_" gradientUnits="userSpaceOnUse" x1="3.0254" y1="35" x2="39.4602" y2="13.9644" gradientTransform="matrix(0.9915 0.1303 -0.1303 0.9915 2.3601 -6.0378)">
				<stop  offset="0.1034" style="stop-color:#375879"/>
				<stop  offset="0.4975" style="stop-color:#7298AC"/>
			</linearGradient>
			<path fill="url(#SVGID_3_)" d="M40.631,26.734c0.389-1.338,0.688-2.694,0.697-4.091c0.025-2.694-0.429-5.232-0.999-7.76
				c-2.444-3.729-3.021-4.133-4.152-5.098c-1.159-0.989-3.911-2.555-5.45-3.195c-1.533-0.64-6.271-1.097-10.021,0.124
				c-3.753,1.221-6.784,3.063-8.079,4.297c-0.921,0.881-2.478,2.551-3.605,4.874c0.122,0.067,0.205,0.209,0.107,0.34
				c-0.266,0.353-0.481,0.707-0.697,1.06c-0.194,0.541-0.368,1.1-0.495,1.697c-0.855,4.007-0.448,7.014,1.42,9.041
				c0.028,0.03,0.063,0.067,0.092,0.1c-0.243-0.57-0.449-1.15-0.579-1.749c-0.009-0.043,0.045-0.064,0.07-0.028
				c1.179,1.635,2.871,3.254,4.615,4.672c1.501,0.473,3.349,0.466,5.558-0.667c0.051-0.064,0.099-0.13,0.148-0.195
				c-0.103,0.065-0.206,0.128-0.315,0.183c-0.041,0.02-0.068-0.039-0.035-0.065c0.216-0.16,0.383-0.37,0.523-0.607
				c-0.085-0.008-0.171-0.037-0.256-0.037c-0.25,0-0.284-0.298-0.116-0.428c0.267-0.205,0.508-0.376,0.743-0.528
				c0.164-0.775,0.16-1.695,0.079-2.636c-0.137,0.095-0.265,0.186-0.361,0.298c-0.975-0.542-4.08-1.314-5.73-2.816
				c-1.561-1.813-0.402-3.969,0.568-4.516c0.415-0.193,1.895-0.534,2.483,1.633c0.459-1.641-0.749-3.742-3.314-3.255
				c-1.496-3.041,4.332-5.88,6.903-6.661c4.741-1.436,8.595-0.095,9.117-0.02c-2.779-1.033-5.184-1.625-8.289-1.173
				c-1.32,0.458-2.608,1.016-3.818,1.844c-2.831,1.938-4.772,4.564-6.283,7.612c-0.074,0.15-0.348,0.085-0.326-0.088
				c0.904-7.026,9.287-12.999,16.281-12.119c0.5,0.063,0.613,0.697,0.12,0.881c-0.669,0.249-1.345,0.461-2.021,0.665
				c2.458,0.015,5.536,0.601,7.491,1.87c2.354,1.525,4.711,3.189,6.611,6.866c1.425,2.767,1.604,6.273,1.488,8.25
				C40.778,25.75,40.717,26.23,40.631,26.734z"/>

				<linearGradient id="SVGID_4_" gradientUnits="userSpaceOnUse" x1="3.4023" y1="35.6387" x2="39.8351" y2="14.6043" gradientTransform="matrix(0.9915 0.1303 -0.1303 0.9915 2.3601 -6.0378)">
				<stop  offset="0.1034" style="stop-color:#375879"/>
				<stop  offset="0.4975" style="stop-color:#7298AC"/>
			</linearGradient>
			<path fill="url(#SVGID_4_)" d="M24.672,3.801C13.215,2.297,2.684,10.565,1.146,22.271c-1.223,9.302,3.617,17.947,11.402,21.866
				c-0.642-0.943-1.253-1.9-1.984-2.78c-3.419-2.3-5.99-6.097-7.067-7.886c-0.069-0.084-0.142-0.164-0.21-0.256
				c-0.02-0.022-0.023-0.046-0.023-0.068c-0.057-0.072-0.119-0.143-0.095-0.236c-0.149-0.26-0.231-0.416-0.231-0.416
				s0.072,0.123,0.268,0.396c0.021,0.002,0.044,0.002,0.065,0.006c0.012,0,0.011,0.014,0.001,0.016
				c-0.001,0.002,0.04,0.044,0.098,0.107c0.042-0.01,0.088-0.01,0.124,0.039c0.128,0.169,0.273,0.327,0.416,0.488
				c0.26,0.233,0.507,0.479,0.76,0.718c0.458,0.579,0.956,1.103,1.288,1.444c-0.013-0.042-0.037-0.079-0.05-0.123
				c-0.103-0.353,0.331-0.746,0.658-0.506c1.87,1.36,3.535,2.975,5.612,4.04c0.058,0.03,0.119,0.05,0.176,0.08
				c-1.277-0.929-2.35-2.058-3.188-3.354c-1.995-1.543-3.174-3.291-3.874-4.754c-1.894-2.059-2.698-5.386-1.9-8.101
				c0.091-0.307,0.563-0.413,0.72-0.095c0.101,0.207,0.169,0.422,0.245,0.635c-0.061-2.341,0.771-4.625,2.848-6.485
				c0.344-1.032,0.767-2.001,1.339-2.835c0.447-0.651,1.018-1.405,1.704-2.188c-1.4,0.722-2.698,1.621-3.595,2.95
				c-0.067,0.099-0.215,0.013-0.16-0.094c1.031-2.03,2.731-3.309,4.823-3.993c1.218-1.199,2.734-2.395,4.597-3.361
				c3.698-1.922,8.234-3.004,13.193-1.77c0.42-0.028,1.339-0.175,1.816-1.254C28.715,5.208,26.65,4.062,24.672,3.801z"/>

				<linearGradient id="SVGID_5_" gradientUnits="userSpaceOnUse" x1="6.7227" y1="41.4053" x2="43.1584" y2="20.3691" gradientTransform="matrix(0.9915 0.1303 -0.1303 0.9915 2.3601 -6.0378)">
				<stop  offset="0.1034" style="stop-color:#375879"/>
				<stop  offset="0.4975" style="stop-color:#7298AC"/>
			</linearGradient>
			<path fill="url(#SVGID_5_)" d="M38.061,24.542c0.479-3.462-1.197-6.064-2.129-7.474c0.135,0.452,0.117,0.404-0.242,1.667
				c-0.646-1.008-3.357-2.238-5.467-2.443c-3.6-0.352-4.65,1.358-4.84,1.138c-0.188-0.218-0.201-0.318,0.01-2.672
				c-2.08,1.461-3.143,4.28-3.744,6.589c-0.083,1.504-0.154,2.983,0.096,4.42c0.05-0.08,0.049-0.057,0.049-0.057
				s-0.018,0.035-0.044,0.095c0.147,0.82,0.409,1.625,0.825,2.415c0.194,0.054,0.396,0.12,0.617,0.203
				c0.426,0.163,0.837,0.403,1.23,0.692c1.018,0.199,1.58,0.283,2.049,1.294c0.06,0.136,0.124,0.308,0.185,0.501
				c0.12-0.4,0.641-0.508,0.894-0.133c0.219,0.327,0.413,0.7,0.594,1.09c0.038,0.016,0.072,0.041,0.094,0.08
				c0.147,0.271,0.267,0.557,0.374,0.85c0.501,0.332,0.953,1.063,1.279,1.687c-0.016-0.125-0.029-0.249-0.044-0.376
				c-0.585-0.881-1.071-1.891-1.453-2.959c-0.26-0.641-0.474-1.309-0.658-1.975c-0.229-0.463-0.435-0.934-0.611-1.412
				c-1.02-1.151-1.203-3.187-0.64-4.668c-0.023-1.435,0.906-2.754,2.195-3.377c1.751-0.846,3.735-0.703,5.173,0.679
				c0.646,0.624,1.197,1.441,1.456,2.31c0.147,0.501,0.308,1.012,0.345,1.539c0.016,0.199,0.023,0.398,0.02,0.598
				c0.01,0.172,0.011,0.283,0.01,0.346c0.006,0.018,0.012,0.032,0.016,0.05c0.367,1.695-2.211,2.309-2.861,0.787
				c-0.308-0.725-0.143-1.532-0.354-2.3c-0.296,1.05-0.705,2.057-1.02,3.109c-0.01,0.027-0.022,0.049-0.031,0.076
				c0.511,2.487,2.521,5.597,3.93,6.91c0.096-0.334,0.186-0.658,0.268-0.968c0.073-0.187,0.135,0.117,1.537,1.247
				c-0.182-0.826-0.31-2.811-0.27-3.488C36.938,29.934,37.582,28.005,38.061,24.542z"/>

				<linearGradient id="SVGID_6_" gradientUnits="userSpaceOnUse" x1="7.5635" y1="42.8613" x2="43.9975" y2="21.8262" gradientTransform="matrix(0.9915 0.1303 -0.1303 0.9915 2.3601 -6.0378)">
				<stop  offset="0.1034" style="stop-color:#375879"/>
				<stop  offset="0.4975" style="stop-color:#7298AC"/>
			</linearGradient>
			<path fill="url(#SVGID_6_)" d="M16.131,36.174c0.071,0.034,0.14,0.072,0.21,0.109c-0.099-0.211-0.198-0.424-0.294-0.642
				c-1.565-1.139-3.163-2.539-4.475-4.127c-0.348-0.153-0.695-0.312-1.041-0.507c1.585,1.877,3.522,3.561,5.492,4.961
				C16.102,36.023,16.133,36.1,16.131,36.174z"/>

				<linearGradient id="SVGID_7_" gradientUnits="userSpaceOnUse" x1="5.3945" y1="39.1084" x2="41.8387" y2="18.0674" gradientTransform="matrix(0.9915 0.1303 -0.1303 0.9915 2.3601 -6.0378)">
				<stop  offset="0.1034" style="stop-color:#375879"/>
				<stop  offset="0.4975" style="stop-color:#7298AC"/>
			</linearGradient>
			<path fill="url(#SVGID_7_)" d="M7.843,32.372c0.73,1.033,1.513,2.095,2.377,3.077c0.236,0.156,0.476,0.303,0.716,0.445
				c-0.571-0.833-1.034-1.743-1.347-2.665c-2.139-1.807-3.844-4.163-4.676-6.649c0.101,1.256,0.165,2.525,0.516,3.706
				c0.711,1.38,1.627,2.521,2.658,3.487c-0.174-0.427-0.334-0.859-0.465-1.311C7.583,32.326,7.768,32.267,7.843,32.372z"/>

				<linearGradient id="SVGID_8_" gradientUnits="userSpaceOnUse" x1="8.5952" y1="44.6494" x2="45.0324" y2="23.6124" gradientTransform="matrix(0.9915 0.1303 -0.1303 0.9915 2.3601 -6.0378)">
				<stop  offset="0.1034" style="stop-color:#375879"/>
				<stop  offset="0.4975" style="stop-color:#7298AC"/>
			</linearGradient>
			<path fill="url(#SVGID_8_)" d="M21.216,32.905c-0.098-0.048-0.156-0.067-0.194-0.075c-0.163,0.209-0.297,0.424-0.499,0.606
				c-0.479,0.433-1.172,0.468-1.64,0c-0.483-0.483-0.541-1.038-0.361-1.556c-1.078,0.298-2.168,0.469-3.263,0.449
				c0.306,0.225,0.609,0.439,0.908,0.648c0.069,0.025,0.136,0.057,0.193,0.107c0.028,0.025,0.05,0.055,0.076,0.081
				c0.036,0.025,0.074,0.052,0.109,0.077c1.269,0.861,2.931,2.204,4.547,2.257c0.529-0.505,0.86-1.112,1.074-1.802
				C21.91,33.371,21.594,33.094,21.216,32.905z"/>
		</g>
	</g>
</g>
<g id="Layer_5" display="none">
</g>
</svg>
