<?xml version="1.0" encoding="utf-8"?>
<!-- Generator: Adobe Illustrator 16.0.0, SVG Export Plug-In . SVG Version: 6.00 Build 0)  -->
<!DOCTYPE svg PUBLIC "-//W3C//DTD SVG 1.1//EN" "http://www.w3.org/Graphics/SVG/1.1/DTD/svg11.dtd">
<svg version="1.1" xmlns="http://www.w3.org/2000/svg" xmlns:xlink="http://www.w3.org/1999/xlink" x="0px" y="0px" width="191px"
	 height="60px" viewBox="0 0 191 60" enable-background="new 0 0 191 60" xml:space="preserve">
<g id="Layer_1">
	<g id="Layer_1_2_" display="none">
		<g id="Layer_2" display="inline">

				<linearGradient id="SVGID_1_" gradientUnits="userSpaceOnUse" x1="577.415" y1="762.6895" x2="604.3613" y2="762.6895" gradientTransform="matrix(1 0 0 1 -556 -735)">
				<stop  offset="0" style="stop-color:#FFFFFF"/>
				<stop  offset="1" style="stop-color:#FABE6A"/>
			</linearGradient>
			<path fill="url(#SVGID_1_)" d="M45.045,13.292c0,0-3.164-1.775-5.772-2.294c-2.608-0.518-7.592,1.444-7.592,1.444l-6.897,3.903
				c0,0-2.299,7.539-2.299,8.02c0,0.48-1.07,8.875-1.07,8.875l0.104,2.16l1.179,1.422l0.962,1.337l2.192,2.245l2.954,1.394
				l1.912,1.548l2.512,0.803l3.369,0.32l5.025-2.354l2.193-3.582l2.031-5.399l2.513-1.925v-2.192l-2.567,0.374L42.106,30.3
				l-1.817-0.748l-1.712-0.589l-0.962-1.551l-0.95-0.32l-1.135,2.566l-1.283,2.031l-5.187-1.391l-2.353-4.224l1.069-6.096
				l6.202-5.506l3.155-1.069l3.635-0.588l3.742,0.855L45.045,13.292"/>
		</g>
		<g id="Layer_3" display="inline">
			<path fill="#0D334C" d="M27.376,21.184l7.512-7.538l4.116-0.882l2.808,0.16l3.448,1.604c0,0,4.411,4.09,4.812,4.171
				c0.401,0.08,1.204,4.141,1.204,4.141l1.362,5.242c0,0-1.042,5.936-1.203,6.336c-0.16,0.4-4.651,6.415-4.651,6.415l-2.888,0.642
				l0.402-3.367l2.967-5.213l1.363-2.406l-1.123-2.166l-4.33,1.765l-1.123,0.16l-1.283-0.562l-1.523-1.042L36.6,27.24l-1.711,3.434
				l-3.903-0.268l-4.812-5.293L27.376,21.184z"/>
		</g>
		<g id="Layer_4" display="inline">
			<polygon fill="#FFFFFF" points="39.406,28.321 37.723,26.718 37.723,24.713 39.807,24.713 41.298,26.518 40.449,28.321 			"/>
			<polygon fill="#FFFFFF" points="43.816,28.321 42.453,27.118 42.453,24.713 44.619,23.911 47.186,23.911 47.586,26.518
				45.982,28.321 			"/>
		</g>
		<g id="Layer_1_1_" display="inline">
			<polygon fill="#377254" points="41.303,15.49 41.298,15.49 41.299,15.49 			"/>

				<linearGradient id="SVGID_2_" gradientUnits="userSpaceOnUse" x1="577.9473" y1="771.2393" x2="607.3768" y2="754.2483" gradientTransform="matrix(1 0 0 1 -556 -735)">
				<stop  offset="0.1626" style="stop-color:#E84A5F"/>
				<stop  offset="1" style="stop-color:#FECE38"/>
			</linearGradient>
			<path fill="url(#SVGID_2_)" d="M50.566,17.932c-2.525-2.951-3.021-3.2-4.058-3.871c-1.034-0.671-3.401-1.635-4.7-1.985
				c-1.297-0.351-5.138-0.219-8.014,1.153s-5.109,3.168-6.015,4.292c-0.904,1.124-2.659,3.601-2.919,6.875
				c-0.263,3.299,0.379,5.664,2.088,7.09c1.224,1.021,4.188,3.535,8.085,0.82c0.877-0.567,0.818-0.715,0.818-0.715l1.59,0.409
				c-2.759,2.088-5.24,3.503-8.611,2.072c-3.372-1.431-4.972-5.283-5.03-7.508c-0.059-2.224,0.183-4.359,1.044-6.053
				c0.861-1.694,2.438-4.204,5.196-6.131c2.76-1.927,6.277-3.271,10.379-2.803c0.334-0.068,1.053-0.282,1.324-1.196
				c-1.695,0.798-3.469,0.098-5.08,0.098c-9.332,0-16.895,7.729-16.895,17.264s7.563,17.264,16.894,17.264
				s16.894-7.729,16.894-17.264C53.559,24.099,52.453,20.718,50.566,17.932z M23.41,32.669c1.752,3.328,4.788,4.808,7.648,5.722
				c3.582,0.409,5.742-1.654,6.326-2.16c0.583-0.506,1.227-0.176,0.602,0.506c-0.623,0.682-4.437,2.842-6.851,2.434
				c-7.005-1.714-8.25-7.24-8.25-7.24S23.08,32.221,23.41,32.669z M22.282,35.742c0,0,0.274,0.371,1.479,1.48
				c2.828,3.172,5.839,4.086,9.712,4.301c5.625-0.353,4.925-2.666,6.677-3.133c0.136,1.809-3.192,4.104-6.269,4.61
				C27.907,43.743,22.282,35.742,22.282,35.742z M42.173,39.85c-1.167,2.123-3.23,4.418-8.933,3.951
				c4.066-0.603,5.049-0.621,7.488-4.379c1.135-2.958,1.076-3.99,1.057-4.633c-0.02-0.643-0.311-2.199-1.578-3.348
				c-0.973-0.564-1.342-0.352-1.67-0.312c-0.332,0.039-1.932,0.058-2.357-1.537c0.486-1.402,0.486-1.267,0.486-1.267
				s-0.895,2.434,2.201,2.434c1.012,0.076,1.508,0,2.037,0.836c0.531,0.838,1.31,3.445,1.27,4.146
				c0.683-1.497,0.856-1.615,0.936-1.653C43.4,36.229,43.34,37.729,42.173,39.85z M44.318,32.878c0,0,0.131-0.687-0.496-1.081
				c0,0-0.351,0.453-1.195,1.957c-0.043-0.089-0.072-0.133-0.308-0.425c-0.233-0.291-1.213-2.116-1.591-2.466
				c-0.381-0.352-1.344-0.468-2.307-0.482c-1.021-0.379-1.109-1.591-1.241-2.637c0.033,0.106,0.093,0.199,0.164,0.294
				c0.182,0.553,0.472,1.207,0.751,1.701c0.455,0.802,1.631,0.32,1.925,0.4c0.294,0.08,0.535-0.188,1.551,0.828
				c1.123,0.588,1.255-0.128,1.255-0.128c0.033,0.013,0.066,0.024,0.105,0.038c0.862-0.569,1.635-0.512,2.059-0.468
				c1.357,0.176,1.563-0.231,1.795-0.292c0.234-0.058,0.892-0.598,1.256,0.161c-0.072-0.029-0.364-0.24-0.73,1.248
				c0,0-0.369-0.627-0.798,0.285c-0.435-0.188-0.28-0.816-0.778,0.6C45.429,31.826,45.604,31.564,44.318,32.878z M39.03,26.742
				c0.489,0.271,0.801,0.186,1.079,0.106c0.085,0.255,0.078,0.292,0.078,0.292c-0.758,0.416-1.506-0.104-1.674-0.331
				c-0.273-0.258-0.392-1.146-0.12-1.852l0.395,0.276C38.729,25.6,38.436,26.314,39.03,26.742z M39.4,26.395
				c0.16,0.124,0.408,0.124,0.444,0.124c0.036,0,0.292,0.132-0.08,0.198c-0.335,0.044-0.532-0.066-0.681-0.279
				c-0.146-0.21-0.093-0.486,0.089-0.801L39.4,25.87C39.4,25.87,39.123,26.228,39.4,26.395z M41.438,28.375
				c0.107-1.39,0.535-0.989,0.643-0.695c0.106,0.294,0.133,1.631,0,1.792c-0.134,0.16-0.401,0.48-0.401,0.48
				S41.331,29.766,41.438,28.375z M45.19,25.476c0,0,0-0.059,0.515-0.312c0.127,0.254,0.225,0.429,0.234,0.964
				c0.01,0.534-0.49,1.049-1.188,1.051c-1.042,0.004-1.313-0.836-1.313-0.836l0.399-0.263c0.049,0.155,0.228,0.552,0.402,0.659
				c0.175,0.106,0.486,0.118,0.788-0.008c0.301-0.126,0.436-0.537,0.416-0.752C45.423,25.766,45.355,25.759,45.19,25.476z
				 M44.518,27.521c1.027,0,1.578-0.671,1.715-1.129c0.136-0.457,0.067-1.054-0.304-1.44c0.36-0.195,0.312-0.165,0.322-0.156
				c0.467,0.856,0.534,2.473-0.536,2.997c-0.914,0.341-1.266,0.341-2.48-0.788c-0.155-0.252-0.243-0.379-0.243-0.379l0.203-0.146
				C43.194,26.479,43.894,27.521,44.518,27.521z M48.207,38.254c-0.728,0.82-3.27,2.627-3.27,2.627s0.467-0.525,1.012-1.206
				c1.615-1.558,2.258-4.771,2.55-7.085c0.038-0.156,0.117,0.079,1.361,0.837c-0.231-0.643-0.544-2.22-0.582-2.765
				c-0.04-0.546,0.271-2.16,0.291-4.983c0.02-2.821-1.596-4.729-2.491-5.761c0.155,0.35,0.136,0.312-0.02,1.362
				c-0.623-0.74-2.92-1.44-4.633-1.382c-2.921,0.098-3.582,1.576-3.756,1.42c-0.175-0.155-0.195-0.232-0.272-2.141
				c-2.608,2.395-2.374,7.727-2.569,8.564c-0.193,0.838-0.7,0.991-0.914,1.323c-0.838-0.332-3.406-0.622-4.886-1.652
				c-1.44-1.286-0.739-3.136-0.02-3.676c0.312-0.199,1.46-0.627,2.16,1.047c0.194-1.363-0.993-2.92-2.997-2.258
				c-1.518-2.278,2.851-5.165,4.828-6.06c3.643-1.649,6.87-0.981,7.298-0.977c-2.805-0.642-5.101-0.851-8.292,0.454
				c0.701-0.428,2.057-1.383,3.445-1.71c2.022-0.478,5.274-0.456,7.318,0.518c2.045,0.973,4.106,2.059,6.015,4.803
				c1.436,2.066,1.946,4.854,2.062,6.45c0.119,1.596-0.213,3.827-0.603,5.989C50.854,34.152,49.045,37.307,48.207,38.254z"/>
		</g>
	</g>
	<g id="Layer_2_1_">
		<g>
			<path fill="#706072" d="M18.506,22.252v3.994h-7.523v4.008h5.643v3.994h-5.643v3.994h7.523v4.008h-7.523H7.209V22.252H18.506z"/>
			<path fill="#706072" d="M23.632,22.252l3.201,5.955l3.201-5.955h4.334l-5.374,9.986l5.374,10.012h-4.334l-3.201-5.967
				l-3.201,5.967l-4.323-0.014l5.351-9.998l-5.351-9.986H23.632z"/>
			<path fill="#706072" d="M49.333,25.13c1.869,1.985,2.804,4.367,2.804,7.147c0,2.779-0.935,5.16-2.804,7.133
				c-1.869,1.973-4.112,2.965-6.73,2.965c-2.616,0-4.86-0.992-6.718-2.965c-1.857-1.973-2.791-4.354-2.791-7.133
				c0-2.78,0.934-5.162,2.791-7.147c1.858-1.985,4.102-2.977,6.718-2.977C45.219,22.153,47.463,23.146,49.333,25.13z M38.571,27.972
				c-1.11,1.19-1.67,2.618-1.67,4.278c0,1.674,0.56,3.104,1.67,4.279c1.11,1.18,2.454,1.773,4.03,1.773
				c1.565,0,2.91-0.594,4.031-1.773c1.122-1.178,1.683-2.605,1.683-4.279c0-1.66-0.561-3.087-1.683-4.278
				c-1.121-1.191-2.465-1.787-4.031-1.787C41.025,26.185,39.681,26.78,38.571,27.972z"/>
			<path fill="#706072" d="M62.085,22.191c1.308,0,2.535,0.26,3.691,0.793c1.157,0.533,2.173,1.253,3.049,2.159l-2.687,2.854
				c-1.133-1.191-2.477-1.786-4.031-1.786c-1.578,0-2.92,0.595-4.031,1.786c-1.11,1.189-1.671,2.616-1.671,4.28
				c0,1.676,0.561,3.102,1.671,4.277c1.11,1.18,2.453,1.773,4.031,1.773c1.239,0,2.349-0.369,3.318-1.129
				c0.97-0.756,1.659-1.723,2.056-2.902h-5.387v-4.03h5.387h2.208h1.729c0.129,0.633,0.187,1.303,0.187,2.008
				c0,2.779-0.935,5.16-2.804,7.133s-4.113,2.965-6.73,2.965s-4.86-0.992-6.718-2.965c-1.857-1.973-2.792-4.354-2.792-7.133
				c0-2.779,0.934-5.161,2.792-7.146c1.858-1.985,4.101-2.977,6.718-2.977L62.085,22.191z"/>
			<path fill="#706072" d="M83.799,22.252v3.994h-7.524v4.008h5.643v3.994h-5.643v3.994h7.524v4.008h-7.524h-3.774V22.252H83.799z"
				/>
			<path fill="#706072" d="M96.366,33.307V22.252h3.774v20.369L88.843,31.186V42.25h-3.774V21.88L96.366,33.307z"/>
			<path fill="#706072" d="M101.527,22.252h3.773V42.25h-3.773V22.252z"/>
			<path fill="#706072" d="M112.275,38.279c1.04,0,1.904-0.918,1.904-2.021c0-0.857-0.315-1.4-0.959-1.648
				c-1.355-0.533-1.028-0.41-2.349-0.895c-1.389-0.508-2.675-1.514-3.54-2.766c-0.514-0.745-0.771-1.663-0.771-2.767
				c0-1.663,0.561-3.089,1.683-4.281c1.122-1.19,2.465-1.785,4.042-1.785c1.565,0,2.91,0.594,4.031,1.785
				c1.122,1.191,1.683,2.618,1.683,4.281h-3.797c0-1.091-0.863-2.01-1.893-2.01c-1.04,0-1.904,0.919-1.904,2.022
				c0,0.72,0.27,1.266,0.818,1.638c1.121,0.771,0.992,0.621,2.335,1.042c1.448,0.447,2.758,1.402,3.657,2.629
				c0.525,0.721,0.795,1.648,0.795,2.779c0,1.676-0.562,3.1-1.684,4.291c-1.121,1.191-2.465,1.785-4.031,1.785
				c-1.576,0-2.92-0.594-4.041-1.785c-1.123-1.191-1.683-2.615-1.683-4.291h3.808c0,1.115,0.854,2.02,1.905,2.02L112.275,38.279z"/>
			<path fill="#706072" d="M127.508,22.252h4.709v3.994h-4.709V42.25h-3.773V26.247h-4.709v-3.994h4.709H127.508z"/>
		</g>
	</g>
</g>
<g id="Layer_3_3_" display="none">
	<g id="Layer_3_2_" display="inline">
		<g id="Layer_2_2_">
			<path fill="#FFFFFF" d="M173.84,8.932c0,0-4.725-2.652-8.621-3.428c-3.896-0.773-11.338,2.157-11.338,2.157l-10.302,5.83
				c0,0-3.435,11.261-3.435,11.979c0,0.718-1.598,13.255-1.598,13.255l0.155,3.229l1.761,2.123l1.438,1.994l3.273,3.355l4.414,2.082
				l2.854,2.311l3.753,1.195l5.03,0.48l7.51-3.514l3.271-5.35l3.037-8.064l3.752-2.877v-3.271l-3.832,0.559l-5.513,1.355
				l-2.711-1.117l-2.56-0.879l-1.438-2.315l-1.42-0.48l-1.692,3.833l-1.916,3.035l-7.746-2.076l-3.516-6.309l1.598-9.104
				l9.263-8.225l4.715-1.597l5.429-0.879l5.588,1.278L173.84,8.932"/>
		</g>
		<g id="Layer_3_1_">
			<path fill="#FFFFFF" d="M147.45,20.716l11.22-11.259l6.149-1.317l4.192,0.239l5.152,2.395c0,0,6.588,6.111,7.188,6.229
				c0.598,0.12,1.799,6.185,1.799,6.185l2.034,7.831c0,0-1.558,8.863-1.8,9.461c-0.235,0.602-6.945,9.584-6.945,9.584l-4.313,0.959
				l0.598-5.031l4.434-7.785l2.035-3.592l-1.678-3.236l-6.467,2.637l-1.68,0.236l-1.914-0.838l-2.277-1.557l-3.953-2.094
				l-2.555,5.131l-5.828-0.4l-7.188-7.908L147.45,20.716z"/>
		</g>
		<g id="Layer_4_1_">
			<polygon fill="#FFFFFF" points="165.418,31.379 162.904,28.982 162.904,25.987 166.019,25.987 168.243,28.683 166.977,31.379
				"/>
			<polygon fill="#FFFFFF" points="172.006,31.379 169.973,29.581 169.973,25.987 173.205,24.79 177.041,24.79 177.637,28.683
				175.239,31.379 			"/>
		</g>
		<g id="Layer_1_3_">
			<polygon fill="#377254" points="168.252,12.212 168.243,12.212 168.247,12.212 			"/>

				<linearGradient id="SVGID_3_" gradientUnits="userSpaceOnUse" x1="417.4971" y1="-324.5688" x2="461.4502" y2="-349.9452" gradientTransform="matrix(1 0 0 -1 -278 -307)">
				<stop  offset="0" style="stop-color:#CC94B0"/>
				<stop  offset="1" style="stop-color:#4E6384"/>
			</linearGradient>
			<path fill="url(#SVGID_3_)" d="M182.09,15.86c-3.775-4.408-4.516-4.781-6.063-5.782c-1.542-1.003-5.077-2.442-7.021-2.966
				c-1.938-0.523-7.674-0.327-11.967,1.721c-4.297,2.051-7.632,4.733-8.986,6.411c-1.35,1.68-3.971,5.379-4.36,10.27
				c-0.392,4.926,0.567,8.46,3.12,10.589c1.828,1.527,6.256,5.283,12.078,1.227c1.308-0.85,1.219-1.064,1.219-1.064l2.376,0.607
				c-4.119,3.121-7.824,5.234-12.863,3.098c-5.034-2.137-7.424-7.891-7.51-11.215c-0.09-3.32,0.274-6.509,1.56-9.041
				c1.287-2.53,3.641-6.279,7.762-9.156c4.123-2.878,9.375-4.886,15.501-4.186c0.5-0.103,1.573-0.423,1.979-1.788
				c-2.536,1.192-5.184,0.146-7.59,0.146c-13.935,0-25.233,11.544-25.233,25.787c0,14.238,11.299,25.783,25.231,25.783
				c13.938,0,25.235-11.545,25.235-25.783C186.557,25.068,184.904,20.021,182.09,15.86z M149.236,39.801
				c2.168,4.121,5.927,5.951,9.469,7.084c4.432,0.506,7.107-2.049,7.83-2.678c0.723-0.623,1.52-0.215,0.744,0.629
				c-0.771,0.846-5.492,3.518-8.479,3.012c-8.674-2.121-10.215-8.963-10.215-8.963S148.827,39.246,149.236,39.801z M147.84,43.605
				c0,0,0.338,0.459,1.832,1.834c3.5,3.926,7.228,5.059,12.021,5.322c6.965-0.434,6.098-3.301,8.266-3.877
				c0.168,2.24-3.953,5.082-7.761,5.707C154.803,53.51,147.84,43.605,147.84,43.605z M169.551,48.596
				c-1.742,3.168-4.823,6.598-13.342,5.9c6.073-0.898,7.541-0.928,11.187-6.537c1.69-4.42,1.604-5.961,1.573-6.92
				c-0.028-0.961-0.461-3.287-2.354-5c-1.455-0.846-2.008-0.527-2.495-0.465c-0.497,0.059-2.885,0.084-3.521-2.297
				c0.725-2.094,0.725-1.893,0.725-1.893s-1.338,3.635,3.287,3.635c1.514,0.113,2.253,0,3.045,1.252
				c0.792,1.248,1.953,5.143,1.896,6.189c1.018-2.236,1.277-2.41,1.396-2.469C171.385,43.188,171.293,45.428,169.551,48.596z
				 M172.758,38.182c0,0,0.194-1.021-0.744-1.613c0,0-0.521,0.68-1.783,2.926c-0.066-0.135-0.109-0.199-0.457-0.639
				c-0.352-0.434-1.813-3.16-2.377-3.682c-0.572-0.523-2.008-0.697-3.449-0.721c-1.523-0.563-1.654-2.375-1.852-3.936
				c0.049,0.156,0.139,0.297,0.244,0.438c0.271,0.824,0.703,1.803,1.121,2.539c0.68,1.199,2.438,0.48,2.875,0.604
				c0.438,0.115,0.799-0.279,2.315,1.234c1.681,0.877,1.874-0.191,1.874-0.191c0.053,0.02,0.102,0.037,0.158,0.057
				c1.287-0.85,2.443-0.762,3.074-0.697c2.028,0.26,2.334-0.346,2.683-0.438c0.351-0.086,1.33-0.895,1.878,0.242
				c-0.109-0.045-0.548-0.359-1.096,1.861c0,0-0.549-0.938-1.189,0.428c-0.648-0.281-0.42-1.221-1.162,0.895
				C174.416,36.611,174.676,36.221,172.758,38.182z M164.857,29.019c0.73,0.403,1.195,0.278,1.609,0.159
				c0.129,0.38,0.117,0.435,0.117,0.435c-1.133,0.623-2.248-0.153-2.498-0.493c-0.406-0.383-0.586-1.71-0.182-2.766l0.59,0.417
				C164.405,27.313,163.969,28.379,164.857,29.019z M165.408,28.5c0.242,0.186,0.612,0.186,0.665,0.186
				c0.054,0,0.437,0.198-0.12,0.296c-0.5,0.066-0.795-0.099-1.016-0.415c-0.217-0.315-0.139-0.729,0.133-1.197l0.338,0.348
				C165.408,27.716,164.994,28.25,165.408,28.5z M168.452,31.459c0.163-2.078,0.802-1.479,0.96-1.04c0.16,0.438,0.198,2.438,0,2.678
				c-0.199,0.238-0.601,0.719-0.601,0.719S168.295,33.535,168.452,31.459z M174.06,27.127c0,0,0-0.087,0.767-0.467
				c0.189,0.381,0.333,0.641,0.352,1.441c0.016,0.799-0.734,1.566-1.777,1.568c-1.553,0.007-1.957-1.249-1.957-1.249l0.595-0.393
				c0.071,0.235,0.339,0.826,0.599,0.986c0.266,0.16,0.729,0.178,1.18-0.011c0.449-0.189,0.652-0.804,0.62-1.123
				C174.404,27.56,174.305,27.548,174.06,27.127z M173.051,30.181c1.537,0,2.357-1.003,2.563-1.687
				c0.205-0.683,0.104-1.574-0.454-2.151c0.541-0.292,0.47-0.247,0.481-0.234c0.699,1.28,0.8,3.693-0.801,4.477
				c-1.365,0.512-1.889,0.512-3.701-1.175c-0.233-0.378-0.366-0.567-0.366-0.567l0.304-0.219
				C171.076,28.625,172.119,30.181,173.051,30.181z M178.563,46.213c-1.085,1.225-4.883,3.924-4.883,3.924s0.697-0.783,1.512-1.801
				c2.413-2.326,3.371-7.127,3.807-10.584c0.063-0.232,0.18,0.117,2.036,1.252c-0.346-0.959-0.812-3.316-0.872-4.131
				c-0.059-0.814,0.405-3.225,0.436-7.441c0.031-4.217-2.383-7.065-3.721-8.605c0.232,0.524,0.203,0.464-0.025,2.034
				c-0.934-1.103-4.364-2.152-6.922-2.064c-4.363,0.146-5.354,2.355-5.61,2.121c-0.261-0.23-0.291-0.346-0.406-3.196
				c-3.894,3.575-3.548,11.54-3.836,12.794c-0.291,1.25-1.048,1.477-1.368,1.975c-1.25-0.498-5.088-0.93-7.298-2.469
				c-2.151-1.921-1.103-4.685-0.028-5.49c0.465-0.298,2.181-0.938,3.228,1.563c0.292-2.037-1.485-4.36-4.476-3.373
				c-2.269-3.401,4.256-7.714,7.209-9.051c5.44-2.464,10.263-1.465,10.899-1.458c-4.188-0.958-7.616-1.271-12.384,0.678
				c1.048-0.641,3.07-2.066,5.146-2.556c3.021-0.713,7.877-0.681,10.932,0.773c3.054,1.454,6.131,3.075,8.979,7.173
				c2.146,3.087,2.909,7.252,3.08,9.636c0.18,2.382-0.316,5.718-0.898,8.945C182.518,40.088,179.814,44.797,178.563,46.213z"/>
		</g>
	</g>
</g>
<g id="Layer_2_3_">
	<path fill="#706072" d="M148.232,11.988c0.293,0,22.399,0,22.399,0l14.379,16.94l-23.672,11.217l-3.162-6.131
		c0,0,16.66-4.428,2.674-15.327c-9.781,6.245-15.356,14.306-15.356,14.306s-2.152,11.695,9.977,18.508
		c-12.129-7.836-25.422-2.697-14.173-36.306c13.107,0,7.521-3.206,7.521-3.206"/>
</g>
</svg>
