<?xml version="1.0" encoding="utf-8"?>
<!-- Generator: Adobe Illustrator 16.0.0, SVG Export Plug-In . SVG Version: 6.00 Build 0)  -->
<!DOCTYPE svg PUBLIC "-//W3C//DTD SVG 1.1//EN" "http://www.w3.org/Graphics/SVG/1.1/DTD/svg11.dtd">
<svg version="1.1" id="Layer_2" xmlns="http://www.w3.org/2000/svg" xmlns:xlink="http://www.w3.org/1999/xlink" x="0px" y="0px"
	 width="598px" height="228px" viewBox="0 0 598 228" enable-background="new 0 0 598 228" xml:space="preserve">
<g>
	<path fill="#FFFDFD" d="M44.429,127.798v10.313h-9.93V86.454h57.003c1.655,0,2.483,0.859,2.483,2.578v12.986h-9.931v-5.156H44.429
		v20.625h27.213l5.92-5.156H89.02l-17.378,15.468H44.429z"/>
	<path fill="#FFFDFD" d="M132.559,96.861l-14.8,10.313l-14.896,0.095l29.695-20.815h29.791v20.625h-9.931V96.861H132.559z
		 M147.454,138.11l-14.896-10.313h-19.765v10.313h-9.93v-20.624h29.695l29.791,20.624H147.454z"/>
	<path fill="#FFFDFD" d="M173.711,138.11c-1.656,0-2.482-0.859-2.482-2.578v-46.5c0-1.719,0.827-2.578,2.482-2.578h54.521
		c1.655,0,2.483,0.859,2.483,2.578v46.5c0,1.719-0.828,2.578-2.483,2.578H173.711z M181.159,127.798h39.625V96.861h-39.625V127.798z
		"/>
	<path fill="#FFFDFD" d="M289.149,86.454h9.931v49.079c0,1.719-0.828,2.578-2.483,2.578h-54.521c-1.656,0-2.482-0.859-2.482-2.578
		v-18.046h9.93v10.312h39.625V96.861V86.454z"/>
	<path fill="#FFFDFD" d="M367.444,135.532c0,1.719-0.828,2.578-2.482,2.578H310.44c-1.656,0-2.482-0.859-2.482-2.578v-46.5
		c0-1.719,0.826-2.578,2.482-2.578h54.521c1.654,0,2.482,0.859,2.482,2.578v18.142h-9.931V96.861h-39.625v10.313h19.765v10.313
		h-19.765v10.312h39.625v-10.312h9.931V135.532z"/>
	<path fill="#FFFDFD" d="M376.323,135.532v-46.5c0-1.719,0.826-2.578,2.482-2.578h57.004v10.408h-49.556v30.937h49.556v10.313
		h-57.004C377.149,138.11,376.323,137.251,376.323,135.532z"/>
	<path fill="#FFFDFD" d="M464.453,86.454l-9.834,25.876h-9.931l9.931-25.876H464.453z M464.453,86.454h9.931v51.657h-9.931V86.454z
		 M494.244,112.33h-9.93l-9.931-25.876h9.931L494.244,112.33z"/>
	<path fill="#FFFDFD" d="M530.909,96.861l-14.8,10.313h-14.896l29.695-20.72H560.7v10.408h-9.931H530.909z M530.909,138.11h-29.695
		v-10.313h29.695l14.896-10.312H560.7L530.909,138.11z M526.422,107.078h9.93v10.313h-9.93V107.078z"/>
</g>
</svg>
