<?xml version="1.0" encoding="utf-8"?>
<!-- Generator: Adobe Illustrator 16.0.0, SVG Export Plug-In . SVG Version: 6.00 Build 0)  -->
<!DOCTYPE svg PUBLIC "-//W3C//DTD SVG 1.1//EN" "http://www.w3.org/Graphics/SVG/1.1/DTD/svg11.dtd">
<svg version="1.1" xmlns="http://www.w3.org/2000/svg" xmlns:xlink="http://www.w3.org/1999/xlink" x="0px" y="0px" width="56px"
	 height="56px" viewBox="0 0 56 56" enable-background="new 0 0 56 56" xml:space="preserve">
<g id="Layer_1" display="none">
	<circle display="inline" fill="#A67BBF" cx="28.083" cy="28.083" r="24.083"/>
	<path display="inline" fill="#785F8E" d="M26.853,52.134l12.641-12.642l-7.338-7.598L16.18,17.188L4.034,29.336
		c0.297,5.738,2.636,11.393,7.021,15.776C15.444,49.502,21.106,51.842,26.853,52.134z"/>
	<circle display="inline" fill="#A67BBF" cx="28.083" cy="28.082" r="16.136"/>
	<path display="inline" fill="#8B6EA0" d="M16.673,39.492c3.15,3.152,7.28,4.727,11.41,4.727V11.946
		c-4.129,0-8.26,1.576-11.41,4.726C10.371,22.974,10.371,33.191,16.673,39.492z"/>
	<circle display="inline" fill="#E6F3FF" cx="28.083" cy="28.082" r="12.551"/>
	<path display="inline" fill="#CFDBE6" d="M19.209,36.958c2.451,2.45,5.663,3.675,8.874,3.675V15.532
		c-3.211,0-6.423,1.226-8.874,3.676C14.307,24.108,14.307,32.056,19.209,36.958z"/>
	<path display="inline" fill="#324A5E" d="M31.622,33.15l-4.15-4.149c-0.183-0.183-0.285-0.43-0.285-0.688v-8.299
		c0-0.538,0.437-0.973,0.974-0.973c0.536,0,0.974,0.435,0.974,0.973v7.895l3.862,3.865c0.381,0.38,0.381,0.996,0,1.376
		c-0.189,0.191-0.438,0.284-0.687,0.284C32.061,33.435,31.812,33.341,31.622,33.15z"/>
	<path display="inline" fill="#2B3B4E" d="M27.187,20.015v8.299c0,0.258,0.103,0.505,0.285,0.688l0.611,0.61V19.045
		C27.582,19.085,27.187,19.503,27.187,20.015z"/>
</g>
<g id="Layer_2" display="none">
	<g display="inline">
		<path fill="none" stroke="#F47B19" stroke-width="4" stroke-miterlimit="10" d="M9.946,12.165
			c1.183,5.919,2.071,19.533,17.018,16.131c14.946-3.404,19.091,15.538,19.091,15.538"/>
		<path fill="none" stroke="#F47B19" stroke-width="4" stroke-miterlimit="10" d="M43.657,9.791
			c-5.906,1.241-19.512,2.263-15.963,17.175c3.55,14.913-15.352,19.241-15.352,19.241"/>
		<path fill="none" stroke="#F47B19" stroke-width="4" stroke-miterlimit="10" d="M26.239,4.153
			c-3.078,5.192-11.523,15.908,1.865,23.373c13.388,7.466,3.799,24.322,3.799,24.322"/>
		<path fill="none" stroke="#F47B19" stroke-width="4" stroke-miterlimit="10" d="M51.971,27.652
			c-5.004-3.377-15.209-12.432-23.441,0.499c-8.233,12.929-24.5,2.376-24.5,2.376"/>
	</g>
</g>
<g id="Layer_3">
	<g>
		<path fill="#BFE8E6" d="M52.366,33.441c0.127-0.618,0.217-1.244,0.217-1.884c0-7.901-10.018-14.308-22.375-14.308
			S7.833,23.656,7.833,31.558s10.018,14.308,22.375,14.308c5.563,0,10.641-1.305,14.555-3.453c1.635,0.789,3.174,2.037,2.951,3.877
			C49.628,42.719,52.495,36.891,52.366,33.441z"/>
	</g>
	<g>
		<path fill="#95BAB7" d="M3.581,45.076c-0.098-0.475-0.166-0.955-0.166-1.447c0-6.07,7.696-10.992,17.189-10.992
			c9.494,0,17.189,4.922,17.189,10.992s-7.695,10.992-17.189,10.992c-4.273,0-8.174-1.002-11.181-2.652
			c-1.257,0.605-2.439,1.563-2.268,2.977C5.686,52.201,3.483,47.725,3.581,45.076z"/>
	</g>
	<circle fill="#FFFFFF" cx="10.906" cy="44.713" r="1.729"/>
	<circle fill="#FFFFFF" cx="20.417" cy="44.459" r="1.821"/>
	<circle fill="#FFFFFF" cx="30.994" cy="44.637" r="1.651"/>
</g>
</svg>
