<?xml version="1.0" encoding="utf-8"?>
<!-- Generator: Adobe Illustrator 16.0.0, SVG Export Plug-In . SVG Version: 6.00 Build 0)  -->
<!DOCTYPE svg PUBLIC "-//W3C//DTD SVG 1.1//EN" "http://www.w3.org/Graphics/SVG/1.1/DTD/svg11.dtd">
<svg version="1.1" id="Layer_1" xmlns="http://www.w3.org/2000/svg" xmlns:xlink="http://www.w3.org/1999/xlink" x="0px" y="0px"
	 width="56px" height="56px" viewBox="0 0 56 56" enable-background="new 0 0 56 56" xml:space="preserve">
<circle fill="#A67BBF" cx="28.083" cy="28.083" r="24.083"/>
<path fill="#785F8E" d="M26.853,52.134l12.641-12.642l-7.338-7.598L16.18,17.188L4.034,29.336
	c0.297,5.738,2.636,11.393,7.021,15.776C15.444,49.502,21.106,51.842,26.853,52.134z"/>
<circle fill="#A67BBF" cx="28.083" cy="28.082" r="16.136"/>
<path fill="#8B6EA0" d="M16.673,39.492c3.15,3.152,7.28,4.727,11.41,4.727V11.946c-4.129,0-8.26,1.576-11.41,4.726
	C10.371,22.974,10.371,33.191,16.673,39.492z"/>
<circle fill="#E6F3FF" cx="28.083" cy="28.082" r="12.551"/>
<path fill="#CFDBE6" d="M19.209,36.958c2.451,2.45,5.663,3.675,8.874,3.675V15.532c-3.211,0-6.423,1.226-8.874,3.676
	C14.307,24.108,14.307,32.056,19.209,36.958z"/>
<path fill="#324A5E" d="M31.622,33.15l-4.15-4.149c-0.183-0.183-0.285-0.43-0.285-0.688v-8.299c0-0.538,0.437-0.973,0.974-0.973
	c0.536,0,0.974,0.435,0.974,0.973v7.895l3.862,3.865c0.381,0.38,0.381,0.996,0,1.376c-0.189,0.191-0.438,0.284-0.687,0.284
	C32.061,33.435,31.812,33.341,31.622,33.15z"/>
<path fill="#2B3B4E" d="M27.187,20.015v8.299c0,0.258,0.103,0.505,0.285,0.688l0.611,0.61V19.045
	C27.582,19.085,27.187,19.503,27.187,20.015z"/>
</svg>
