<?xml version="1.0" encoding="utf-8"?>
<!-- Generator: Adobe Illustrator 16.0.0, SVG Export Plug-In . SVG Version: 6.00 Build 0)  -->
<!DOCTYPE svg PUBLIC "-//W3C//DTD SVG 1.1//EN" "http://www.w3.org/Graphics/SVG/1.1/DTD/svg11.dtd">
<svg version="1.1" xmlns="http://www.w3.org/2000/svg" xmlns:xlink="http://www.w3.org/1999/xlink" x="0px" y="0px" width="191px"
	 height="60px" viewBox="-135 -4 191 60" enable-background="new -135 -4 191 60" xml:space="preserve">
<g id="Layer_1" display="none">
	<g id="Layer_2" display="inline">

			<linearGradient id="SVGID_1_" gradientUnits="userSpaceOnUse" x1="299.4141" y1="-338.6904" x2="326.3623" y2="-338.6904" gradientTransform="matrix(1 0 0 -1 -278 -311)">
			<stop  offset="0" style="stop-color:#FFFFFF"/>
			<stop  offset="1" style="stop-color:#FABE6A"/>
		</linearGradient>
		<path fill="url(#SVGID_1_)" d="M45.045,13.292c0,0-3.164-1.775-5.772-2.294c-2.608-0.518-7.592,1.444-7.592,1.444l-6.897,3.903
			c0,0-2.299,7.539-2.299,8.02c0,0.48-1.07,8.875-1.07,8.875l0.104,2.16l1.179,1.422l0.962,1.337l2.192,2.246l2.954,1.393
			l1.912,1.548l2.512,0.802l3.369,0.321l5.025-2.354l2.193-3.582l2.031-5.399l2.513-1.925v-2.192l-2.567,0.374L42.106,30.3
			l-1.817-0.748l-1.712-0.589l-0.962-1.551l-0.95-0.32l-1.135,2.566l-1.283,2.031l-5.187-1.39l-2.353-4.224l1.069-6.096l6.202-5.506
			l3.155-1.069l3.635-0.588l3.742,0.855L45.045,13.292"/>
	</g>
	<g id="Layer_3" display="inline">
		<path fill="#0D334C" d="M27.376,21.184l7.512-7.538l4.116-0.882l2.808,0.16l3.448,1.604c0,0,4.411,4.09,4.812,4.171
			c0.401,0.08,1.204,4.141,1.204,4.141l1.362,5.242c0,0-1.042,5.935-1.203,6.336c-0.16,0.4-4.651,6.415-4.651,6.415l-2.888,0.642
			l0.402-3.368l2.967-5.213l1.363-2.405l-1.123-2.166l-4.33,1.765l-1.123,0.16l-1.283-0.562l-1.523-1.042L36.6,27.24l-1.711,3.434
			l-3.903-0.268l-4.812-5.293L27.376,21.184z"/>
	</g>
	<g id="Layer_4" display="inline">
		<polygon fill="#FFFFFF" points="39.406,28.321 37.723,26.718 37.723,24.713 39.807,24.713 41.298,26.518 40.449,28.321 		"/>
		<polygon fill="#FFFFFF" points="43.816,28.321 42.453,27.118 42.453,24.713 44.619,23.911 47.186,23.911 47.586,26.518
			45.982,28.321 		"/>
	</g>
	<g id="Layer_1_1_" display="inline">
		<polygon fill="#377254" points="41.303,15.49 41.298,15.49 41.299,15.49 		"/>

			<linearGradient id="SVGID_2_" gradientUnits="userSpaceOnUse" x1="299.9521" y1="-347.2388" x2="329.3793" y2="-330.2491" gradientTransform="matrix(1 0 0 -1 -278 -311)">
			<stop  offset="0.1626" style="stop-color:#E84A5F"/>
			<stop  offset="1" style="stop-color:#FECE38"/>
		</linearGradient>
		<path fill="url(#SVGID_2_)" d="M50.566,17.932c-2.525-2.951-3.021-3.2-4.058-3.871c-1.034-0.671-3.401-1.635-4.7-1.985
			c-1.297-0.351-5.138-0.219-8.014,1.153c-2.876,1.372-5.109,3.168-6.015,4.292c-0.904,1.124-2.659,3.601-2.919,6.875
			c-0.263,3.299,0.379,5.664,2.088,7.09c1.224,1.022,4.188,3.536,8.085,0.821c0.877-0.568,0.818-0.715,0.818-0.715l1.59,0.409
			c-2.759,2.088-5.24,3.503-8.611,2.072c-3.372-1.43-4.972-5.283-5.03-7.508c-0.059-2.224,0.183-4.359,1.044-6.053
			s2.438-4.204,5.196-6.131c2.76-1.927,6.277-3.271,10.379-2.803c0.334-0.068,1.053-0.282,1.324-1.196
			c-1.695,0.798-3.469,0.098-5.08,0.098c-9.332,0-16.895,7.729-16.895,17.264c0,9.535,7.563,17.264,16.894,17.264
			c9.331,0,16.894-7.729,16.894-17.264C53.559,24.099,52.453,20.718,50.566,17.932z M23.41,32.669
			c1.752,3.328,4.788,4.807,7.648,5.722c3.582,0.409,5.742-1.655,6.326-2.161c0.583-0.505,1.227-0.175,0.602,0.506
			c-0.623,0.682-4.437,2.842-6.851,2.434c-7.005-1.714-8.25-7.24-8.25-7.24S23.08,32.22,23.41,32.669z M22.282,35.742
			c0,0,0.274,0.371,1.479,1.48c2.828,3.173,5.839,4.087,9.712,4.301c5.625-0.352,4.925-2.666,6.677-3.133
			c0.136,1.809-3.192,4.105-6.269,4.611C27.907,43.743,22.282,35.742,22.282,35.742z M42.173,39.85
			c-1.167,2.122-3.23,4.418-8.933,3.951c4.066-0.603,5.049-0.622,7.488-4.379c1.135-2.958,1.076-3.99,1.057-4.633
			c-0.02-0.642-0.311-2.199-1.578-3.347c-0.973-0.565-1.342-0.352-1.67-0.312c-0.332,0.039-1.932,0.058-2.357-1.537
			c0.486-1.402,0.486-1.267,0.486-1.267s-0.895,2.434,2.201,2.434c1.012,0.076,1.508,0,2.037,0.836
			c0.531,0.838,1.31,3.445,1.27,4.146c0.683-1.497,0.856-1.615,0.936-1.653C43.4,36.229,43.34,37.728,42.173,39.85z M44.318,32.878
			c0,0,0.131-0.687-0.496-1.081c0,0-0.351,0.453-1.195,1.957c-0.043-0.089-0.072-0.133-0.308-0.425
			c-0.233-0.291-1.213-2.116-1.591-2.466c-0.381-0.351-1.344-0.468-2.307-0.482c-1.021-0.379-1.109-1.591-1.241-2.637
			c0.033,0.106,0.093,0.199,0.164,0.294c0.182,0.553,0.472,1.207,0.751,1.701c0.455,0.802,1.631,0.32,1.925,0.4
			s0.535-0.188,1.551,0.828c1.123,0.588,1.255-0.128,1.255-0.128c0.033,0.013,0.066,0.024,0.105,0.038
			c0.862-0.569,1.635-0.512,2.059-0.468c1.357,0.176,1.563-0.231,1.795-0.292c0.234-0.058,0.892-0.598,1.256,0.161
			c-0.072-0.029-0.364-0.24-0.73,1.248c0,0-0.369-0.628-0.798,0.285c-0.435-0.188-0.28-0.817-0.778,0.599
			C45.429,31.826,45.604,31.564,44.318,32.878z M39.03,26.742c0.489,0.271,0.801,0.186,1.079,0.106
			c0.085,0.255,0.078,0.292,0.078,0.292c-0.758,0.416-1.506-0.104-1.674-0.331c-0.273-0.258-0.392-1.146-0.12-1.852l0.395,0.276
			C38.729,25.6,38.436,26.314,39.03,26.742z M39.4,26.395c0.16,0.124,0.408,0.124,0.444,0.124s0.292,0.132-0.08,0.198
			c-0.335,0.044-0.532-0.066-0.681-0.279c-0.146-0.21-0.093-0.486,0.089-0.801L39.4,25.87C39.4,25.87,39.123,26.228,39.4,26.395z
			 M41.438,28.375c0.107-1.39,0.535-0.989,0.643-0.695c0.106,0.294,0.133,1.631,0,1.792c-0.134,0.16-0.401,0.48-0.401,0.48
			S41.331,29.766,41.438,28.375z M45.19,25.476c0,0,0-0.059,0.515-0.312c0.127,0.254,0.225,0.429,0.234,0.964
			c0.01,0.534-0.49,1.049-1.188,1.051c-1.042,0.004-1.313-0.836-1.313-0.836l0.399-0.263c0.049,0.155,0.228,0.552,0.402,0.659
			c0.175,0.106,0.486,0.118,0.788-0.008c0.301-0.126,0.436-0.537,0.416-0.752C45.423,25.766,45.355,25.759,45.19,25.476z
			 M44.518,27.521c1.027,0,1.578-0.671,1.715-1.129c0.136-0.457,0.067-1.054-0.304-1.44c0.36-0.195,0.312-0.165,0.322-0.156
			c0.467,0.856,0.534,2.473-0.536,2.997c-0.914,0.341-1.266,0.341-2.48-0.788c-0.155-0.252-0.243-0.379-0.243-0.379l0.203-0.146
			C43.194,26.479,43.894,27.521,44.518,27.521z M48.207,38.254c-0.728,0.82-3.27,2.627-3.27,2.627s0.467-0.525,1.012-1.206
			c1.615-1.558,2.258-4.771,2.55-7.085c0.038-0.156,0.117,0.079,1.361,0.837c-0.231-0.643-0.544-2.22-0.582-2.765
			c-0.04-0.546,0.271-2.16,0.291-4.983c0.02-2.821-1.596-4.729-2.491-5.761c0.155,0.35,0.136,0.312-0.02,1.362
			c-0.623-0.74-2.92-1.44-4.633-1.382c-2.921,0.098-3.582,1.576-3.756,1.42c-0.175-0.155-0.195-0.232-0.272-2.141
			c-2.608,2.395-2.374,7.727-2.569,8.564c-0.193,0.838-0.7,0.991-0.914,1.323c-0.838-0.332-3.406-0.622-4.886-1.652
			c-1.44-1.286-0.739-3.136-0.02-3.676c0.312-0.199,1.46-0.627,2.16,1.047c0.194-1.363-0.993-2.92-2.997-2.258
			c-1.518-2.278,2.851-5.165,4.828-6.06c3.643-1.649,6.87-0.981,7.298-0.977c-2.805-0.642-5.101-0.851-8.292,0.454
			c0.701-0.428,2.057-1.383,3.445-1.71c2.022-0.478,5.274-0.456,7.318,0.518c2.045,0.973,4.106,2.059,6.015,4.803
			c1.436,2.066,1.946,4.854,2.062,6.45c0.119,1.596-0.213,3.827-0.603,5.989C50.854,34.153,49.045,37.307,48.207,38.254z"/>
	</g>
</g>
<g id="Layer_3_2_">
	<g id="Layer_2_2_">
		<path fill="#FFFFFF" d="M41.186,4.347c0,0-4.724-2.652-8.621-3.428c-3.896-0.773-11.337,2.157-11.337,2.157l-10.302,5.83
			c0,0-3.435,11.261-3.435,11.979c0,0.718-1.597,13.256-1.597,13.256l0.155,3.227l1.76,2.123l1.438,1.996l3.273,3.355l4.414,2.082
			l2.854,2.311l3.753,1.195l5.031,0.48l7.509-3.514l3.272-5.35l3.037-8.064l3.752-2.877v-3.271l-3.832,0.557l-5.513,1.357
			l-2.711-1.117l-2.56-0.879l-1.438-2.316l-1.42-0.48l-1.692,3.833l-1.916,3.035l-7.747-2.076l-3.515-6.309l1.597-9.104l9.263-8.225
			l4.715-1.597l5.429-0.879l5.587,1.278L41.186,4.347"/>
	</g>
	<g id="Layer_3_1_">
		<path fill="#FFFFFF" d="M14.797,16.132l11.22-11.259l6.149-1.317l4.193,0.239l5.152,2.395c0,0,6.588,6.111,7.187,6.229
			c0.598,0.12,1.799,6.185,1.799,6.185l2.034,7.831c0,0-1.557,8.864-1.799,9.462c-0.236,0.6-6.946,9.584-6.946,9.584l-4.313,0.959
			l0.598-5.033l4.434-7.785l2.035-3.592l-1.677-3.235l-6.468,2.635l-1.679,0.238l-1.914-0.838l-2.277-1.558l-3.954-2.093
			l-2.554,5.13l-5.828-0.4L13,22.002L14.797,16.132z"/>
	</g>
	<g id="Layer_4_1_">
		<polygon fill="#FFFFFF" points="32.765,26.794 30.251,24.398 30.251,21.403 33.365,21.403 35.59,24.098 34.323,26.794 		"/>
		<polygon fill="#FFFFFF" points="39.353,26.794 37.319,24.996 37.319,21.403 40.552,20.205 44.387,20.205 44.983,24.098
			42.586,26.794 		"/>
	</g>
	<g id="Layer_1_2_">
		<polygon fill="#377254" points="35.599,7.628 35.59,7.628 35.594,7.628 		"/>
		<linearGradient id="SVGID_3_" gradientUnits="userSpaceOnUse" x1="6.8438" y1="12.9839" x2="50.7971" y2="38.3604">
			<stop  offset="0" style="stop-color:#CC94B0"/>
			<stop  offset="1" style="stop-color:#4E6384"/>
		</linearGradient>
		<path fill="url(#SVGID_3_)" d="M49.437,11.276c-3.776-4.408-4.516-4.781-6.064-5.782c-1.542-1.003-5.077-2.442-7.021-2.966
			c-1.938-0.523-7.673-0.327-11.966,1.721C20.089,6.3,16.754,8.982,15.4,10.66c-1.35,1.68-3.972,5.379-4.361,10.27
			c-0.392,4.927,0.567,8.46,3.12,10.589c1.829,1.528,6.256,5.284,12.078,1.227c1.308-0.85,1.219-1.065,1.219-1.065l2.376,0.608
			c-4.119,3.12-7.824,5.235-12.863,3.097c-5.034-2.137-7.424-7.891-7.51-11.215c-0.09-3.32,0.274-6.509,1.56-9.041
			c1.287-2.53,3.64-6.279,7.761-9.156c4.123-2.878,9.375-4.886,15.501-4.186c0.5-0.103,1.574-0.423,1.979-1.788
			c-2.536,1.192-5.184,0.146-7.59,0.146c-13.935,0-25.233,11.544-25.233,25.786c0,14.24,11.298,25.785,25.231,25.785
			c13.939,0,25.235-11.545,25.235-25.785C53.904,20.484,52.251,15.436,49.437,11.276z M16.583,35.217
			c2.168,4.121,5.927,5.951,9.469,7.084c4.432,0.506,7.107-2.049,7.83-2.678c0.723-0.623,1.52-0.215,0.744,0.629
			c-0.771,0.846-5.492,3.518-8.479,3.012c-8.673-2.121-10.214-8.963-10.214-8.963S16.174,34.662,16.583,35.217z M15.186,39.021
			c0,0,0.339,0.459,1.832,1.834c3.5,3.926,7.228,5.059,12.022,5.322c6.965-0.434,6.097-3.301,8.266-3.877
			c0.168,2.24-3.953,5.082-7.761,5.707C22.15,48.926,15.186,39.021,15.186,39.021z M36.898,44.012
			c-1.743,3.168-4.824,6.598-13.343,5.9c6.074-0.898,7.541-0.928,11.187-6.537c1.691-4.42,1.605-5.961,1.574-6.92
			c-0.029-0.961-0.461-3.287-2.354-5c-1.455-0.846-2.008-0.527-2.495-0.465c-0.497,0.059-2.885,0.084-3.521-2.297
			c0.725-2.094,0.725-1.892,0.725-1.892s-1.338,3.634,3.287,3.634c1.513,0.114,2.253,0,3.045,1.252
			c0.792,1.249,1.953,5.143,1.896,6.189c1.018-2.236,1.278-2.41,1.396-2.469C38.732,38.604,38.64,40.844,36.898,44.012z
			 M40.104,33.597c0,0,0.195-1.022-0.743-1.612c0,0-0.522,0.678-1.784,2.924c-0.066-0.133-0.109-0.199-0.457-0.637
			c-0.351-0.434-1.813-3.16-2.377-3.682c-0.572-0.525-2.008-0.699-3.449-0.721c-1.524-0.564-1.654-2.375-1.851-3.937
			c0.048,0.158,0.138,0.297,0.244,0.438c0.271,0.824,0.703,1.804,1.12,2.54c0.68,1.199,2.438,0.48,2.876,0.603
			c0.438,0.115,0.798-0.28,2.315,1.235c1.68,0.877,1.874-0.192,1.874-0.192c0.053,0.02,0.101,0.038,0.158,0.057
			c1.288-0.851,2.444-0.763,3.074-0.697c2.029,0.26,2.334-0.347,2.683-0.438c0.35-0.086,1.33-0.894,1.878,0.242
			c-0.109-0.045-0.548-0.359-1.095,1.862c0,0-0.55-0.937-1.19,0.427c-0.648-0.281-0.42-1.221-1.162,0.895
			C41.762,32.027,42.023,31.637,40.104,33.597z M32.204,24.434c0.731,0.404,1.195,0.279,1.61,0.16
			c0.129,0.379,0.117,0.435,0.117,0.435c-1.133,0.622-2.248-0.154-2.499-0.494c-0.405-0.383-0.586-1.71-0.181-2.766l0.59,0.417
			C31.752,22.729,31.316,23.795,32.204,24.434z M32.755,23.915c0.242,0.186,0.612,0.186,0.665,0.186c0.054,0,0.436,0.198-0.12,0.296
			c-0.5,0.066-0.795-0.099-1.016-0.415c-0.216-0.315-0.139-0.729,0.133-1.197l0.338,0.348
			C32.755,23.132,32.341,23.666,32.755,23.915z M35.799,26.875c0.163-2.078,0.801-1.479,0.96-1.04c0.16,0.438,0.198,2.437,0,2.677
			c-0.2,0.24-0.601,0.72-0.601,0.72S35.641,28.951,35.799,26.875z M41.406,22.543c0,0,0-0.087,0.767-0.467
			c0.189,0.381,0.333,0.641,0.351,1.441c0.016,0.799-0.734,1.566-1.777,1.568c-1.552,0.007-1.957-1.249-1.957-1.249l0.595-0.393
			c0.071,0.235,0.338,0.826,0.599,0.986c0.265,0.16,0.729,0.178,1.179-0.011c0.45-0.189,0.652-0.804,0.62-1.123
			C41.751,22.975,41.651,22.964,41.406,22.543z M40.397,25.596c1.538,0,2.358-1.002,2.563-1.686
			c0.205-0.683,0.103-1.574-0.454-2.151c0.541-0.292,0.469-0.247,0.482-0.234c0.698,1.28,0.799,3.693-0.801,4.477
			c-1.365,0.51-1.889,0.51-3.702-1.176c-0.233-0.378-0.366-0.567-0.366-0.567l0.304-0.219
			C38.423,24.041,39.466,25.596,40.397,25.596z M45.909,41.629c-1.085,1.225-4.882,3.924-4.882,3.924s0.697-0.783,1.511-1.801
			c2.413-2.326,3.371-7.127,3.807-10.584c0.062-0.232,0.179,0.117,2.036,1.252c-0.346-0.959-0.812-3.316-0.872-4.131
			c-0.059-0.816,0.405-3.225,0.436-7.442c0.031-4.217-2.383-7.065-3.721-8.605c0.232,0.524,0.203,0.464-0.026,2.034
			c-0.933-1.103-4.364-2.152-6.922-2.064c-4.363,0.146-5.353,2.355-5.61,2.121c-0.26-0.23-0.291-0.346-0.406-3.196
			c-3.894,3.575-3.548,11.54-3.836,12.793c-0.291,1.25-1.048,1.478-1.368,1.976c-1.251-0.499-5.088-0.931-7.298-2.469
			c-2.151-1.922-1.103-4.685-0.028-5.49c0.465-0.298,2.18-0.938,3.227,1.563c0.292-2.037-1.486-4.36-4.476-3.373
			c-2.268-3.401,4.257-7.714,7.21-9.051c5.44-2.464,10.262-1.465,10.899-1.458c-4.188-0.958-7.617-1.271-12.384,0.678
			c1.048-0.641,3.071-2.066,5.146-2.556c3.021-0.713,7.877-0.681,10.932,0.773c3.054,1.454,6.131,3.075,8.979,7.173
			c2.145,3.087,2.909,7.252,3.08,9.636c0.18,2.382-0.316,5.718-0.898,8.946C49.864,35.504,47.161,40.213,45.909,41.629z"/>
	</g>
</g>
<g id="Layer_2_1_">
	<g>
		<path fill="#706072" d="M-114.147,17.668v3.994h-7.523v4.008h5.643v3.993h-5.643v3.995h7.523v4.008h-7.523h-3.774V17.668H-114.147
			z"/>
		<path fill="#706072" d="M-109.021,17.668l3.201,5.955l3.201-5.955h4.334l-5.374,9.986l5.374,10.012h-4.334l-3.201-5.968
			l-3.201,5.968l-4.323-0.014l5.351-9.998l-5.351-9.986H-109.021z"/>
		<path fill="#706072" d="M-83.321,20.546c1.869,1.985,2.804,4.367,2.804,7.146c0,2.779-0.935,5.161-2.804,7.133
			c-1.869,1.973-4.112,2.965-6.73,2.965c-2.616,0-4.86-0.992-6.718-2.965c-1.857-1.972-2.791-4.354-2.791-7.133
			c0-2.779,0.934-5.161,2.791-7.146c1.858-1.985,4.102-2.977,6.718-2.977C-87.434,17.569-85.19,18.561-83.321,20.546z
			 M-94.082,23.387c-1.11,1.19-1.67,2.618-1.67,4.279c0,1.674,0.56,3.103,1.67,4.279c1.11,1.18,2.454,1.774,4.03,1.774
			c1.565,0,2.91-0.595,4.031-1.774c1.122-1.177,1.683-2.605,1.683-4.279c0-1.661-0.561-3.088-1.683-4.279
			c-1.121-1.191-2.465-1.787-4.031-1.787C-91.628,21.6-92.972,22.196-94.082,23.387z"/>
		<path fill="#706072" d="M-70.568,17.607c1.308,0,2.535,0.26,3.691,0.793c1.157,0.533,2.173,1.253,3.049,2.159l-2.687,2.854
			c-1.133-1.191-2.477-1.786-4.031-1.786c-1.578,0-2.92,0.595-4.031,1.786c-1.11,1.19-1.671,2.616-1.671,4.279
			c0,1.676,0.561,3.102,1.671,4.279c1.11,1.179,2.453,1.773,4.031,1.773c1.239,0,2.349-0.37,3.318-1.129
			c0.97-0.756,1.659-1.723,2.056-2.902h-5.387v-4.031h5.387h2.208h1.729c0.129,0.633,0.187,1.303,0.187,2.009
			c0,2.779-0.935,5.161-2.804,7.133c-1.869,1.973-4.113,2.965-6.73,2.965c-2.617,0-4.86-0.992-6.718-2.965
			c-1.857-1.972-2.792-4.354-2.792-7.133c0-2.779,0.934-5.161,2.792-7.146c1.858-1.985,4.101-2.977,6.718-2.977L-70.568,17.607z"/>
		<path fill="#706072" d="M-48.854,17.668v3.994h-7.524v4.008h5.643v3.993h-5.643v3.995h7.524v4.008h-7.524h-3.774V17.668H-48.854z"
			/>
		<path fill="#706072" d="M-36.287,28.721V17.668h3.774v20.369L-43.81,26.601v11.065h-3.774v-20.37L-36.287,28.721z"/>
		<path fill="#706072" d="M-31.126,17.668h3.773v19.998h-3.773V17.668z"/>
		<path fill="#706072" d="M-20.378,33.695c1.04,0,1.904-0.918,1.904-2.022c0-0.856-0.315-1.401-0.958-1.649
			c-1.356-0.533-1.029-0.409-2.349-0.894c-1.389-0.507-2.675-1.513-3.54-2.766c-0.514-0.744-0.771-1.662-0.771-2.766
			c0-1.663,0.561-3.089,1.683-4.281c1.122-1.19,2.465-1.785,4.042-1.785c1.565,0,2.91,0.594,4.031,1.785
			c1.122,1.191,1.682,2.618,1.682,4.281h-3.796c0-1.091-0.864-2.01-1.893-2.01c-1.04,0-1.904,0.919-1.904,2.022
			c0,0.72,0.269,1.266,0.818,1.638c1.121,0.77,0.993,0.621,2.335,1.042c1.449,0.447,2.758,1.402,3.657,2.629
			c0.526,0.72,0.795,1.649,0.795,2.779c0,1.676-0.561,3.101-1.683,4.292c-1.121,1.191-2.465,1.785-4.031,1.785
			c-1.577,0-2.92-0.594-4.042-1.785c-1.122-1.191-1.682-2.616-1.682-4.292h3.808c0,1.116,0.854,2.021,1.905,2.021L-20.378,33.695z"
			/>
		<path fill="#706072" d="M-5.146,17.668h4.709v3.994h-4.709v16.004h-3.773V21.662h-4.709v-3.994h4.709H-5.146z"/>
	</g>
</g>
</svg>
