<?xml version="1.0" encoding="utf-8"?>
<!-- Generator: Adobe Illustrator 16.0.0, SVG Export Plug-In . SVG Version: 6.00 Build 0)  -->
<!DOCTYPE svg PUBLIC "-//W3C//DTD SVG 1.1//EN" "http://www.w3.org/Graphics/SVG/1.1/DTD/svg11.dtd">
<svg version="1.1" xmlns="http://www.w3.org/2000/svg" xmlns:xlink="http://www.w3.org/1999/xlink" x="0px" y="0px" width="56px"
	 height="56px" viewBox="0 0 56 56" enable-background="new 0 0 56 56" xml:space="preserve">
<g id="Layer_1" display="none">
	<g id="Layer_2" display="inline">
		<path fill="#FFFFFF" d="M41.163,5.575c0,0-4.931-2.767-8.996-3.575c-4.065-0.808-11.833,2.25-11.833,2.25l-10.75,6.083
			c0,0-3.583,11.75-3.583,12.5S4.333,36.667,4.333,36.667l0.162,3.366l1.838,2.217l1.5,2.084l3.417,3.5l4.605,2.171l2.979,2.412
			l3.915,1.25l5.252,0.5l7.833-3.667l3.417-5.583l3.167-8.417l3.916-3v-3.416l-4,0.583l-5.75,1.417l-2.833-1.167L31.083,30
			l-1.5-2.417l-1.48-0.5l-1.769,4l-2,3.166l-8.083-2.166L12.583,25.5L14.25,16l9.667-8.583l4.917-1.667L34.5,4.833l5.833,1.333
			L41.163,5.575"/>
	</g>
	<g id="Layer_3" display="inline">
		<path fill="#FFFFFF" d="M13.625,17.875l11.708-11.75L31.75,4.75L36.125,5L41.5,7.5c0,0,6.875,6.375,7.5,6.5
			s1.877,6.454,1.877,6.454L53,28.625c0,0-1.625,9.25-1.875,9.875s-7.25,10-7.25,10l-4.5,1L40,44.25l4.625-8.125l2.125-3.75L45,29
			l-6.75,2.75L36.5,32l-2-0.875L32.125,29.5L28,27.315l-2.667,5.352L19.25,32.25L11.75,24L13.625,17.875z"/>
	</g>
	<g id="Layer_4" display="inline">
		<polygon fill="#FFFFFF" points="32.375,29 29.75,26.5 29.75,23.375 33,23.375 35.323,26.188 34,29 		"/>
		<polygon fill="#FFFFFF" points="39.25,29 37.125,27.125 37.125,23.375 40.5,22.125 44.5,22.125 45.125,26.188 42.625,29 		"/>
	</g>
	<g id="Layer_1_1_" display="inline">
		<polygon fill="#377254" points="35.332,9 35.323,9 35.326,9 		"/>

			<linearGradient id="SVGID_1_" gradientUnits="userSpaceOnUse" x1="283.3262" y1="-325.5894" x2="329.1921" y2="-352.07" gradientTransform="matrix(1 0 0 -1 -278 -311)">
			<stop  offset="0" style="stop-color:#CC94B0"/>
			<stop  offset="1" style="stop-color:#4E6384"/>
		</linearGradient>
		<path fill="url(#SVGID_1_)" d="M49.77,12.806c-3.937-4.599-4.709-4.987-6.324-6.033c-1.611-1.046-5.301-2.548-7.324-3.095
			c-2.021-0.546-8.008-0.34-12.49,1.797c-4.483,2.139-7.964,4.938-9.375,6.689c-1.41,1.752-4.144,5.613-4.55,10.717
			c-0.41,5.142,0.591,8.828,3.255,11.051c1.908,1.594,6.528,5.512,12.603,1.28c1.365-0.887,1.274-1.114,1.274-1.114l2.479,0.637
			c-4.299,3.256-8.167,5.461-13.422,3.23c-5.255-2.229-7.749-8.234-7.839-11.703c-0.092-3.465,0.286-6.793,1.628-9.433
			c1.343-2.639,3.799-6.553,8.1-9.556c4.301-3.003,9.783-5.097,16.176-4.368c0.521-0.106,1.643-0.44,2.063-1.865
			c-2.642,1.244-5.405,0.152-7.917,0.152C13.56,1.192,1.771,13.239,1.771,28.1c0,14.862,11.789,26.908,26.332,26.908
			c14.543,0,26.331-12.046,26.331-26.908C54.434,22.418,52.71,17.148,49.77,12.806z M7.443,35.775
			c2.731,5.188,7.463,7.492,11.922,8.918c5.583,0.638,8.949-2.579,9.859-3.368c0.907-0.787,1.912-0.272,0.938,0.789
			c-0.971,1.063-6.915,4.43-10.677,3.793C8.566,43.236,6.625,34.622,6.625,34.622S6.928,35.076,7.443,35.775z M5.684,40.566
			c0,0,0.428,0.578,2.305,2.308c4.409,4.944,9.102,6.369,15.139,6.703c8.767-0.548,7.675-4.156,10.405-4.884
			c0.213,2.82-4.975,6.398-9.769,7.188C14.452,53.036,5.684,40.566,5.684,40.566z M36.688,46.969
			c-1.817,3.307-5.035,6.885-13.921,6.158c6.337-0.939,7.869-0.971,11.669-6.825c1.77-4.61,1.678-6.22,1.646-7.221
			c-0.03-1.001-0.482-3.429-2.458-5.217c-1.517-0.882-2.092-0.548-2.604-0.486c-0.518,0.062-3.01,0.091-3.671-2.396
			c0.758-2.187,0.758-1.975,0.758-1.975s-1.396,3.793,3.429,3.793c1.576,0.119,2.352,0,3.177,1.305
			c0.826,1.305,2.04,5.369,1.979,6.461c1.063-2.334,1.334-2.519,1.457-2.577C38.602,41.325,38.507,43.66,36.688,46.969z
			 M40.032,36.102c0,0,0.204-1.068-0.773-1.685c0,0-0.547,0.706-1.864,3.05c-0.066-0.139-0.111-0.206-0.479-0.662
			c-0.365-0.453-1.891-3.299-2.48-3.843c-0.594-0.547-2.094-0.729-3.596-0.753c-1.592-0.59-1.729-2.479-1.934-4.109
			c0.052,0.166,0.145,0.311,0.256,0.458c0.283,0.859,0.734,1.881,1.171,2.649c0.708,1.25,2.542,0.5,3,0.625s0.834-0.292,2.417,1.291
			c1.75,0.916,1.955-0.2,1.955-0.2c0.053,0.021,0.104,0.039,0.165,0.061c1.344-0.887,2.549-0.797,3.209-0.729
			c2.116,0.272,2.435-0.36,2.798-0.456c0.365-0.089,1.389-0.932,1.957,0.251c-0.113-0.045-0.568-0.374-1.139,1.945
			c0,0-0.576-0.979-1.244,0.444c-0.676-0.293-0.438-1.273-1.213,0.934C41.762,34.463,42.036,34.055,40.032,36.102z M31.789,26.539
			c0.763,0.421,1.248,0.289,1.682,0.165c0.133,0.397,0.122,0.455,0.122,0.455c-1.182,0.648-2.347-0.163-2.608-0.516
			c-0.426-0.401-0.609-1.786-0.188-2.886l0.615,0.432C31.318,24.758,30.863,25.872,31.789,26.539z M32.366,25.997
			c0.249,0.193,0.637,0.193,0.692,0.193c0.057,0,0.455,0.206-0.125,0.308c-0.521,0.069-0.83-0.103-1.061-0.434
			c-0.229-0.327-0.146-0.759,0.139-1.248l0.354,0.363C32.366,25.179,31.934,25.736,32.366,25.997z M35.542,29.084
			c0.167-2.167,0.833-1.542,1-1.084s0.208,2.542,0,2.792s-0.625,0.75-0.625,0.75S35.375,31.251,35.542,29.084z M41.391,24.564
			c0,0,0-0.091,0.803-0.485c0.197,0.395,0.35,0.668,0.365,1.502c0.017,0.833-0.765,1.635-1.853,1.638
			c-1.624,0.006-2.048-1.304-2.048-1.304l0.623-0.409c0.076,0.242,0.354,0.86,0.627,1.027c0.271,0.166,0.758,0.185,1.229-0.012
			c0.469-0.196,0.678-0.837,0.647-1.172C41.753,25.016,41.648,25.005,41.391,24.564z M40.343,27.751c1.601,0,2.458-1.046,2.671-1.76
			c0.213-0.712,0.106-1.642-0.473-2.245c0.563-0.304,0.486-0.257,0.503-0.243c0.728,1.336,0.833,3.854-0.836,4.672
			c-1.424,0.531-1.972,0.531-3.865-1.228c-0.243-0.394-0.38-0.591-0.38-0.591l0.316-0.228
			C38.279,26.128,39.369,27.751,40.343,27.751z M46.092,44.48c-1.133,1.277-5.096,4.095-5.096,4.095s0.729-0.818,1.577-1.88
			c2.518-2.428,3.519-7.436,3.974-11.043c0.061-0.243,0.184,0.123,2.123,1.305c-0.361-1.001-0.848-3.459-0.908-4.309
			c-0.062-0.853,0.424-3.367,0.454-7.769c0.03-4.398-2.487-7.371-3.883-8.979c0.242,0.545,0.212,0.485-0.03,2.123
			c-0.972-1.153-4.552-2.245-7.221-2.154c-4.553,0.152-5.583,2.457-5.855,2.214c-0.271-0.242-0.303-0.363-0.424-3.337
			c-4.065,3.732-3.701,12.043-4.004,13.349c-0.303,1.304-1.092,1.544-1.426,2.063c-1.305-0.519-5.309-0.972-7.614-2.576
			c-2.246-2.005-1.153-4.888-0.031-5.729c0.485-0.31,2.275-0.978,3.367,1.631c0.304-2.124-1.547-4.55-4.671-3.519
			c-2.366-3.55,4.442-8.049,7.524-9.445C29.627,7.952,34.657,8.993,35.323,9C30.952,8,27.374,7.674,22.4,9.707
			c1.092-0.668,3.205-2.155,5.369-2.666c3.153-0.744,8.221-0.711,11.407,0.807c3.188,1.517,6.4,3.209,9.375,7.486
			c2.237,3.22,3.033,7.566,3.213,10.054c0.187,2.486-0.332,5.965-0.938,9.334C50.218,38.09,47.398,43.005,46.092,44.48z"/>
	</g>
</g>
<g id="Layer_2_1_" display="none">
	<path display="inline" d="M45.236,8.299c-4.572,2.192-9.033,5.095-13.3,7.833c-2.369,1.521-4.514,2.149-4.908,4.853
		c-0.042,0.006-0.083,0.011-0.121,0.033c-0.061,0.036-0.107,0.092-0.152,0.146c-0.15,0.179-0.25,0.362-0.34,0.575
		c-0.08,0.187-0.159,0.402-0.293,0.63c-0.045,0.077-0.101,0.149-0.155,0.223c-0.096-0.301-0.125-0.595-0.346-0.869
		c-0.281-0.35-0.801-0.715-1.234-0.844c-0.795-0.237-1.992-0.026-2.49,0.716c-0.174,0.258-0.255,0.56-0.284,0.863
		c-0.145-0.203-0.255-0.433-0.359-0.658c-0.071-0.154-0.135-0.318-0.199-0.483c0.063-1.233-2.749-2.658-3.467-3.055
		c-2.194-1.215-4.057-3.148-6.064-4.67c-1.858-1.409-4.088-2.304-6.211-3.25c-0.553-0.247-1.148,0.263-0.843,0.843
		c1.454,2.764,4.922,4.204,6.741,6.882c0.525,0.774,3.338,3.671,1.974,4.638c-0.289,0.205-0.55,0.42-0.799,0.646
		c-0.026,0.003-0.053,0.004-0.079,0.007c-0.189-0.001-0.473-0.001-0.79-0.019c-0.158-0.016-0.318-0.042-0.481-0.078
		c-0.05-0.021-0.104-0.039-0.146-0.065c-0.438-0.277-0.789-0.579-1.289-0.691c-0.027-0.016-0.053-0.037-0.08-0.052
		c-0.264-0.147-0.554-0.125-0.78,0.008c-0.017-0.007-0.03-0.018-0.048-0.024c-0.744-0.283-1.086,0.701-0.694,1.192
		c0.531,0.665,1.358,1.175,2.034,1.687c0.706,0.535,1.66,0.847,2.575,0.952c0.725,0.519,1.507,0.996,2.281,1.434
		c-0.065,0.173-0.129,0.35-0.221,0.528c-0.08,0.156-0.18,0.283-0.278,0.412c-0.208,0.252-0.438,0.478-0.674,0.643
		c-0.012,0.008-0.025,0.014-0.037,0.021c-0.227,0.152-0.457,0.249-0.675,0.25c-0.279-0.008-0.45,0.155-0.517,0.36
		c-0.287,0.189-0.411,0.576-0.127,0.852c0.558,0.543,1.791,0.443,2.519,0.465c0.588,0.017,1.491,0.233,2.07-0.039
		c0.396-0.034,0.794-0.08,1.085-0.14c-0.082,0.263-0.171,0.521-0.299,0.766c-0.152,0.289-0.319,0.575-0.497,0.85
		c-0.151,0.233-0.363,0.334-0.41,0.622c-0.022,0.138,0.012,0.279,0.144,0.353c0.22,0.122,0.414,0.104,0.586,0.017
		c0.056,0.025,0.121,0.04,0.197,0.036c0.056-0.003,0.1-0.023,0.153-0.03c0.015,0.009,0.027,0.023,0.042,0.029
		c0.254,0.099,0.476-0.001,0.662-0.182c0.034-0.026,0.064-0.063,0.096-0.094c0.464-0.234,0.869-0.576,1.312-0.92
		c0.203-0.158,0.471-0.428,0.67-0.73c0.099-0.111,0.196-0.228,0.287-0.351c0.265-0.195,0.521-0.4,0.771-0.546
		c0.032,0.022,0.068,0.035,0.103,0.054c0.148,2.407,1.158,5.145,1.751,7.353c0.023,0.088,0.052,0.173,0.077,0.26
		c0.095,1.124,0.237,2.257,0.646,3.187c0.044,0.197,0.085,0.395,0.126,0.592c-0.044,0.501-0.089,1.002-0.122,1.502
		c-0.037,0.275,0.161,0.471,0.401,0.537c0.088,1.198-0.11,2.45,0.253,3.593c0.085,0.268,0.458,0.268,0.542,0
		c0.008-0.024,0.011-0.051,0.019-0.075c0.269,0.618,1.185,0.014,0.972-0.464c-0.023-0.507-0.09-1.008-0.179-1.507
		c0.173-0.049,0.321-0.202,0.347-0.404c0.143-1.124-0.066-2.247-0.407-3.345c0.329-3.135,0.391-6.368,0.116-9.524
		c0.052-1.116,0.133-2.226,0.262-3.313c0.099,0.011,0.2,0.009,0.296-0.015c0.955,0.525,2.39,1.354,3.465,1.24
		c0.138,0.034,0.282,0.065,0.425,0.097c0.238,0.063,0.477,0.129,0.715,0.187c0.294,0.07,0.645,0.133,0.987,0.139
		c0.43,0.034,0.851-0.012,1.208-0.256c0.123-0.083,0.133-0.21,0.08-0.31c0.016-0.023,0.03-0.047,0.047-0.07
		c0.157,0.009,0.311,0,0.453-0.051c0.182-0.064,0.262-0.249,0.173-0.424c-0.289-0.566-1.049-0.71-1.588-0.938
		c-0.146-0.062-0.29-0.13-0.434-0.199c-0.02-0.081-0.043-0.165-0.062-0.242c-0.082-0.344-0.152-0.664-0.21-0.987
		c0.282-0.064,0.568-0.117,0.855-0.168c0.669,0.321,1.698,0.127,2.316,0.023c1.267-0.214,3.344-0.014,4.182-1.19
		c0.111-0.156,0.104-0.423,0-0.58c-0.024-0.036-0.048-0.072-0.072-0.108c-0.183-0.274-0.481-0.34-0.773-0.203
		c-0.215,0.101-0.562,0.096-0.936,0.04c-0.216-0.096-0.434-0.188-0.654-0.27c-0.781-1.378-2.108-0.246-0.209-1.588
		c1.911-0.424,3.401-1.88,4.757-3.271c0.455-0.467-0.024-1.076-0.563-0.98c-0.04-0.002-0.079,0.002-0.118,0.001
		c-0.073-0.047-0.152-0.083-0.241-0.091c-0.833-0.076-1.841,0.104-2.719,0.378c-0.446,0.012-0.89,0.04-1.334,0.069
		c0.008-0.01,0.014-0.015,0.021-0.025c2.52-3.3,5.548-7.938,9.045-10.323C46.322,8.82,45.844,8.008,45.236,8.299z M34.865,19.865
		c-0.229,0.285-0.202,0.642,0.11,0.855c0.794,0.542,1.668,0.314,2.584,0.203c0.09,0.221,0.3,0.409,0.565,0.439
		c0.021,0.002,0.04,0,0.062,0.003c-0.57,0.423-1.724,0.983-1.858,1.08c-0.151,0.11-0.295,0.231-0.442,0.348
		c-0.053-0.078-0.171-0.111-0.252-0.034c-0.149,0.142-0.245,0.305-0.3,0.477c-0.233,0.196-0.465,0.394-0.696,0.59
		c-0.268,0.226-0.194,0.614,0,0.85c1.55,1.884-2.461,1.237-3.949,1.647c-0.227,0.063-0.439,0.255-0.491,0.491
		c-0.173,0.792-0.029,1.14-0.033,2.062c-0.003,0.654-2.483-0.87-3.044-1.133c-0.492-0.231-1.101,0.04-1.104,0.633
		c0,0.083,0,0.167-0.001,0.25c0,0.109,0.032,0.195,0.067,0.278c-0.106,0.144-0.194,0.306-0.267,0.482
		c-0.034,0.016-0.063,0.038-0.069,0.079c-0.009,0.056-0.015,0.113-0.023,0.169c-0.188,0.59-0.251,1.293-0.276,1.978
		c-0.209,1.748-0.339,3.523-0.444,5.301c-0.033,0.293-0.066,0.586-0.099,0.879c-0.074-0.701-0.138-1.377-0.246-1.926
		c-0.406-2.073-0.75-4.219-1.498-6.194c-0.042-0.112-0.127-0.163-0.216-0.186c-0.126-0.229-0.367-0.391-0.695-0.423
		c-1.264-0.124-1.983,2.168-2.479,0.475c-0.115-0.392-0.569-0.71-0.983-0.558c-0.734,0.27-3.218,0.555-2.016-0.833
		c0.375-0.433,0.218-1.043-0.325-1.233c-0.7-0.245-1.34-0.625-1.963-1.033c0.009-0.187-0.045-0.377-0.208-0.53
		c-0.348-0.327-0.736-0.525-1.151-0.675c0.325-0.552,1.702-1.758,2.041-2.235c0.125-0.175,0.108-0.454,0-0.631
		c-1.114-1.833-2.313-3.77-3.637-5.462c-1.039-1.327-2.746-2.416-4.148-3.637c2.454,1.29,4.689,2.766,6.98,4.556
		c0.667,0.521,4.276,2.184,5.729,3.361c-0.125,0.277-0.065,0.583-0.016,0.886c0.065,0.402,0.126,0.724,0.297,1.105
		c0.263,0.589,0.713,1.278,1.394,1.301c0.01,0.012,0.02,0.026,0.03,0.037c0.191,0.218,0.472,0.026,0.484-0.203
		c0.172-0.178,0.161-0.457,0.027-0.679c0.222-0.649,0.836-1.165,1.554-1.009c0.334,0.072,0.691,0.451,0.769,0.767
		c0.033,0.136,0.148,0.573,0.19,0.726c-0.089,0.109-0.154,0.245-0.152,0.426V24c0.005,0.426,0.457,0.855,0.899,0.685
		c0.341-0.132,0.522-0.373,0.603-0.656c0.485-0.085,0.838-0.669,1.004-1.071c0.04-0.083,0.07-0.169,0.09-0.259
		c0.008-0.027,0.119-0.468-0.018-0.214c0.091-0.17,0.11-0.365,0.136-0.552c0.002-0.014,0.003-0.029,0.004-0.043
		c0.001-0.014,0.007-0.026,0.004-0.039c0.01-0.089,0.016-0.179,0.016-0.268c5.084-3.846-0.221-1.742,3.589-3.838
		c1.594-0.877,3.15-1.825,4.73-2.746c2.002-1.166,3.982-2.422,5.996-3.606C39.207,14.042,36.945,17.272,34.865,19.865z"/>
</g>
<g id="Layer_3_1_" display="none">
	<path display="inline" d="M49.45,32.048c0.001-0.002,0.001-0.004,0.001-0.006c-0.212,0.055-0.422,0.12-0.632,0.186
		c-1.307-2.904-3.537-5.391-5.521-7.878c-1.258-1.579-2.201-3.263-3.192-5.006c-0.983-1.731-2.38-2.657-3.566-4.242
		c-0.036-0.049-0.104-0.009-0.08,0.047c0.731,1.726,1.909,3.059,2.684,4.758c0.756,1.66,1.367,3.011,2.448,4.504
		c1.53,2.114,2.839,4.807,4.733,6.718c-4.832-1.858-10.256-2.131-14.891-4.8c-0.11-0.063-0.219-0.113-0.329-0.173
		c0.698-0.689,1.021-1.628,1.48-2.659c0.937-2.1,1.688-4.365,2.3-6.584c0.044-0.162-0.168-0.234-0.257-0.108
		c-1.335,1.876-2.896,3.51-4.039,5.527c-0.471,0.832-0.861,1.719-1.192,2.615c-0.047,0.126-0.055,0.248-0.046,0.367
		c-2.501-1.039-4.957-1.427-7.803-2.077c-1.951-0.445-3.825-0.876-5.813-1.172c0.125,0.019-3.545-0.468-3.619-0.581
		c-0.157-0.245-0.501-0.135-0.524,0.142c-0.07,0.868,0.249,1.863,0.987,2.379c-2.102,3.964-3.965,8.599-5.027,12.908
		C6.298,42.006,3.663,47.18,3.078,52.375c-0.006,0.057,0.074,0.058,0.092,0.013c2.118-5.334,4.264-11.056,6.776-16.209
		c1.732-3.552,4.698-7.421,5.315-11.44c2.785,0.596,5.583,1.181,8.387,1.692c1.223,0.593,2.411,1.23,3.507,1.786
		c2.156,1.094,4.457,1.743,6.693,2.625c0.1,0.039,0.168-0.126,0.072-0.172c-2.757-1.33-5.559-2.588-8.354-3.843
		c-0.074-0.033-0.149-0.067-0.223-0.101c0.343,0.059,0.686,0.124,1.028,0.179c2.068,0.333,4.271,2.15,6.211,2.985
		c1.561,0.671,3.316,1.022,4.957,1.446c1.215,0.314,2.438,0.521,3.662,0.691c1.528,0.551,3.347,0.653,5.042,0.98
		c-6.34,2.126-12.41,5.441-18.674,7.687c-8.159,2.924-15.076,7.651-22.723,11.46c-0.111-0.191-0.324-0.316-0.635-0.241
		c-0.475,0.114-0.795,0.359-1.082,0.746c-0.249,0.335,0.25,0.843,0.584,0.585c0.073-0.057,0.154-0.093,0.236-0.125
		c0.081-0.031,0.166-0.045,0.262-0.032c0.407,0.056,0.631-0.153,0.704-0.41c0.001-0.005,0.001-0.009,0.002-0.013
		c0.011-0.043,0.016-0.087,0.019-0.131c8.458-2.442,16.689-6.216,24.938-9.262c3.729-1.378,7.386-3.261,10.989-4.942
		c3.28-1.531,6.802-2.114,9.679-4.41C51.459,33.189,50.435,31.74,49.45,32.048z"/>
	<g display="inline">
		<path d="M35.943,14.43C35.955,14.425,35.956,14.422,35.943,14.43L35.943,14.43z"/>
		<path d="M49.938,17.697c-0.848-0.384-1.72-0.648-2.592-0.969c-1.449-0.533-3.618-0.511-4.894-1.328
			c-1.713-1.096-3.773-1.183-5.574-1.96c-0.24-0.104-0.553,0-0.7,0.195c-0.051-0.046-0.113-0.085-0.202-0.099
			c-0.153-0.024-0.281,0.002-0.392,0.06c-0.059-0.003-0.114-0.013-0.176-0.004c-0.914,0.136-1.295,1.411-1.577,2.156
			c-0.377,1-0.509,2.342-0.252,3.39c0.012,0.049,0.074,0.04,0.09,0c0.358-0.91,1.158-1.479,1.52-2.391
			c0.21-0.533,0.491-1.001,0.803-1.461c0.312,0.546,0.78,1.009,1.187,1.489c0.929,1.097,1.637,2.376,2.622,3.424
			c0.126,0.133,0.294,0.087,0.394-0.024c0.052,0.074,0.114,0.143,0.161,0.22c0.439,0.73,0.785,1.38,1.359,2.015
			c0.043,0.048,0.118-0.026,0.07-0.07c-1.057-0.982-1.868-3.403-2.273-4.765c-0.213-0.713-0.671-1.374-1.154-2.015
			c0.11,0.054,0.223,0.111,0.337,0.174c1.473,0.819,2.837,1.763,4.459,2.282c0.917,0.293,3.927,2.118,5.841,2.192
			c-0.542,2.424-1.183,4.792-1.571,7.267c-0.225,1.427-0.377,4.1,0.733,5.244c0.587,0.606,1.804,0.183,1.735-0.719
			c-0.053-0.704,0.264-1.432,0.443-2.098c0.305-1.123,0.052-2.498,0.049-3.652c-0.005-2.222,0.278-4.358-0.021-6.571
			c0.086-0.124,0.156-0.268,0.203-0.441C50.714,18.694,50.489,17.946,49.938,17.697z"/>
	</g>
	<path display="inline" d="M46.318,11.99c-0.022-0.113-0.082-0.201-0.142-0.288c0.306-0.296,0.24-0.875-0.26-1.059
		c-1.121-0.414-2.319-0.45-3.438-0.969c-0.006-0.002-0.012-0.004-0.018-0.007c0.05-0.091,0.094-0.187,0.145-0.283
		c0.114-0.218,0.276-0.397,0.411-0.604c0.118-0.182,0.197-0.398,0.298-0.59c0.108-0.208,0.294-0.378,0.332-0.616
		c0.022-0.142-0.035-0.314-0.196-0.346c-0.009-0.002-0.017,0-0.024-0.001c-0.007-0.277-0.291-0.424-0.591-0.525
		c-0.006-0.009-0.004-0.019-0.011-0.027c-0.226-0.292-0.538-0.521-0.751-0.816c-0.287-0.398-0.547-0.761-1.069-0.832
		c-0.406-0.055-0.789,0.031-1.012,0.412c-0.229,0.39-0.113,0.943,0.278,1.188c-0.243,0.442-0.517,0.872-0.69,1.36
		c-0.02,0.053,0.057,0.078,0.085,0.036c0.024-0.034,0.052-0.061,0.076-0.094c-0.082,0.194-0.161,0.389-0.224,0.588
		c-0.229,0.142-0.399,0.341-0.585,0.541c-0.282,0.303-0.652,0.557-0.987,0.795c-0.264,0.188-0.396,0.514-0.541,0.793
		c-0.192,0.369-0.432,0.673-0.668,1.011c-0.112,0.161-0.104,0.319-0.027,0.445c-0.335,0.433-0.664,0.858-0.955,1.327
		c-0.027,0.043-0.025,0.083-0.011,0.116c-0.05,0.188,0.09,0.423,0.332,0.351c0.742-0.22,1.487-0.188,2.251-0.445
		c0.985-0.332,1.988-0.583,3.013-0.752c0.836-0.139,1.835-0.212,2.76-0.408c-0.556,1.272-0.001,3.23-0.458,4.485
		c-0.153,0.421,0.448,0.608,0.669,0.278l0.012,0.009c0.484-0.627,0.704-1.563,1.045-2.276C45.828,13.82,46.552,13.133,46.318,11.99z
		 M42.593,8.162c-0.104,0.285-0.229,0.526-0.387,0.786c-0.1,0.164-0.141,0.354-0.216,0.529c-0.652-0.241-1.321-0.381-2.012-0.49
		c0.001-0.001,0.002-0.003,0.004-0.005c0.064-0.06,0.092-0.127,0.098-0.194c0.049-0.002,0.096-0.008,0.145-0.012
		c0.011,0.011,0.021,0.026,0.038,0.02c0.038-0.013,0.077-0.026,0.115-0.04c0.011-0.002,0.021-0.001,0.032-0.004
		c0.147-0.033,0.294-0.091,0.438-0.156c0.621-0.209,1.25-0.421,1.842-0.705C42.655,7.985,42.623,8.079,42.593,8.162z M40.086,8.132
		c0.146-0.222,0.292-0.444,0.39-0.695c0.063-0.16,0.12-0.324,0.183-0.486c0.034-0.03,0.063-0.062,0.099-0.092
		c0.006-0.004,0.011-0.011,0.016-0.016c0.577,0.178,1.165,0.179,1.777,0.302c0.143,0.029,0.25-0.031,0.305-0.124
		c0.13,0.073,0.227,0.14,0.215,0.178c-0.008,0.025,0.007,0.041,0.009,0.063c0,0-0.001,0.001-0.002,0.001
		c-0.055-0.082-0.158-0.139-0.264-0.116c-0.565,0.124-1.298,0.417-1.714,0.825c-0.282,0.277-0.676,0.536-1.066,0.614
		c-0.003,0-0.005,0.001-0.007,0.001c-0.026-0.039-0.062-0.07-0.101-0.097C39.995,8.384,40.046,8.26,40.086,8.132z M41.161,12.051
		c-1.607,0.508-3.316,0.743-4.925,1.217c0.253-0.322,0.521-0.629,0.792-0.937c0.118,0.034,0.246,0.035,0.361-0.021
		c0.617-0.298,0.887-0.994,1.287-1.509c0.06-0.076,0.124-0.146,0.188-0.218c0.415-0.364,0.831-0.725,1.032-1.259
		c0.028-0.076,0.003-0.14-0.036-0.198c0.015-0.02,0.031-0.038,0.047-0.056c0.291,0.027,0.571,0.111,0.843,0.226
		c-0.165-0.034-0.332-0.059-0.5-0.062c-0.184-0.003-0.178,0.266,0,0.281c0.862,0.072,1.753,0.852,2.563,1.088
		c0.115,0.034,0.223,0.084,0.334,0.126c0.328,0.188,0.657,0.373,0.981,0.567c0.067,0.041,0.141,0.067,0.213,0.097
		C43.26,11.524,42.164,11.734,41.161,12.051z"/>
</g>
<g id="Layer_10" display="none">
	<path display="inline" fill="#7B1F3A" d="M50.41,32.544c-2.374-0.815-4.967-1.421-7.482-1.954c-0.825-1.396-2.277-2.49-4.471-2.94
		c-4.294-0.881-8.536-2.495-12.742-3.736c-1.709-0.505-4.525-0.821-7.005-0.629c-0.201-0.073-0.402-0.153-0.601-0.223
		c-0.842-0.296-1.825-0.375-2.75-0.567c-0.056-0.057-0.125-0.106-0.216-0.137c-0.212-0.072-0.342-0.122-0.446-0.163
		c-0.063-0.041-0.076-0.058-0.064-0.025c-0.092-0.036-0.172-0.064-0.278-0.093c-0.006-0.001-0.012-0.003-0.018-0.004
		c-0.124-0.033-0.285-0.067-0.561-0.117c-0.122-0.022-0.233,0-0.333,0.042c-0.004,0.001-0.007,0-0.011,0.001
		c-0.003,0.001-0.004,0.004-0.007,0.005c-0.282,0.127-0.437,0.455-0.316,0.727c-0.021,0.024-0.043,0.045-0.059,0.078
		c-0.672,1.362-0.93,2.927-1.271,4.437c-0.127,0.031-0.244,0.112-0.303,0.269c-0.469,1.234-0.821,2.566-1.17,3.891
		c-0.152,0.456-0.311,0.91-0.467,1.364c-0.204,0.266-0.396,0.561-0.578,0.905c-0.53,1.004-0.825,2.082-0.897,3.159
		c-0.035,0.067-0.066,0.133-0.103,0.201c-0.224,0.421-0.289,0.89-0.392,1.333c-0.259,0.722-0.503,1.447-0.738,2.176
		c-0.721,1.825-1.458,3.646-2.169,5.478c-0.277,0.652-0.563,1.303-0.837,1.957c-0.115,0.274-0.171,0.538-0.204,0.797
		c-0.333,0.911-0.655,1.826-0.961,2.747c-0.134,0.333-0.247,0.668-0.345,1.004c-0.018,0.038-0.028,0.079-0.036,0.122
		c-0.02,0.072-0.045,0.145-0.063,0.217C2.4,53.33,2.847,53.576,3.185,53.447c0.125-0.005,0.248-0.053,0.341-0.172
		c0.091-0.116,0.189-0.229,0.282-0.346c0.177,0.009,0.546-0.071,0.988-0.193c0.243,0.281,0.627,0.411,1.017,0.137
		c0.061-0.043,0.113-0.095,0.172-0.139l0.003,0.004c0.009-0.01,0.02-0.02,0.029-0.029c0.249-0.185,0.486-0.381,0.72-0.581
		c0.04-0.014,0.074-0.024,0.11-0.037c1.037,0.177,2.135-0.043,2.914-0.83c0.061-0.062,0.114-0.137,0.174-0.201
		c0.386-0.167,0.738-0.423,1.024-0.782c1.027-0.553,2.056-1.103,3.166-1.48c2.109-0.718,3.944-1.422,5.938-2.389
		c2.437-1.182,4.943-1.983,7.462-2.946c0.824-0.314,1.648-0.62,2.473-0.921c1.371,0.584,2.947,0.702,4.63,0.098
		c0.437-0.157,1.509-0.49,1.873-0.525c3.103-0.299,5.43-2.403,6.545-4.929c0.616-0.298,1.234-0.589,1.866-0.851
		c1.682-0.697,3.657-2.272,5.464-2.408c0.307-0.023,0.438-0.29,0.398-0.52C50.901,33.104,50.785,32.673,50.41,32.544z
		 M13.805,24.812c0.08-0.038,0.143-0.107,0.161-0.218c0.067-0.414,0.146-0.776,0.228-1.17c0.421,0.196,0.865,0.37,1.314,0.538
		c-0.206,0.086-0.401,0.179-0.579,0.282c-0.481,0.282-0.888,0.616-1.247,0.984C13.72,25.088,13.77,24.952,13.805,24.812z
		 M23.965,43.34c0.119-0.11,0.237-0.221,0.354-0.332c0.47-0.446,0.987-0.833,1.45-1.292c0.445-0.49,0.85-1.014,1.237-1.552h0
		c-0.526,0.661-0.614,0.789-0.257,0.373c0.1-0.113,0.186-0.228,0.281-0.341c0.429,0.549,0.917,1.04,1.458,1.456
		C26.976,42.169,25.468,42.753,23.965,43.34z M46.369,34.374c-0.926,0.421-1.87,0.873-2.82,1.309
		c0.261-1.096,0.297-2.217,0.076-3.268c1.715,0.291,3.448,0.521,5.128,0.933C47.933,33.612,47.144,34.022,46.369,34.374z"/>
</g>
<g id="Layer_9" display="none">
</g>
<g id="Layer_6" display="none">
</g>
<g id="Layer_8" display="none">
</g>
<g id="Layer_7" display="none">
</g>
<g id="Layer_5" display="none">
</g>
<g id="Layer_4_1_">
	<path fill="#C70039" d="M42.542,6.835c-0.376-0.318-0.715-0.691-1.072-1.032c-0.392-0.374-0.808-0.718-1.197-1.092
		c-0.328-0.314-0.723-0.524-1.063-0.817c-0.003-0.004-0.007-0.005-0.011-0.007c-0.028-0.025-0.061-0.043-0.089-0.069
		c-0.05-0.048-0.134-0.06-0.198-0.037L38.84,3.806c-0.104,0.037-0.162,0.154-0.123,0.259l0.024,0.072
		c0.009,0.024,0.027,0.04,0.042,0.056c-0.001,0.01-0.003,0.021-0.004,0.031c-0.011,0.018-0.03,0.028-0.034,0.052
		c-0.004,0.018,0.004,0.034,0.003,0.052c-0.001-0.001-0.005-0.001-0.006-0.001c-0.001,0.034,0.001,0.065,0.003,0.1
		c-0.011,0.007-0.021,0.012-0.026,0.024c-0.176,0.319-0.061,0.725-0.047,1.067c0.006,0.228,0.005,0.485,0.039,0.728
		c0.009,0.256,0.017,0.498-0.013,0.663c-0.024,0.14,0.094,0.211,0.203,0.208c0.025,0.026,0.052,0.025,0.07-0.003
		c0.005,0.004,0.006,0.009,0.008,0.014c-0.003,0.116-0.013,0.233-0.019,0.354c-0.003,0.03,0.042,0.036,0.054,0.01
		c0.03-0.068,0.058-0.136,0.079-0.205c0.007-0.005,0.019,0.003,0.018-0.006l-0.003-0.031c0.045-0.141,0.055-0.283,0.042-0.425
		c0.045,0.13,0.11,0.248,0.236,0.328c0.172,0.109,0.378-0.044,0.409-0.223c0.002-0.001,0.001-0.003,0.004-0.005
		c0.008,0.007,0.018,0.01,0.024,0.018c0.075,0.076,0.204,0.088,0.301,0.056c0.073-0.025,0.147-0.048,0.222-0.073
		c0.061-0.02,0.083-0.066,0.116-0.107c0.024,0.023,0.046,0.052,0.073,0.069c0.021,0.027,0.051,0.032,0.074,0.051
		c0.004,0.016,0.01,0.031,0.017,0.047c0.095,0.286,0.375,0.336,0.592,0.245c0.113,0.021,0.224,0.053,0.331,0.076V7.294
		C41.586,7.3,41.621,7.31,41.664,7.31c0.262,0.002,0.391-0.194,0.392-0.403c0.107,0.083,0.208,0.161,0.318,0.248
		c0.059,0.045,0.15,0.018,0.165-0.058c0.001-0.011,0.003-0.022,0.004-0.033c0.025-0.017,0.037-0.039,0.041-0.061
		c0.016,0.009,0.036,0.018,0.048,0.028c0.028,0.027,0.074-0.007,0.062-0.042C42.665,6.911,42.61,6.891,42.542,6.835z"/>
	<path fill="#900C3E" d="M42.833,7.053c-0.012-0.004-0.032-0.006-0.047-0.011c-0.024-0.018-0.051-0.035-0.089-0.037
		c-0.027-0.002-0.058,0-0.087-0.001c-0.023-0.004-0.043,0-0.067-0.001c-0.292-0.308-1.356-0.254-1.705-0.273
		C39.86,6.676,38.88,6.823,37.91,6.745c-0.684-0.056-1.36-0.054-2.042,0.015c-0.052-0.017-0.105-0.01-0.16,0.01
		c-0.007,0.001-0.017,0-0.024,0c-0.072,0.009-0.111,0.061-0.127,0.118c-0.91,0.919-1.608,2.104-2.452,3.092
		c-0.573,0.671-1.122,1.34-1.643,2.059c-0.348,0.481-0.813,1.241-1.248,1.632c-0.072,0.065,0.004,0.186,0.088,0.128
		c0.316-0.22,0.598-0.501,0.863-0.81c-0.01,0.146,0.027,0.291,0.102,0.419c0.213,0.51,0.886,0.626,1.239,0.177
		c0.194-0.005,0.392-0.072,0.55-0.23c0.045-0.043,0.087-0.097,0.131-0.144c0.141-0.029,0.278-0.087,0.392-0.204
		c0.186,0.061,0.391,0.042,0.585-0.133c0.055-0.049,0.107-0.113,0.163-0.167c0.046-0.007,0.092,0.007,0.136-0.01
		c0.753-0.311,1.318-1.047,1.81-1.782c0.214-0.246,0.399-0.499,0.594-0.753c0.433,0.055,0.86-0.024,1.293-0.142
		c0.085,0.065,0.165,0.131,0.256,0.189c0.438,0.288,1.27-0.053,0.973-0.67c-0.006-0.009-0.011-0.013-0.017-0.021l0.012-0.004
		c0.194-0.072,0.325-0.21,0.398-0.373c0.013-0.005,0.027-0.008,0.038-0.014c0.586,0.079,1.192-0.009,1.673-0.287
		c0.092,0.008,0.184-0.006,0.271-0.033c0.292,0.12,0.63-0.037,0.729-0.35c0.22-0.321,0.313-0.766,0.153-1.109
		c0.01-0.005,0.019-0.003,0.026-0.012c0.004-0.006,0.007-0.012,0.012-0.017c0.043,0.002,0.087,0.021,0.134,0.015
		C42.983,7.314,42.988,7.1,42.833,7.053z"/>
	<path fill="#FF5733" d="M42.418,7.338c-0.056-0.025-0.119-0.032-0.188,0.008c-0.269,0.157-0.555,0.299-0.836,0.446
		c-0.579,0.267-1.171,0.561-1.765,0.863c-2.942,1.334-6.156,2.494-8.6,4.459c-0.156,0.092-0.322,0.169-0.475,0.27
		c-0.072,0.05-0.093,0.12-0.091,0.192c-0.04,0.035-0.086,0.066-0.127,0.103c-0.1,0.092,0.056,0.262,0.16,0.175
		c0.025-0.022,0.063-0.042,0.09-0.064c0.053,0.03,0.115,0.043,0.185,0.019l0.073-0.026c0.117-0.041,0.146-0.137,0.138-0.233
		c-0.009,0.078-0.004,0.16,0.022,0.25c0.104,0.354,0.3,0.466,0.529,0.472c0.033,0.038,0.063,0.089,0.106,0.105
		c0.327,0.117,0.571,0.044,0.877-0.107c0.063-0.032,0.134-0.074,0.206-0.119c0.124,0.165,0.316,0.287,0.537,0.285
		c0.135,0.288,0.422,0.484,0.781,0.316c0.29-0.136,0.563-0.298,0.826-0.478c0.095-0.053,0.188-0.121,0.283-0.18
		c0.047,0.069,0.106,0.125,0.174,0.173c-0.17,0.651,0.77,1.113,1.261,0.594c0.201-0.212,0.389-0.438,0.569-0.668
		c0.068-0.004,0.134-0.022,0.198-0.055c0.049,0.068,0.107,0.125,0.176,0.17c0.039,0.448,0.51,0.752,0.893,0.662
		c0.144,0.486,0.821,0.419,1.03,0.035c0.012-0.024,0.021-0.052,0.033-0.077c0.084,0.007,0.169-0.002,0.248-0.028
		c-0.031,0.206-0.055,0.41-0.053,0.618c0.009,0.852,1.289,0.885,1.454,0.088c0.002-0.009,0.003-0.019,0.005-0.026
		c0.223-0.031,0.423-0.151,0.539-0.37c0.004,0.02,0,0.032,0.007,0.054c0.002,0.009,0.01,0.011,0.014,0.021v0.001
		c0.003,0.257,0.382,0.219,0.392-0.029c0.005-0.106,0.024-0.212,0.033-0.318c0.234-1.098,0.452-2.281,0.516-3.387
		c0.037-0.66,0.129-1.315,0.174-1.97c0.018-0.149,0.033-0.294,0.054-0.447c0.018-0.148,0.243-1.314-0.051-1.21
		c0.155-0.055,0.24-0.231,0.185-0.386L42.978,7.46c-0.025-0.069-0.08-0.119-0.142-0.153C43.031,7.148,42.978,7.111,42.418,7.338z"/>
	<path fill="#571845" d="M49.274,18.836c-0.02-0.177-0.037-0.353-0.096-0.535c-0.113-0.344-0.22-0.692-0.337-1.038
		c-0.042-0.279-0.099-0.546-0.314-0.785c-0.233-0.26-0.541-0.347-0.816-0.307c-0.033-0.029-0.047-0.074-0.087-0.094
		c-0.357-0.18-0.788-0.181-1.198-0.153c-0.075-0.044-0.148-0.07-0.223-0.082c-2.162-1.353-5.632-0.884-8.089-1.629
		c-1.162-0.353-2.643-0.224-3.843-0.321c-0.861-0.071-2.37-0.081-3.383-0.341c-0.045,0.207-0.086,0.412-0.128,0.619
		c1.038,0.934,2.947,1.403,4.114,1.706c0.095,0.024,0.186,0.051,0.279,0.075c-0.285,0.157-0.566,0.36-0.851,0.619
		c-0.055,0.05-0.107,0.099-0.163,0.149c-0.862,0.789-0.94,2.654-0.168,3.519c0.181,0.203,0.392,0.373,0.613,0.524
		c0.36,0.839,1.057,1.513,2.068,1.631c0.023,0.004,0.051,0.002,0.076,0.006c0.812,1.055,1.756,1.591,3.034,2.051
		c1.163,0.421,2.556,0.81,3.779,0.973c0.202,0.01,0.404,0.024,0.606,0.036c0.237,0.264,0.484,0.494,0.762,0.69
		c0.113,0.153,0.232,0.291,0.364,0.41c0.786,0.918,1.755,1.196,2.639,1.048c0.004,0.007,0.009,0.011,0.011,0.018
		c0.093,0.137,0.186,0.272,0.286,0.407c0.456,0.528,1.082,0.823,1.783,0.576c0.499-0.177,0.877-0.626,0.995-1.136
		c0.06,0.095,0.117,0.189,0.179,0.284c0.572,0.861,1.813-0.032,1.303-0.906C51.034,24.382,50.868,21.147,49.274,18.836z"/>
	<path fill="#FFC300" d="M52.21,27.82c-0.169-0.435-0.559-0.571-0.979-0.611c-3.438-2.385-7.037-4.557-10.469-6.941
		c-3.181-2.213-6.314-5.09-9.766-6.775c-0.03-0.015-0.057-0.007-0.082-0.006c-0.278-0.173-0.694-0.076-0.738,0.285
		c-0.001,0-0.002,0-0.004,0c-0.002,0.04-0.002,0.075-0.007,0.114c0,0.005-0.001,0.009,0,0.014c0,0.001,0,0.001,0,0.002
		c-0.059,0.743-0.091,1.444,0.004,2.184c-0.127,0.71-0.237,1.479-0.333,2.266c-0.271,1.153-0.541,2.308-0.592,3.502
		c-0.105,2.444-0.594,5.024-0.444,7.468c0.01-0.002,0.017-0.004,0.027-0.006c0.093,0.81,1.404,0.982,1.467,0.097
		c0.02-0.264,0.049-0.532,0.073-0.798c0.059,0.224,0.145,0.427,0.239,0.621c0.023,0.244,0.067,0.49,0.107,0.736
		c0.003,0.051,0.003,0.104,0.008,0.156c0.004,0,0.011,0,0.016,0c0.021,0.111,0.03,0.226,0.054,0.338
		c0.275,1.301,2.152,0.97,2.438-0.139c0.848,1.267,3.111,1.122,3.523-0.445c0.295-0.188,0.532-0.441,0.697-0.738
		c0.097,0.104,0.19,0.211,0.292,0.309c0.383,0.6,0.813,1.153,1.299,1.628c0.136,0.165,0.285,0.324,0.485,0.464
		c1.241,0.861,2.797,0.107,3.049-1.087c0.411-0.204,0.742-0.567,0.977-0.995c0.651,0.42,1.312,0.293,1.801-0.091
		c0.19,0.182,0.399,0.347,0.616,0.497c0.416,0.289,0.908,0.41,1.363,0.316c0.158-0.007,0.319-0.027,0.48-0.086
		c0.521-0.191,0.896-0.603,1.084-1.092c0.138,0,0.271-0.024,0.405-0.059c0.101,0.002,0.202,0.008,0.304,0.002
		c0.33-0.02,0.499,0.043,0.823-0.124c-0.281,0.146-0.24,0.097,0.058,0.252c0.095,0.05,0.216-0.034,0.206-0.14
		c-0.012-0.117-0.034-0.173-0.036-0.225c0.395,0.009,0.749-0.238,0.896-0.567c0.087,0.02,0.174,0.037,0.273,0.056
		c0.016,0.012,0.029,0.024,0.044,0.035c0.004,0.002,0.007,0.007,0.009,0.01c0.001,0,0.001-0.001,0.002-0.001
		c0.015,0.007,0.024,0.017,0.037,0.025c0.13,0.08,0.257-0.057,0.24-0.187C52.216,28.011,52.248,27.919,52.21,27.82z"/>
	<path fill="#C70039" d="M51.619,27.521c-10.137,0.804-21.643-2.779-31.469,0.154c-0.305-0.315-0.759-0.424-1.051-0.004
		c-2.05,2.943-3.639,6.252-5.252,9.552c-0.965,1.44-1.709,3.131-2.489,4.778c-0.786,1.25-1.666,2.413-2.292,3.813
		c-0.024,0.051-0.059,0.127-0.102,0.215c-0.168,0.204-0.325,0.422-0.509,0.605c-1.663,1.692-2.017,3.883-2.892,6.111
		c-0.027,0.073-0.028,0.14-0.017,0.2c-0.165,0.142-0.326,0.273-0.258,0.595c0.007,0.034,0.022,0.055,0.033,0.085
		c-0.03,0.063-0.036,0.131-0.027,0.2c-0.123,0.193-0.239,0.391-0.349,0.607c-0.122,0.233,0.19,0.558,0.317,0.319
		c0.005-0.009,0.012-0.02,0.019-0.028c0.035,0.022,0.072,0.043,0.109,0.048c0.165,0.022,0.267-0.063,0.383-0.174
		c0.228-0.219,0.457-0.414,0.705-0.6c0.186-0.141,0.398-0.292,0.553-0.484c0.429-0.284,0.856-0.577,1.335-0.733
		c0.273-0.088,0.628-0.382,0.873-0.575c2.222-0.647,4.294-2.131,6.113-3.399c4.532-3.161,9.431-5.244,14.287-7.723
		c7.455-3.807,14.923-7.492,22.1-11.899c0.228-0.141,0.281-0.377,0.248-0.621C52.337,28.335,52.095,27.481,51.619,27.521z"/>
</g>
</svg>
