<?xml version="1.0" encoding="utf-8"?>
<!-- Generator: Adobe Illustrator 16.0.0, SVG Export Plug-In . SVG Version: 6.00 Build 0)  -->
<!DOCTYPE svg PUBLIC "-//W3C//DTD SVG 1.1//EN" "http://www.w3.org/Graphics/SVG/1.1/DTD/svg11.dtd">
<svg version="1.1" xmlns="http://www.w3.org/2000/svg" xmlns:xlink="http://www.w3.org/1999/xlink" x="0px" y="0px" width="150.5px"
	 height="56px" viewBox="-94.5 0 150.5 56" enable-background="new -94.5 0 150.5 56" xml:space="preserve">
<g id="Layer_1">
	<g id="Layer_2">

			<linearGradient id="SVGID_1_" gradientUnits="userSpaceOnUse" x1="299.4141" y1="-338.6904" x2="326.3623" y2="-338.6904" gradientTransform="matrix(1 0 0 -1 -278 -311)">
			<stop  offset="0" style="stop-color:#FFFFFF"/>
			<stop  offset="1" style="stop-color:#FABE6A"/>
		</linearGradient>
		<path fill="url(#SVGID_1_)" d="M45.045,13.292c0,0-3.164-1.775-5.772-2.294c-2.608-0.518-7.592,1.444-7.592,1.444l-6.897,3.903
			c0,0-2.299,7.539-2.299,8.02c0,0.48-1.07,8.875-1.07,8.875l0.104,2.16l1.179,1.422l0.962,1.337l2.192,2.246l2.954,1.393
			l1.912,1.548l2.512,0.802l3.369,0.321l5.025-2.354l2.193-3.582l2.031-5.399l2.513-1.925v-2.192l-2.567,0.374L42.106,30.3
			l-1.817-0.748l-1.712-0.589l-0.962-1.551l-0.95-0.32l-1.135,2.566l-1.283,2.031l-5.187-1.39l-2.353-4.224l1.069-6.096l6.202-5.506
			l3.155-1.069l3.635-0.588l3.742,0.855L45.045,13.292"/>
	</g>
	<g id="Layer_3">
		<path fill="#0D334C" d="M27.376,21.184l7.512-7.538l4.116-0.882l2.808,0.16l3.448,1.604c0,0,4.411,4.09,4.812,4.171
			c0.401,0.08,1.204,4.141,1.204,4.141l1.362,5.242c0,0-1.042,5.935-1.203,6.336c-0.16,0.4-4.651,6.415-4.651,6.415l-2.888,0.642
			l0.402-3.368l2.967-5.213l1.363-2.405l-1.123-2.166l-4.33,1.765l-1.123,0.16l-1.283-0.562l-1.523-1.042L36.6,27.24l-1.711,3.434
			l-3.903-0.268l-4.812-5.293L27.376,21.184z"/>
	</g>
	<g id="Layer_4">
		<polygon fill="#FFFFFF" points="39.406,28.321 37.723,26.718 37.723,24.713 39.807,24.713 41.298,26.518 40.449,28.321 		"/>
		<polygon fill="#FFFFFF" points="43.816,28.321 42.453,27.118 42.453,24.713 44.619,23.911 47.186,23.911 47.586,26.518
			45.982,28.321 		"/>
	</g>
	<g id="Layer_1_1_">
		<polygon fill="#377254" points="41.303,15.49 41.298,15.49 41.299,15.49 		"/>

			<linearGradient id="SVGID_2_" gradientUnits="userSpaceOnUse" x1="299.9521" y1="-347.2388" x2="329.3793" y2="-330.2491" gradientTransform="matrix(1 0 0 -1 -278 -311)">
			<stop  offset="0.1626" style="stop-color:#E84A5F"/>
			<stop  offset="1" style="stop-color:#FECE38"/>
		</linearGradient>
		<path fill="url(#SVGID_2_)" d="M50.566,17.932c-2.525-2.951-3.021-3.2-4.058-3.871c-1.034-0.671-3.401-1.635-4.7-1.985
			c-1.297-0.351-5.138-0.219-8.014,1.153c-2.876,1.372-5.109,3.168-6.015,4.292c-0.904,1.124-2.659,3.601-2.919,6.875
			c-0.263,3.299,0.379,5.664,2.088,7.09c1.224,1.022,4.188,3.536,8.085,0.821c0.877-0.568,0.818-0.715,0.818-0.715l1.59,0.409
			c-2.759,2.088-5.24,3.503-8.611,2.072c-3.372-1.43-4.972-5.283-5.03-7.508c-0.059-2.224,0.183-4.359,1.044-6.053
			s2.438-4.204,5.196-6.131c2.76-1.927,6.277-3.271,10.379-2.803c0.334-0.068,1.053-0.282,1.324-1.196
			c-1.695,0.798-3.469,0.098-5.08,0.098c-9.332,0-16.895,7.729-16.895,17.264c0,9.535,7.563,17.264,16.894,17.264
			c9.331,0,16.894-7.729,16.894-17.264C53.559,24.099,52.453,20.718,50.566,17.932z M23.41,32.669
			c1.752,3.328,4.788,4.807,7.648,5.722c3.582,0.409,5.742-1.655,6.326-2.161c0.583-0.505,1.227-0.175,0.602,0.506
			c-0.623,0.682-4.437,2.842-6.851,2.434c-7.005-1.714-8.25-7.24-8.25-7.24S23.08,32.22,23.41,32.669z M22.282,35.742
			c0,0,0.274,0.371,1.479,1.48c2.828,3.173,5.839,4.087,9.712,4.301c5.625-0.352,4.925-2.666,6.677-3.133
			c0.136,1.809-3.192,4.105-6.269,4.611C27.907,43.743,22.282,35.742,22.282,35.742z M42.173,39.85
			c-1.167,2.122-3.23,4.418-8.933,3.951c4.066-0.603,5.049-0.622,7.488-4.379c1.135-2.958,1.076-3.99,1.057-4.633
			c-0.02-0.642-0.311-2.199-1.578-3.347c-0.973-0.565-1.342-0.352-1.67-0.312c-0.332,0.039-1.932,0.058-2.357-1.537
			c0.486-1.402,0.486-1.267,0.486-1.267s-0.895,2.434,2.201,2.434c1.012,0.076,1.508,0,2.037,0.836
			c0.531,0.838,1.31,3.445,1.27,4.146c0.683-1.497,0.856-1.615,0.936-1.653C43.4,36.229,43.34,37.728,42.173,39.85z M44.318,32.878
			c0,0,0.131-0.687-0.496-1.081c0,0-0.351,0.453-1.195,1.957c-0.043-0.089-0.072-0.133-0.308-0.425
			c-0.233-0.291-1.213-2.116-1.591-2.466c-0.381-0.351-1.344-0.468-2.307-0.482c-1.021-0.379-1.109-1.591-1.241-2.637
			c0.033,0.106,0.093,0.199,0.164,0.294c0.182,0.553,0.472,1.207,0.751,1.701c0.455,0.802,1.631,0.32,1.925,0.4
			s0.535-0.188,1.551,0.828c1.123,0.588,1.255-0.128,1.255-0.128c0.033,0.013,0.066,0.024,0.105,0.038
			c0.862-0.569,1.635-0.512,2.059-0.468c1.357,0.176,1.563-0.231,1.795-0.292c0.234-0.058,0.892-0.598,1.256,0.161
			c-0.072-0.029-0.364-0.24-0.73,1.248c0,0-0.369-0.628-0.798,0.285c-0.435-0.188-0.28-0.817-0.778,0.599
			C45.429,31.826,45.604,31.564,44.318,32.878z M39.03,26.742c0.489,0.271,0.801,0.186,1.079,0.106
			c0.085,0.255,0.078,0.292,0.078,0.292c-0.758,0.416-1.506-0.104-1.674-0.331c-0.273-0.258-0.392-1.146-0.12-1.852l0.395,0.276
			C38.729,25.6,38.436,26.314,39.03,26.742z M39.4,26.395c0.16,0.124,0.408,0.124,0.444,0.124s0.292,0.132-0.08,0.198
			c-0.335,0.044-0.532-0.066-0.681-0.279c-0.146-0.21-0.093-0.486,0.089-0.801L39.4,25.87C39.4,25.87,39.123,26.228,39.4,26.395z
			 M41.438,28.375c0.107-1.39,0.535-0.989,0.643-0.695c0.106,0.294,0.133,1.631,0,1.792c-0.134,0.16-0.401,0.48-0.401,0.48
			S41.331,29.766,41.438,28.375z M45.19,25.476c0,0,0-0.059,0.515-0.312c0.127,0.254,0.225,0.429,0.234,0.964
			c0.01,0.534-0.49,1.049-1.188,1.051c-1.042,0.004-1.313-0.836-1.313-0.836l0.399-0.263c0.049,0.155,0.228,0.552,0.402,0.659
			c0.175,0.106,0.486,0.118,0.788-0.008c0.301-0.126,0.436-0.537,0.416-0.752C45.423,25.766,45.355,25.759,45.19,25.476z
			 M44.518,27.521c1.027,0,1.578-0.671,1.715-1.129c0.136-0.457,0.067-1.054-0.304-1.44c0.36-0.195,0.312-0.165,0.322-0.156
			c0.467,0.856,0.534,2.473-0.536,2.997c-0.914,0.341-1.266,0.341-2.48-0.788c-0.155-0.252-0.243-0.379-0.243-0.379l0.203-0.146
			C43.194,26.479,43.894,27.521,44.518,27.521z M48.207,38.254c-0.728,0.82-3.27,2.627-3.27,2.627s0.467-0.525,1.012-1.206
			c1.615-1.558,2.258-4.771,2.55-7.085c0.038-0.156,0.117,0.079,1.361,0.837c-0.231-0.643-0.544-2.22-0.582-2.765
			c-0.04-0.546,0.271-2.16,0.291-4.983c0.02-2.821-1.596-4.729-2.491-5.761c0.155,0.35,0.136,0.312-0.02,1.362
			c-0.623-0.74-2.92-1.44-4.633-1.382c-2.921,0.098-3.582,1.576-3.756,1.42c-0.175-0.155-0.195-0.232-0.272-2.141
			c-2.608,2.395-2.374,7.727-2.569,8.564c-0.193,0.838-0.7,0.991-0.914,1.323c-0.838-0.332-3.406-0.622-4.886-1.652
			c-1.44-1.286-0.739-3.136-0.02-3.676c0.312-0.199,1.46-0.627,2.16,1.047c0.194-1.363-0.993-2.92-2.997-2.258
			c-1.518-2.278,2.851-5.165,4.828-6.06c3.643-1.649,6.87-0.981,7.298-0.977c-2.805-0.642-5.101-0.851-8.292,0.454
			c0.701-0.428,2.057-1.383,3.445-1.71c2.022-0.478,5.274-0.456,7.318,0.518c2.045,0.973,4.106,2.059,6.015,4.803
			c1.436,2.066,1.946,4.854,2.062,6.45c0.119,1.596-0.213,3.827-0.603,5.989C50.854,34.153,49.045,37.307,48.207,38.254z"/>
	</g>
</g>
<g id="Layer_2_1_">
	<g>
		<path fill="#E84A5F" d="M-59.225,19.841v2.702h-5.09v2.711h3.817v2.702h-3.817v2.702h5.09v2.711h-5.09h-2.553V19.841H-59.225z"/>
		<path fill="#E84A5F" d="M-55.757,19.841l2.166,4.028l2.166-4.028h2.932l-3.636,6.756l3.636,6.772h-2.932l-2.166-4.037
			l-2.166,4.037l-2.925-0.009l3.62-6.764l-3.62-6.756H-55.757z"/>
		<path fill="#E84A5F" d="M-38.37,21.788c1.265,1.343,1.897,2.954,1.897,4.834c0,1.88-0.632,3.492-1.897,4.826
			s-2.782,2.006-4.553,2.006s-3.288-0.672-4.545-2.006s-1.889-2.945-1.889-4.826c0-1.88,0.632-3.491,1.889-4.834
			s2.774-2.014,4.545-2.014S-39.635,20.445-38.37,21.788z M-45.65,23.709c-0.75,0.806-1.13,1.771-1.13,2.896
			c0,1.133,0.379,2.098,1.13,2.895c0.751,0.798,1.66,1.2,2.727,1.2c1.059,0,1.968-0.402,2.727-1.2
			c0.759-0.797,1.138-1.762,1.138-2.895c0-1.125-0.379-2.09-1.138-2.896s-1.668-1.208-2.727-1.208
			C-43.99,22.501-44.899,22.904-45.65,23.709z"/>
		<path fill="#E84A5F" d="M-29.742,19.799c0.885,0,1.715,0.176,2.498,0.537c0.782,0.361,1.47,0.848,2.063,1.46L-27,23.727
			c-0.767-0.806-1.675-1.208-2.727-1.208c-1.067,0-1.976,0.403-2.727,1.208s-1.13,1.771-1.13,2.895c0,1.133,0.379,2.098,1.13,2.895
			c0.751,0.798,1.66,1.2,2.727,1.2c0.838,0,1.588-0.251,2.245-0.764c0.656-0.512,1.123-1.166,1.391-1.963h-3.644v-2.728h3.644h1.494
			h1.17c0.087,0.428,0.126,0.881,0.126,1.359c0,1.88-0.632,3.492-1.897,4.826s-2.782,2.006-4.553,2.006s-3.288-0.672-4.545-2.006
			s-1.889-2.945-1.889-4.826c0-1.88,0.632-3.491,1.889-4.834s2.774-2.014,4.545-2.014L-29.742,19.799z"/>
		<path fill="#E84A5F" d="M-15.052,19.841v2.702h-5.09v2.711h3.817v2.702h-3.817v2.702h5.09v2.711h-5.09h-2.553V19.841H-15.052z"/>
		<path fill="#E84A5F" d="M-6.549,27.318v-7.478h2.553v13.78l-7.643-7.738v7.486h-2.553v-13.78L-6.549,27.318z"/>
		<path fill="#E84A5F" d="M-3.058,19.841h2.553v13.528h-2.553V19.841z"/>
		<path fill="#E84A5F" d="M4.213,30.684c0.703,0,1.288-0.621,1.288-1.368c0-0.579-0.213-0.948-0.648-1.116
			c-0.917-0.361-0.696-0.277-1.589-0.604c-0.94-0.344-1.81-1.024-2.395-1.872c-0.348-0.503-0.521-1.125-0.521-1.872
			c0-1.125,0.379-2.089,1.138-2.895s1.668-1.208,2.735-1.208c1.059,0,1.968,0.403,2.727,1.208s1.138,1.771,1.138,2.895H5.518
			c0-0.738-0.585-1.359-1.281-1.359c-0.704,0-1.288,0.621-1.288,1.368c0,0.486,0.182,0.856,0.553,1.107
			c0.759,0.521,0.672,0.42,1.581,0.705c0.98,0.302,1.866,0.948,2.474,1.779c0.355,0.487,0.538,1.116,0.538,1.879
			c0,1.134-0.379,2.099-1.138,2.904s-1.668,1.208-2.727,1.208c-1.067,0-1.976-0.402-2.735-1.208s-1.138-1.771-1.138-2.904h2.577
			c0,0.756,0.577,1.368,1.289,1.368L4.213,30.684z"/>
		<path fill="#E84A5F" d="M14.518,19.841h3.186v2.702h-3.186v10.826h-2.553V22.543H8.78v-2.702h3.186H14.518z"/>
	</g>
</g>
</svg>
