<?xml version="1.0" encoding="utf-8"?>
<!-- Generator: Adobe Illustrator 16.0.0, SVG Export Plug-In . SVG Version: 6.00 Build 0)  -->
<!DOCTYPE svg PUBLIC "-//W3C//DTD SVG 1.1//EN" "http://www.w3.org/Graphics/SVG/1.1/DTD/svg11.dtd">
<svg version="1.1" id="Layer_1" xmlns="http://www.w3.org/2000/svg" xmlns:xlink="http://www.w3.org/1999/xlink" x="0px" y="0px" width="56px" height="56px" viewBox="0 0 56 56" enable-background="new 0 0 56 56" xml:space="preserve">
<g>
	<g>
		<linearGradient id="SVGID_1_" gradientUnits="userSpaceOnUse" x1="1.771" y1="28.0239" x2="54.4336" y2="28.0239">
			<stop  offset="0" style="stop-color:#E84A5F"/>
			<stop  offset="1" style="stop-color:#FF847C"/>
		</linearGradient>
		<path fill="url(#SVGID_1_)" d="M49.769,12.806c-3.936-4.599-4.708-4.987-6.323-6.033c-1.614-1.046-5.302-2.548-7.327-3.095
			c-2.023-0.546-8.008-0.34-12.49,1.797c-4.483,2.139-7.964,4.938-9.375,6.689c-1.41,1.752-4.144,5.613-4.55,10.717
			c-0.41,5.142,0.591,8.828,3.255,11.051c1.908,1.593,6.528,5.512,12.603,1.28c1.365-0.887,1.274-1.115,1.274-1.115l2.48,0.638
			c-4.301,3.253-8.168,5.461-13.424,3.23c-5.255-2.229-7.749-8.235-7.839-11.703c-0.092-3.465,0.286-6.793,1.628-9.433
			c1.343-2.639,3.799-6.553,8.1-9.556s9.783-5.097,16.176-4.368c0.52-0.106,1.64-0.44,2.063-1.865
			c-2.641,1.244-5.406,0.152-7.918,0.152C13.56,1.192,1.771,13.239,1.771,28.1c0,14.862,11.789,26.908,26.332,26.908
			c14.543,0,26.331-12.046,26.331-26.908C54.434,22.418,52.71,17.148,49.769,12.806z M7.443,35.775
			c2.731,5.188,7.463,7.493,11.922,8.918c5.583,0.638,8.949-2.579,9.86-3.368c0.909-0.787,1.911-0.272,0.938,0.789
			c-0.969,1.063-6.915,4.43-10.677,3.793C8.566,43.236,6.625,34.622,6.625,34.622S6.928,35.076,7.443,35.775z M5.684,40.566
			c0,0,0.428,0.578,2.305,2.308c4.409,4.945,9.102,6.369,15.139,6.703c8.766-0.547,7.675-4.156,10.405-4.884
			c0.213,2.821-4.975,6.401-9.769,7.19C14.452,53.036,5.684,40.566,5.684,40.566z M36.688,46.969
			c-1.82,3.307-5.035,6.885-13.924,6.158c6.34-0.94,7.869-0.971,11.671-6.825c1.768-4.611,1.678-6.22,1.646-7.221
			c-0.03-1.001-0.484-3.428-2.458-5.217c-1.516-0.881-2.092-0.547-2.606-0.486c-0.516,0.062-3.008,0.091-3.672-2.396
			c0.758-2.184,0.758-1.972,0.758-1.972s-1.396,3.793,3.429,3.793c1.577,0.119,2.351,0,3.177,1.303
			c0.826,1.304,2.04,5.369,1.979,6.461c1.062-2.335,1.333-2.517,1.456-2.578C38.601,41.325,38.507,43.66,36.688,46.969z
			 M40.032,36.101c0,0,0.205-1.07-0.773-1.684c0,0-0.547,0.706-1.865,3.05c-0.068-0.139-0.113-0.206-0.478-0.662
			c-0.365-0.454-1.89-3.299-2.481-3.843c-0.593-0.547-2.093-0.73-3.595-0.753c-1.592-0.59-1.729-2.479-1.934-4.109
			c0.137,0.439,0.501,0.72,0.998,1.334c0.267-0.022,0.572,0.228,0.413-0.614c-2.502-2.913-0.659-8.486,0.272-10.102
			c-0.022,1.775,2.458,2.739,3.413,4.254c0.705,1.684,1.479,2.685,1.479,2.685s0.41,0.274,0.524,0
			c0.112-0.271,0.545-0.728,1.454-1.478c0.912-0.751,2.413-1.684,3.392-2.185c1.806-0.688,3.437-1.115,4.391-3.276
			c0.82,1.161,1.502,4.732,1.093,8.145c-0.41,3.413-1.244,3.815-4.437,4.687c-1.002-0.362-2.254-0.316-4.028,0.523
			c-0.183,0.114-1.524,0.412,0,0.911c1.344-0.886,2.549-0.797,3.209-0.729c2.116,0.274,2.435-0.362,2.798-0.456
			c0.365-0.089,1.389-0.932,1.957,0.251c-0.113-0.045-0.568-0.374-1.138,1.945c0,0-0.577-0.98-1.245,0.447
			c-0.675-0.294-0.438-1.276-1.212,0.931C41.762,34.463,42.036,34.054,40.032,36.101z M46.092,44.48
			c-1.133,1.28-5.096,4.095-5.096,4.095s0.728-0.818,1.577-1.88c2.518-2.427,3.519-7.433,3.974-11.042
			c0.061-0.244,0.183,0.122,2.123,1.304c-0.362-1.001-0.848-3.459-0.909-4.309c-0.061-0.85,0.425-3.367,0.455-7.766
			c0.03-4.398-2.487-7.371-3.883-8.979c0.242,0.545,0.212,0.485-0.03,2.123c-0.972-1.153-4.552-2.245-7.221-2.154
			c-4.552,0.152-5.583,2.457-5.855,2.214c-0.273-0.242-0.303-0.363-0.424-3.337c-4.065,3.732-3.701,12.043-4.004,13.349
			c-0.303,1.306-1.092,1.547-1.426,2.063c-1.305-0.516-5.309-0.97-7.614-2.576c-2.246-2.005-1.153-4.888-0.031-5.729
			c0.485-0.31,2.275-0.978,3.367,1.631c0.304-2.124-1.547-4.55-4.671-3.519c-2.366-3.55,4.442-8.049,7.524-9.445
			C29.645,7.944,34.692,9,35.332,9c-0.001,0-0.003,0-0.006,0C30.953,8,27.375,7.674,22.4,9.707c1.092-0.668,3.205-2.155,5.369-2.666
			c3.153-0.744,8.221-0.711,11.407,0.807c3.187,1.517,6.4,3.209,9.375,7.486c2.237,3.22,3.033,7.566,3.213,10.054
			c0.184,2.486-0.332,5.965-0.94,9.334C50.218,38.09,47.399,43.005,46.092,44.48z"/>
		<linearGradient id="SVGID_2_" gradientUnits="userSpaceOnUse" x1="35.332" y1="8.418" x2="35.4004" y2="8.418">
			<stop  offset="0" style="stop-color:#E84A5F"/>
			<stop  offset="1" style="stop-color:#FF847C"/>
		</linearGradient>
		<path fill="url(#SVGID_2_)" d="M35.332,8.412C35.425,8.43,35.422,8.427,35.332,8.412L35.332,8.412z"/>
	</g>
	<linearGradient id="SVGID_3_" gradientUnits="userSpaceOnUse" x1="36.6875" y1="26.2627" x2="44.7266" y2="26.2627">
		<stop  offset="0" style="stop-color:#E84A5F"/>
		<stop  offset="1" style="stop-color:#FF847C"/>
	</linearGradient>
	<path fill="url(#SVGID_3_)" d="M44.649,29.434c-0.515,0-0.212-0.212-0.56-0.576c0.5-1.623,0.441-4.763-0.181-5.627
		c0.561-0.865,0.044-1.123,0-1.046c-0.047,0.076-0.774,0.516-1.655,0.985c-0.074,0-0.729-0.273-2.214,0.896
		c-2.744,2.047-3.353,1.819-3.353,1.819s1.032,3.216,2.306,3.777C43.044,31.345,45.167,29.434,44.649,29.434z M39.281,25.506
		c0.076,0.242,0.354,0.86,0.627,1.027c0.271,0.166,0.758,0.185,1.229-0.012c0.469-0.196,0.678-0.837,0.647-1.172
		c-0.031-0.333-0.136-0.344-0.394-0.785c0,0,0-0.091,0.803-0.485c0.197,0.395,0.348,0.668,0.365,1.502
		c0.015,0.833-0.764,1.635-1.852,1.638c-1.624,0.006-2.048-1.304-2.048-1.304L39.281,25.506z M42.208,28.175
		c-1.424,0.531-1.971,0.531-3.865-1.228c-0.244-0.394-0.38-0.591-0.38-0.591l0.317-0.228c0,0,1.089,1.623,2.063,1.623
		c1.601,0,2.458-1.046,2.67-1.76c0.214-0.712,0.107-1.642-0.472-2.245c0.563-0.304,0.487-0.257,0.503-0.243
		C43.771,24.839,43.877,27.357,42.208,28.175z"/>
	<linearGradient id="SVGID_4_" gradientUnits="userSpaceOnUse" x1="29.9023" y1="25.9443" x2="34.708" y2="25.9443">
		<stop  offset="0" style="stop-color:#E84A5F"/>
		<stop  offset="1" style="stop-color:#FF847C"/>
	</linearGradient>
	<path fill="url(#SVGID_4_)" d="M34.663,25.851c0,0-0.581,0.125-0.784-0.125c-0.205-0.251-1.149-2.923-3.355-3.869
		c-0.514,0.194-0.332,0.091-0.398,0.228c-0.15,0.626-0.377,3.311-0.07,4.551c0.513,1.296,0.865,1.831,1.014,2.354
		c0.033,0.571,0,1.309,1.023,0.945S35.026,27.569,34.663,25.851z M32.012,24.816l0.354,0.363c0,0-0.433,0.557,0,0.818
		c0.249,0.193,0.637,0.193,0.693,0.193s0.455,0.206-0.126,0.308c-0.521,0.069-0.83-0.103-1.058-0.434
		C31.648,25.737,31.728,25.305,32.012,24.816z M33.593,27.159c-1.182,0.648-2.347-0.163-2.608-0.516
		c-0.426-0.401-0.612-1.786-0.189-2.886l0.615,0.432c-0.092,0.569-0.547,1.683,0.378,2.35c0.763,0.421,1.248,0.289,1.681,0.165
		C33.604,27.101,33.593,27.159,33.593,27.159z"/>
	<linearGradient id="SVGID_5_" gradientUnits="userSpaceOnUse" x1="34.4326" y1="29.8232" x2="36.2207" y2="29.8232">
		<stop  offset="0" style="stop-color:#E84A5F"/>
		<stop  offset="1" style="stop-color:#FF847C"/>
	</linearGradient>
	<path fill="url(#SVGID_5_)" d="M35.399,27.234c0,0,0.789,0.107,0.818,2.063c0.03,1.062-0.228,1.791-0.41,2.155
		c-0.03,0.393-0.287,1.015-0.591,0.956c-0.304-0.062-0.547-1.541-0.638-2.053c-0.092-0.512-0.335-1.574,0.129-2.407"/>
</g>
</svg>
