<?xml version="1.0" encoding="utf-8"?>
<!-- Generator: Adobe Illustrator 16.0.0, SVG Export Plug-In . SVG Version: 6.00 Build 0)  -->
<!DOCTYPE svg PUBLIC "-//W3C//DTD SVG 1.1//EN" "http://www.w3.org/Graphics/SVG/1.1/DTD/svg11.dtd">
<svg version="1.1" xmlns="http://www.w3.org/2000/svg" xmlns:xlink="http://www.w3.org/1999/xlink" x="0px" y="0px"
	 width="118.333px" height="107.667px" viewBox="-4.5 -58.833 118.333 107.667"
	 enable-background="new -4.5 -58.833 118.333 107.667" xml:space="preserve">
<g id="Layer_4" display="none">
	<linearGradient id="SVGID_1_" gradientUnits="userSpaceOnUse" x1="4.2153" y1="28.249" x2="43.3008" y2="28.249">
		<stop  offset="0" style="stop-color:#FFFFFF"/>
		<stop  offset="1" style="stop-color:#B7D1D7"/>
	</linearGradient>
	<path display="inline" fill="url(#SVGID_1_)" d="M26.065,32.937L27.75,28c0,0,1.5,0.25,3,1s4.25,1.063,4.75,1.469
		s2,1.654,2.625,2.468S39.506,33.405,40,34.07s1.375,0.555,2,1.68s1.875,4.25,1,6.625s-2,6.375-2.625,7.125
		s-8.975,5.415-10.613,5.456C28.124,54.997,24,54,23.5,53.75s-7.744-1.997-7.744-1.997s-4.015-2.327-4.251-3.378S9.125,46,8.5,44.75
		s-2.875-5.875-3.625-9s-1-6,0-12.25S5,17.456,8.25,13.228s7.25-7.103,9-8.228s8.909-2.596,8.815-3.25s7.725,0.237,11.06,2.539
		S28.5,20.625,28.5,20.625l-3.75,7.624l-0.992,5.806L26.065,32.937z"/>
</g>
<g id="Layer_3">
</g>
<g id="Layer_8" display="none">
	<path display="inline" fill="#2F4B4F" d="M29.937,21.894c-0.163,1.63-0.472,3.196-1.198,4.565
		c-0.288,0.543-0.875,0.688-1.387,0.542c-0.159,3.139,0.53,5.83,2.841,6.857c0.388,0.172,0.737,0.027,0.896-0.364
		c0.893-2.208,0.891-4.643,1.028-6.995c0.101-1.723,0.404-3.402,0.868-5.032C32.299,22.533,30.767,22.656,29.937,21.894z"/>
	<path display="inline" fill="#2F4B4F" d="M17.436,35.157c-0.064-0.04-0.128-0.081-0.192-0.122c-0.128-0.081-0.29,0.081-0.208,0.209
		c0.041,0.063,0.082,0.128,0.123,0.191C17.337,35.716,17.716,35.336,17.436,35.157z"/>
	<path display="inline" fill="#2F4B4F" d="M54.269,54.966c0.003-0.003,0.005-0.007,0.008-0.01c-0.134-0.033-0.267-0.062-0.4-0.092
		c-0.009-0.001-0.018-0.005-0.027-0.006c-1.936-0.438-3.854-0.604-5.732-1.341c-3.617-1.42-6.887-4.545-9.566-7.296
		c-1.111-1.141-2.867-3.731-4.818-5.346c0.175-0.302,0.243-0.676,0.167-1.095c-0.047-0.261-0.086-0.525-0.154-0.782
		c-0.084-0.318-0.289-0.61-0.425-0.908c-0.004,0.006-0.009,0.012-0.013,0.017c-0.274-0.454-0.842-0.638-1.331-0.494
		c-0.339-0.137-0.72-0.136-1.11,0.051c-0.75,0.357-0.786,1.168-0.604,1.88c-0.134,0.021-0.267,0.035-0.399,0.077
		c-0.417,0.134-0.904,0.495-0.969,0.969c-0.341,2.514-3.404,5.14-4.986,7.027c0,0-0.001,0.001-0.002,0.002
		c-3.218,1.637-5.486,4.974-7.989,7.463c-3.175,3.158,0.83,7.261,4.429,5.741c0.049-0.021,0.089-0.052,0.137-0.074
		c0.723,0.13,1.523-0.036,2.338-0.636c1.719-1.265,2.927-2.619,4.101-4.193c0.524,0.219,1.106,0.217,1.594-0.134
		c0.148,0.454,0.333,0.883,0.564,1.268c0.749,1.245,2.751,1.614,3.78,0.569c0.05,0.041,0.095,0.088,0.146,0.127
		c0.314,0.236,0.74,0.278,1.148,0.188c0.281,0.442,0.57,0.877,0.885,1.293c1.604,2.125,5.182,2.082,6.142-0.276
		c0.715-0.409,1.321-1.044,1.688-1.805c0.269-0.341,0.479-0.716,0.622-1.115c3.748,3.196,7.877,5.308,11.334,3.112
		C56.796,57.895,55.819,55.535,54.269,54.966z"/>
</g>
<g id="Layer_9">
</g>
<g id="Layer_10" display="none">
	<path display="inline" fill="#2F4B4F" d="M40.582,52.621c-2.074-7.575-3.488-15.199-6.81-22.657
		c-1.921,7.124-0.375,14.981,2.186,23.005C37.491,52.825,39.015,52.682,40.582,52.621z"/>
</g>
<g id="Layer_11" display="none">
	<path display="inline" fill="#2F4B4F" d="M38.151,41.624c-0.075-0.179-0.361-0.115-0.301,0.084c0.632,2.095,1.63,4.096,2.486,6.109
		c1.062,2.496,1.821,5.622,3.479,7.791c0.145,0.189,0.447,0.085,0.393-0.165C43.129,50.449,40.094,46.25,38.151,41.624z"/>
	<path display="inline" fill="#2F4B4F" d="M45.712,53.315c-1.578-4.11-3.188-8.88-6.101-12.26c-0.103-0.119-0.308,0.007-0.261,0.152
		c3.025,9.365,8.068,17.957,11.537,27.156c0.053,0.139,0.27,0.085,0.227-0.063C49.663,63.309,47.577,58.178,45.712,53.315z"/>
	<path display="inline" fill="#2F4B4F" d="M44.549,58.986c-0.022-0.06-0.119-0.033-0.096,0.027c0.316,0.82,0.516,1.679,0.833,2.5
		c0.022,0.06,0.119,0.033,0.096-0.027C45.065,60.666,44.866,59.808,44.549,58.986z"/>
	<path display="inline" fill="#2F4B4F" d="M54.905,71.385c-0.141,0.09-0.282,0.178-0.423,0.267
		c-0.056-0.009-0.117-0.017-0.183-0.024c-0.27-0.716-0.52-1.447-0.755-2.188c0.268,0.402,0.545,0.796,0.846,1.172
		c0.104,0.13,0.294-0.013,0.261-0.152c-0.381-1.624-0.807-3.226-1.284-4.803c0.252,0.441,0.511,0.875,0.781,1.286
		c0.118,0.181,0.39,0.108,0.4-0.108c0.146-3.058-1.913-6.24-2.648-9.202c-0.741-2.986-3.516-5.436-4.958-8.183
		c-0.492-2.146-1.642-4.007-2.655-5.929c-0.162-0.344-0.324-0.688-0.474-1.039c0.098,0.008,0.203-0.072,0.171-0.189
		c-0.059-0.214-0.135-0.417-0.2-0.626c0.054,0.014,0.102,0.031,0.16,0.042c0.101,0.019,0.184-0.013,0.242-0.099
		c0.723-1.055-1.063-2.884-1.923-3.646c-1.132-2.269-2.465-4.429-3.46-6.79c0.409-0.981,0.559-2.089,0.518-3.222
		c-0.042-1.141-0.151-2.208-0.606-3.267c-0.138-0.319-0.605-1.053-0.975-1.747c0.191-1.193-0.138-2.329-1.154-3.058
		c-0.494-0.354-1.074-0.261-1.524,0.045c-0.791-0.64-1.702-0.894-2.708-0.501c-0.868,0.339-1.54,0.992-2.032,1.81
		c-0.389,0.251-0.733,0.575-1.032,0.96c-0.236,0.206-0.465,0.427-0.684,0.665c-2.339,2.541-3.861,9.852,0.83,10.638
		c0.097,0.091,0.199,0.176,0.303,0.259c0.01,0.009,0.017,0.019,0.026,0.027c0.671,0.613,1.547,0.913,2.425,1.086
		c0.195,0.641,0.386,1.3,0.572,1.975c-0.437-0.605-0.929-1.181-1.244-1.852c-0.011-0.023-0.044-0.003-0.033,0.02
		c0.337,0.747,0.924,1.3,1.317,2.009l0.018,0.032c1.267,4.596,2.51,9.743,5.794,12.836c0.099,0.093,0.235,0.095,0.349,0.048
		c0.613,1.401,1.292,2.783,2.019,4.115c0.286,1.047,1.195,2.019,1.715,2.95c0.913,1.637,1.351,3.547,2.188,5.235
		c0.028,0.057,0.081,0.067,0.132,0.059c0.896,2.229,2.188,4.264,2.968,6.544c0.008,0.024,0.044,0.015,0.037-0.01
		c-0.663-2.549-2.028-4.86-2.964-7.315c-0.534-1.4-0.901-3.04-1.464-4.529c0.167-0.069,0.291-0.29,0.196-0.485
		c-0.737-1.525-1.438-3.126-2.163-4.728c-0.428-1.351-0.972-2.652-1.514-3.963c-0.771-1.866-2.006-3.482-2.737-5.364
		c-0.098-0.253-0.499-0.155-0.414,0.113c0.084,0.27,0.196,0.525,0.298,0.786c-0.169-0.234-0.342-0.467-0.491-0.719
		c-0.286-0.481-0.361-0.971-0.403-1.473c0.077-0.009,0.152-0.015,0.232-0.035c0.89-0.229,0.996-1.746,0-1.9
		c-0.016-0.003-0.021-0.004-0.036-0.007c-0.042-0.142-0.081-0.282-0.117-0.426c0-0.002,0.227-0.514,0.156-0.718
		c-0.257-0.742-0.578-1.262-1.152-1.805c-0.552-0.52-1.118-0.989-1.63-1.55c-0.041-0.045-0.084-0.083-0.125-0.125
		c0.534-0.085,1.103-0.309,1.711-0.74c0.393,0.123,0.842,0.089,1.299-0.195c0.863-0.537,1.471-1.248,1.89-2.056
		c0.009,0.044,0.023,0.086,0.032,0.13c-0.849,1.589-0.165,4.717,0.687,6.171c0.566,0.966,1.871,1.364,2.631,2.194
		c0.438,0.479,0.723,0.93,1.137,1.242c0.076,0.131,0.15,0.261,0.226,0.392c-0.046,0.017-0.086,0.058-0.086,0.109
		c0.006,1.632,0.741,2.848,1.241,4.343c0.201,0.603,0.399,1.197,0.63,1.771c-0.017,0.021-0.026,0.048-0.015,0.079
		c1.5,3.888,2.871,7.929,4.062,11.93c1.02,3.427,1.382,7.442,3.347,10.485c0.141,0.217,0.426,0.068,0.393-0.165
		c-0.031-0.223-0.079-0.447-0.113-0.67c0.243,0.759,0.521,1.494,0.845,2.161c-0.355,0.205-0.691,0.489-1.074,0.574
		c-0.005,0.001-0.008,0.004-0.013,0.006c-0.122-0.139-0.261-0.557-0.328-0.687c-0.326-0.625-0.663-1.206-0.953-1.86
		c-0.684-1.544-1.701-2.929-2.347-4.483c-0.028-0.067-0.139-0.042-0.113,0.031c0.411,1.168,1.01,2.304,1.583,3.399
		c0.355,0.68,0.592,1.4,0.754,2.146c0.123,0.567,0.815,1.094,1.031,1.658c0.014,0.036,0.043,0.05,0.065,0.072
		c-0.009,0.023-0.02,0.047-0.025,0.072c-0.362-0.384-0.924-0.739-1.082-0.843c-0.691-0.453-1.393-0.846-2.003-1.41
		c-0.406-0.377-0.732-0.813-1.169-1.146c-0.009-0.025-0.013-0.054-0.038-0.066c-0.044-0.021-0.087-0.041-0.131-0.063
		c-0.115-0.056-0.302,0.008-0.285,0.164c0.107,1.042,0.941,2.36,1.807,2.946c0.427,0.289,0.858,0.602,1.295,0.896
		c0.359,0.302,0.826,0.672,1.286,0.604c0.03-0.005,0.037-0.036,0.052-0.06c0.14-0.016,0.276-0.051,0.397-0.134
		c0.026-0.018,0.028-0.041,0.049-0.06c0.687-0.088,1.304-0.325,1.9-0.618c0.262,0.375,0.546,0.707,0.862,0.966
		c0.052,0.043,0.121-0.009,0.092-0.07c-0.169-0.353-0.31-0.729-0.464-1.095c0.434-0.054,0.836-0.252,0.913-0.738
		C55.733,71.557,55.328,71.116,54.905,71.385z M34.041,36.209c0.325,0.418,0.67,0.817,0.959,1.264
		c0.141,0.216,0.106,0.353,0.006,0.496c-0.255-0.345-0.507-0.692-0.804-1.004c-0.044-0.047-0.115,0.023-0.07,0.07
		c0.3,0.314,0.554,0.666,0.812,1.014c-0.073,0.089-0.159,0.185-0.254,0.311c-0.108,0.146-0.149,0.351-0.166,0.569
		c-0.372-0.897-0.749-1.795-1.15-2.682c0.039,0.038,0.078,0.082,0.118,0.103c0.424,0.223,0.815,0.499,1.162,0.83
		c0.019,0.018,0.046-0.01,0.027-0.027c-0.29-0.277-0.609-0.51-0.953-0.718c-0.15-0.091-0.283-0.205-0.414-0.319
		c-0.072-0.159-0.143-0.319-0.216-0.478c-0.081-0.215-0.16-0.43-0.245-0.643c-0.009-0.023-0.044-0.015-0.037,0.01
		c0.005,0.02,0.011,0.038,0.016,0.058c-0.08-0.17-0.165-0.336-0.246-0.504c0.18,0.046,0.367,0.064,0.559,0.072
		C33.52,35.084,33.719,35.794,34.041,36.209z M47.137,51.93c-0.271-0.599-0.539-1.2-0.818-1.785
		c0.104,0.129,0.207,0.258,0.322,0.382c0.059,0.063,0.123,0.082,0.186,0.081c1.138,2.384,2.919,4.619,3.528,7.131
		C49.421,55.748,48.359,53.809,47.137,51.93z"/>
</g>
<g id="Layer_12" display="none">
	<path display="inline" fill="#706072" d="M34.152,5.275c-2.146-1.714-5.396-0.25-7.69,0.389c-0.384,0.107-0.799,0.197-1.227,0.283
		c-0.006-0.004-0.009-0.007-0.015-0.011c-2.014-1.18-4.635,0.954-6.56,2.956c-0.113-0.011-0.231-0.012-0.357,0.008
		c-0.436,0.07-0.854,0.254-1.254,0.518c-0.195-0.226-0.436-0.419-0.772-0.525c-1.907-0.603-4.383,1.445-5.932,2.375
		c-1.654,0.993-3.41,2.825-3.567,4.817c-0.06,0.757,0.29,1.314,0.805,1.646c-0.502,0.85-0.982,1.836-1.422,2.917
		c-0.517-0.052-1.046,0.14-1.266,0.658c-1.026,2.426-0.985,4.875-0.781,7.339c-0.292,2.601-0.18,5.114,0.55,7.08
		c0.549,1.479,2.763,1.343,2.874-0.293c0.128,0.508,0.26,0.996,0.408,1.428c0.285,0.832,0.975,1.078,1.577,0.914
		C9.53,37.517,9.536,37.259,9.528,37c-0.027-0.842,1.185-0.797,1.277,0c0.013,0.107,0.025,0.216,0.038,0.323
		c0.001,0.009-0.004,0.016-0.004,0.023c0.11,0.046,0.21,0.135,0.268,0.282c0.035,0.088,0.094,0.161,0.154,0.233
		c0.217-0.018,0.432-0.063,0.63-0.158c0.389,0.282,0.786,0.572,1.188,0.861c0.821,0.999,1.684,1.977,2.701,2.501
		c0.485,0.25,0.964,0.223,1.345,0.024c0.063,0.03,0.128,0.053,0.192,0.082c0.186,0.16,0.417,0.254,0.663,0.305
		c0.067,0.041,0.143,0.056,0.228,0.044c0.015,0,0.027,0.008,0.042,0.008h0.167c0.052,0,0.093-0.015,0.141-0.02
		c0.064,0.015,0.131,0.019,0.203,0c0.022-0.006,0.041-0.018,0.062-0.025c0.054,0.227,0.186,0.429,0.401,0.524
		c0.066,0.029,0.132,0.06,0.198,0.089c0.24,0.107,0.448,0.146,0.625,0.135c0.028,0.02,0.052,0.043,0.081,0.063
		c0.176,0.119,0.356-0.05,0.352-0.228c0.117-0.097,0.195-0.229,0.248-0.376c-0.267-0.335-0.43-0.747-0.44-1.193
		c-0.276-0.006-0.545-0.049-0.806-0.146c-0.002-0.109-0.058-0.212-0.199-0.273c-0.491-0.213-0.821-0.657-1.313-0.869
		c-0.053-0.022-0.108-0.032-0.163-0.035c-1.081-1.098-2.015-2.598-2.854-3.425c-1.663-1.64-3.47-4.182-4.145-6.771
		c-0.018-0.004-0.03-0.014-0.049-0.016c-0.007-0.077-0.008-0.159-0.014-0.237c-0.219-0.947-0.282-1.897-0.123-2.809
		c-0.022-2.074,0.107-4.222,0.478-6.3c0.021,0.364,0.085,0.721,0.24,1.055C11.32,20.836,11.3,21,11.292,21.167
		c-0.116,2.282,2.948,2.319,3.683,0.499c0.15-0.371,0.264-0.773,0.304-1.178c0.025-0.127,0.041-0.21,0.034-0.187
		c0.312-1.168,1.381-2.394,2.031-3.402c1.152-1.788,2.833-3.523,4.435-4.916c0.565-0.491,2.137-1.444,3.265-2.519
		C25.363,9.43,25.682,9.398,26,9.359c0.794-0.098,1.57-0.259,2.35-0.435c0.608-0.154,1.217-0.299,1.83-0.436
		c0.311,0.041,0.563,0.065,0.786,0.082c0.724,0.618,1.848,0.691,2.7-0.07c0.163-0.146,0.331-0.288,0.486-0.442
		C34.849,7.365,34.989,5.944,34.152,5.275z"/>
</g>
<g id="Layer_13" display="none">
	<path display="inline" fill="#706072" d="M17.957,47.543c-2.394-2.467-5.855-3.627-8.527-5.724
		c-0.078-0.061-0.177,0.033-0.11,0.111c1.234,1.436,2.679,2.457,4.151,3.622c1.262,0.999,2.568,2.196,4.201,2.479
		C17.951,48.081,18.174,47.767,17.957,47.543z"/>
	<path display="inline" fill="#706072" d="M18.054,39.822c-0.422-0.742-1.143-1.326-1.779-1.889
		c-0.982-0.869-1.599-2.031-2.433-3.025c-1.026-1.224-1.987-2.475-2.943-3.754c-0.724-0.968-1.702-1.933-2.327-2.946
		c-0.058-0.093-0.185-0.012-0.144,0.084c0.051,0.119,0.103,0.239,0.154,0.358c0.023,0.054,0.104,0.015,0.091-0.039
		c0.192,0.793,0.456,1.578,0.773,2.351c-0.292-0.485-0.602-0.963-0.99-1.419c-0.063-0.073-0.208-0.017-0.197,0.082
		c-0.016,0.121-0.031,0.243-0.047,0.364c-0.013,0.037,0.04,0.067,0.065,0.038c0.302-0.346,0.111,0.088,0.364,0.47
		c0.525,0.792,0.889,1.7,1.373,2.521c0.631,1.07,1.624,2.447,2.727,3.158c1.3,1.622,3.04,3.924,5.009,4.175
		C18.026,40.387,18.172,40.031,18.054,39.822z"/>
	<path display="inline" fill="#706072" d="M27.273,41.997c-2.181-1.642-5.416-1.447-7.593-3.178
		c-0.077-0.061-0.182,0.036-0.11,0.111c1.796,1.871,4.917,3.557,7.555,3.612C27.443,42.55,27.489,42.159,27.273,41.997z"/>
	<path display="inline" fill="#706072" d="M31.931,51.101c-0.178,0.102-0.341,0.219-0.499,0.341
		c0.209-1.991,0.429-3.928,0.058-6.083c-0.248-1.442-0.538-2.872-0.851-4.296c0.115,0.892,0.249,1.788,0.201,2.656
		c-0.113,2.065-1.731,4.885-2.986,6.104c-0.012,0.012-0.021,0.025-0.032,0.038c-0.267-0.175-0.626-0.235-0.954-0.092
		c-0.385,0.17-0.414-0.002-0.667-0.311c-0.018-0.021-0.036-0.039-0.053-0.061c0.356,0.046,0.719,0.077,1.102,0.075
		c0.229-0.001,0.326-0.271,0.18-0.434c-0.953-1.051-2.412-1.021-3.675-1.529c-0.107-0.103-0.216-0.201-0.312-0.33
		c-0.041-0.055-0.155-0.047-0.146,0.039c0.004,0.039,0.015,0.075,0.02,0.114c-0.61-0.253-1.22-0.495-1.81-0.797
		c-0.16-0.082-1.263-0.543-1.509-0.425c-0.057-0.106-0.044-0.084-0.213-0.201c-0.048-0.034-0.12,0.021-0.101,0.077
		c0.092,0.261,0.25,0.492,0.44,0.704c-1.511-0.557-2.891-1.195-4.115-2.263c-0.497-0.434-1.102-1.086-1.732-1.464
		c-0.319-0.343-0.653-0.672-0.93-1.002c-0.604-0.719-1.151-1.514-1.942-2.045c-0.036-0.023-0.092,0.008-0.088,0.051
		c0.088,1.031,0.449,1.877,1.084,2.724c0.66,0.879,1.401,2.052,2.5,2.384h0.004c0.036,0.043,0.071,0.089,0.107,0.13
		c1.03,1.166,2.565,2.514,4.206,2.758c0.03,0.015,0.057,0.035,0.088,0.049c-0.021,0.001-0.034,0.001-0.057,0.003
		c-0.081,0.005-0.103,0.1-0.04,0.146c1.307,0.942,2.708,2.516,4.312,3.211c-0.134,0.015-0.256,0.075-0.365,0.152
		c-0.046-0.063-0.095-0.125-0.153-0.185c-0.33-0.335-0.676-0.52-1.102-0.71c-0.8-0.358-1.411-0.454-2.277-0.368
		c-0.304,0.03-0.418,0.332-0.235,0.566c0.884,1.13,2.19,1.783,3.604,1.691c0.395,0.735,1.158,0.716,1.954,0.425
		c0.342,0.158,0.705,0.248,1.09,0.342c0.298,0.073,0.585,0.115,0.868,0.141c0.405,0.229,0.819,0.405,1.24,0.394
		c0.158-0.005,0.33-0.037,0.496-0.058c-0.266,0.231-0.514,0.476-0.693,0.76c-0.041,0.064,0.06,0.121,0.102,0.059
		c0.218-0.323,0.524-0.598,0.854-0.849c0.062-0.01,0.116-0.009,0.178-0.021c0.244,0.069,0.496-0.021,0.733-0.178
		c0.121-0.033,0.237-0.077,0.357-0.113c0.039,0.009,0.074,0.026,0.115,0.03c0.309,0.032,0.641-0.021,0.968-0.128
		c0.037-0.521,0.088-1.03,0.14-1.537c0.212-0.164,0.431-0.319,0.674-0.449C32.225,51.254,32.085,51.013,31.931,51.101z
		 M22.332,49.695c-0.671-0.474-1.411-0.823-2.063-1.325c0.07,0.02,0.134,0.05,0.206,0.067c0.124,0.032,0.169-0.146,0.052-0.188
		c-0.215-0.078-0.432-0.162-0.647-0.247c0.276-0.015,0.551-0.353,0.351-0.616c-0.229-0.301-0.438-0.487-0.687-0.645
		c0.225,0.066,0.447,0.136,0.682,0.195c0.051,0.014,0.083-0.013,0.102-0.046c0.661,0.609,1.626,1.025,2.333,1.367
		c0.355,0.172,0.702,0.327,1.049,0.469c0.019,0.059,0.039,0.115,0.056,0.175c0.189,0.642,0.595,1.138,0.963,1.693
		c0.045,0.068,0.102,0.128,0.152,0.192C23.832,50.731,23.194,50.303,22.332,49.695z"/>
	<path display="inline" fill="#706072" d="M9.181,18.681c-0.164,0.203-0.306,0.424-0.437,0.656c0,0.001-0.001,0.001-0.001,0.002
		c0,0.001,0,0.001,0,0.002c-0.11,0.195-0.213,0.397-0.306,0.606c-1.663,2.19-2.009,5.649-1.568,8.214
		c0.026,0.153,0.274,0.116,0.269-0.036c-0.051-1.371-0.027-3.01,0.242-4.582c0.021-0.002,0.045-0.001,0.053-0.028
		c0.11-0.368,0.217-0.735,0.328-1.101c-0.167,1.194-0.164,2.415-0.06,3.46c0.014,0.136,0.125,0.18,0.221,0.153
		c0,0.701,0.018,1.401,0.049,2.097c0.009,0.202,0.3,0.201,0.313,0c0.177-2.853,0.036-5.777,0.696-8.572
		c0.061-0.089,0.119-0.182,0.189-0.262c0.042-0.048-0.008-0.096-0.058-0.083c0.074-0.137,0.138-0.28,0.226-0.41
		C9.396,18.708,9.251,18.595,9.181,18.681z"/>
	<path display="inline" fill="#706072" d="M26.094,6.637c-4.915,1.446-8.055,4.821-10.77,8.958c-0.042,0.064,0.058,0.12,0.102,0.06
		c1.285-1.801,2.614-3.45,4.211-4.985c1.786-1.717,4.339-2.786,6.547-3.818C26.306,6.794,26.219,6.6,26.094,6.637z"/>
	<path display="inline" fill="#706072" d="M22.865,8.733c-1.252,0.737-2.534,1.415-3.643,2.364
		c-0.038,0.033,0.018,0.088,0.056,0.056c1.097-0.957,2.366-1.641,3.607-2.386C22.906,8.754,22.887,8.72,22.865,8.733z"/>
	<path display="inline" fill="#706072" d="M33.148,46.328c-0.184,0.594-0.208,1.225-0.354,1.828c-0.012,0.05,0.065,0.07,0.076,0.021
		c0.132-0.608,0.144-1.241,0.314-1.84C33.192,46.313,33.155,46.304,33.148,46.328z"/>
</g>
<g id="Layer_5" display="none">
	<polygon display="inline" fill="#B7D1D7" points="10.176,21.583 5.352,13.228 10.176,4.873 19.823,4.873 24.647,13.228
		19.823,21.583 	"/>
</g>
<g id="Layer_6" display="none">
	<path display="inline" fill="#2F4B4F" d="M39.395,9.068c-4.803-1.656-10.905,2.769-14.506,5.458
		c-1.669,1.246-9.468,6.779-4.843,9.09c0.422,0.211,1.047,0.179,1.393-0.188c0,0.003,0,0.006-0.001,0.009
		c0.024-0.028,0.041-0.058,0.063-0.087c0.037-0.051,0.09-0.083,0.116-0.146c0.006-0.014,0.01-0.022,0.016-0.035
		c0.569-0.854,0.543-1.826,1.318-2.657c1.301-1.396,2.994-2.536,4.506-3.676c2.301-1.736,5.455-3.889,8.581-4.631
		c-0.952,0.895-2.081,1.718-2.757,2.666c-0.164,0.23,0.143,0.439,0.348,0.347c2.386-1.064,5.183-1.497,6.654-3.97
		C40.797,10.384,40.287,9.376,39.395,9.068z"/>
	<path display="inline" fill="#2F4B4F" d="M30.338,21.913c-2.253,0.49-4.166,1.907-6.283,2.763c-1.236,0.5-5.13,1.61-6.269,0.163
		c-0.026-0.033-0.073-0.009-0.085,0.022c-0.718,1.921,2.686,2.199,3.799,2.289c1.65,0.132,3.557-0.718,5.006-1.41
		c1.706-0.815,3.561-1.205,4.521-2.933C31.295,22.324,30.857,21.799,30.338,21.913z"/>
	<path display="inline" fill="#2F4B4F" d="M27.789,19.276c-0.758-0.321-1.351-0.305-2.11-0.022c-0.192,0.071-0.417,0.08-0.615,0.141
		c-0.445,0.138-0.855,0.374-1.178,0.712c-0.686,0.717-0.713,1.862,0,2.576c0.656,0.656,1.723,0.675,2.419,0.13
		c0.999-0.237,1.962-0.912,2.201-1.772C28.675,20.432,28.421,19.544,27.789,19.276z"/>
	<path display="inline" fill="#2F4B4F" d="M23.598,27.902c-3.603,1.09-7.439,1.282-11.198,1.268
		c-1.184-0.004-5.225,0.325-3.762-1.532c0.962-1.222,2.068-2.237,2.77-3.628c0.362-0.718-0.35-1.351-1.042-1.042
		C7.8,24.111,1.54,28.845,6.208,31.286c1.732,0.906,4.682,0.444,6.504,0.192c3.957-0.546,7.206-2.03,10.939-3.38
		C23.773,28.054,23.725,27.864,23.598,27.902z"/>
	<path display="inline" fill="#2F4B4F" d="M66.683,15.994c-1.081-3.798-4.238-4.039-7.696-4.525
		c-9.557-1.343-20.362,1.511-28.662,6.068c-0.109,0.06-0.029,0.202,0.078,0.186c5.825-0.89,11.712-1.462,17.598-1.691
		c3.264-0.127,15.859-2.668,13.374,3.782c-0.323,0.839,0.641,1.681,1.437,1.437C64.988,20.583,67.451,18.697,66.683,15.994z"/>
	<path display="inline" fill="#2F4B4F" d="M47.807,32.367c-0.086-2.298-0.838-4.724-1.713-6.475
		c-1.883-3.769-5.329-5.893-9.267-7.126c-0.431-0.135-0.727,0.083-0.851,0.391c-2.029-0.26-4.484,0.301-5.905,0.522
		c-0.235,0.037-0.165,0.391,0.054,0.399c2.206,0.081,3.741-0.118,5.988,0.833c2.556,1.082-1.398,4.604-2.063,5.341
		c-1.731,1.92-4.543,3.467-6.693,4.917c-2.103,1.418-4.442,2.425-6.501,3.911c-0.494,0.356-0.986,0.653-1.494,0.913
		c-0.61-0.705-1.764-0.925-2.638-0.497c-1.021,0.5-1.705,1.237-2.283,2.206c-0.669,1.121-0.345,2.313,0.421,3.262
		c4.488,5.56,16.636-7.439,19.982-10.155c2.604-2.114,5.397-5.709,4.339-9.234c1.853,1.084,3.493,2.499,4.618,4.373
		c1.256,2.092,1.679,4.906,1.952,7.534c-3.106,2.52-5.627,5.165-7.866,8.689c-0.233,0.368-0.481,0.706-0.729,1.046
		c-0.523-0.374-1.201-0.463-1.857,0.036c-1.065,0.81-2.154,1.587-3.255,2.35c-0.754,0.522-2.062,1.835-1.461,2.858
		c0.151,0.259,0.382,0.415,0.652,0.501c-0.943,0.675-1.853,1.363-2.576,2.362c-0.046,0.063,0.017,0.153,0.088,0.152
		c4.823-0.056,8.985-0.519,12.53-4.118c1.799-1.828,2.782-4.587,3.863-6.855c1.303-2.733,2.664-4.671,2.864-7.753
		C48.018,32.598,47.927,32.464,47.807,32.367z"/>
	<path display="inline" fill="#2F4B4F" d="M29.897,25.825c-2.72,1.343-4.847,3.457-7.701,4.66c-3.22,1.357-6.777,2.203-9.726,4.128
		c-0.25,0.163-0.158,0.564,0.154,0.567c3.114,0.033,6.303-1.638,9.075-2.967c3.231-1.549,5.374-4.267,8.403-6.038
		C30.331,26.042,30.13,25.709,29.897,25.825z"/>
</g>
<g id="Layer_14" display="none">

		<image display="inline" overflow="visible" opacity="0.4" width="960" height="639" xlink:href="741DD074.jpg"  transform="matrix(0.0881 0 0 0.0881 -2.8325 3)">
	</image>
</g>
<g id="Layer_15">
	<path fill="#706072" d="M27.531-1.553c0.354,0,27.069,0,27.069,0l17.377,20.473L43.369,32.475l-3.82-7.408
		c0,0,20.133-5.352,3.23-18.524c-11.82,7.546-18.559,17.29-18.559,17.29S21.62,37.965,36.277,46.197
		C21.62,36.729,5.556,42.938,19.15,2.322c15.84,0,9.09-3.875,9.09-3.875"/>
</g>
<g id="Layer_16" display="none">
	<path display="inline" fill="#706072" d="M24.319,33.948c-0.286,0.61-0.564,1.222-0.878,1.824c-0.14,0.268-0.336,0.451-0.551,0.599
		c0.119,0.948,0.315,1.877,0.605,2.779c1.865-1.645,3.187-3.869,4.175-6.367c0.125-2.187,0.374-4.351,0.722-6.498
		c-0.474,2.049-0.939,4.098-1.409,6.141C26.693,33.688,25.422,34.148,24.319,33.948z"/>
	<path display="inline" fill="#706072" d="M49.656,6.01c-1.28-1.442-3.067-2.285-4.992-2.883c0.031-0.082,0.062-0.169,0.092-0.25
		c-0.18-0.208-0.413-0.36-0.725-0.428c-0.419-0.091-0.729,0.011-0.96,0.237c-1.512-0.375-3.039-0.667-4.43-1.024
		c-1.713,8.162-4.347,16.161-5.703,24.354c0.474,0.306,0.801,0.809,0.758,1.484c-0.22,3.423-0.674,6.651-1.69,9.932
		c-0.633,2.042-3.266,2.039-4.138,0.473c-1.105,1.875-2.49,3.55-4.287,4.875c-0.653,0.482-1.648,0.107-2.027-0.531
		c-0.77-1.301-1.268-2.7-1.575-4.158c-0.223,0.377-0.451,0.752-0.691,1.122c-0.958,1.476-3.291,1.296-3.785-0.494
		c-2.099-7.605,0.195-15.722,2.066-23.149c1.219-4.839,2.587-9.623,4.186-14.327c-0.092,0.037-0.181,0.068-0.273,0.106
		c-3.683,1.525-6.148,3.973-8.891,6.762c-4.265,4.337-4.676,8.204-4.735,13.958c-0.036,3.531,0.173,7.005,1.397,10.172
		c0.498,1.51,1.225,3.004,2.262,4.767c0.96,1.634,2.701,2.569,4.336,3.391c1.374,1.04,2.871,1.95,4.411,2.624
		c1,0.62,2.018,1.193,3.096,1.572c4.273,1.505,9.017,0.941,13.466-0.768c3.518-0.819,6.687-2.427,8.959-5.226
		c1.426-1.158,2.719-2.396,3.827-3.658C56.993,26.53,57.109,14.407,49.656,6.01z M36.217,37.326c0.192-0.281,0.366-0.572,0.52-0.871
		c0.425,0.003,0.854-0.007,1.277-0.031C37.452,36.77,36.846,37.063,36.217,37.326z M42.146,30.936
		c-1.168,0.637-2.463,0.869-3.806,0.979c-0.722,0.06-1.45,0.059-2.173,0.071c-0.081,0.002-0.163-0.003-0.244-0.001
		c0.824-1.133,2.227-2.361,2.754-3.004c0.081-0.099,0.167-0.186,0.249-0.282c0.629,0.021,1.289,0.092,1.587,0.109
		c1.014,0.06,3.018,0.045,3.111,0.693C43.016,29.773,42.494,30.24,42.146,30.936z"/>
</g>
<g id="Layer_2_1_">
	<g>
		<path fill="#504096" d="M111.992-7.837c-0.008-0.092-0.021-0.186-0.033-0.276c-0.002-0.096-0.141-0.099-0.156-0.014
			c-0.031,0.208-0.043,0.174-0.012,0.339C111.818-7.636,112.043-7.692,111.992-7.837z"/>

			<linearGradient id="SVGID_2_" gradientUnits="userSpaceOnUse" x1="-14.8662" y1="-12.2261" x2="93.2051" y2="-12.2261" gradientTransform="matrix(0.9128 0.4084 -0.4084 0.9128 12.3096 -11.3393)">
			<stop  offset="0.2118" style="stop-color:#900C3E"/>
			<stop  offset="1" style="stop-color:#FF5733"/>
		</linearGradient>
		<path fill="url(#SVGID_2_)" d="M111.67-6.805c-0.229,1.095-0.648,1.978-1.152,2.8c-0.041,0.015-0.078,0.029-0.111,0.07
			c-0.543,0.657-1.063,1.322-1.574,1.991c0.555-1.48,1.006-2.975,1.221-4.421c0.123-0.853,0.133-1.843,0.045-2.888
			c0.15-0.046,0.275-0.148,0.314-0.334c0.301-1.643-0.197-3.277-0.658-4.844c-0.49-1.692-1.037-3.128-2.244-4.46
			c-0.078-0.085-0.254-0.014-0.191,0.104c0.045,0.089,0.086,0.176,0.135,0.266c0.043,0.09,0.172,0.043,0.148-0.058
			c0.238,0.907,0.406,1.883,0.563,2.873c-0.865-1.493-2.002-2.702-3.436-3.273c-0.121-0.205-0.242-0.404-0.387-0.626
			c-0.406-0.622-0.855-1.209-1.342-1.766c-0.488-0.549-1.424-0.795-2.039-1.179c-0.205-0.126-0.418,0.073-0.303,0.285
			c0.076,0.142,0.137,0.292,0.201,0.449l-0.035-0.022c-0.043-0.077-0.092-0.144-0.137-0.222c-0.545-0.946-1.389-1.694-1.816-2.696
			c-0.021-0.056-0.115-0.04-0.104,0.023c0.109,0.579,0.291,0.991,0.576,1.501c0.666,1.186,1.006,2.521,1.639,3.725
			c0.5,0.965,1.168,1.908,1.896,2.794c0.02,0.171,0.082,0.352,0.209,0.531c3.102,4.431,5.02,8.675,1.314,13.656
			c-3.107,4.178-6.91,6.087-12.182,6.585c-4.424,0.421-8.941,0.763-10.07-4.947c-0.527-2.676,0.26-4.144,0.305-6.538
			c0.088-4.046,0.467-8.151-0.088-12.181c-0.037-0.239-0.334-0.261-0.434-0.074c-0.217-0.345-0.391-0.682-0.568-1.009
			c0.428-2.042-0.4-4.985-1.115-6.789c-0.355-0.872-1.094-1.383-1.906-1.55c0.02-0.945-0.291-1.877-0.766-2.749
			c0.045-0.258,0.072-0.535,0.037-0.845c-0.121-1.097-0.742-2.125-1.443-2.934c-0.881-1.017-1.527-2.117-2.322-3.21
			c-0.623-0.848-1.318-1.213-2.016-1.259c-0.811-0.981-1.379-2.098-2.68-2.538c-0.779-0.263-1.662-0.183-2.35,0.204
			c-1.578-1.828-3.404-3.483-5.436-4.315c-0.18-1.349-0.836-2.646-2.137-3.623c-1.322-0.993-2.537-1.429-3.734-1.583
			c-0.098-0.06-0.191-0.114-0.301-0.183c-1.975-0.624-3.869-1.041-5.91-1.378c-0.592-0.098-1.145-0.174-1.682-0.242
			c-0.703-0.479-1.555-0.829-2.607-0.954c-0.252-0.031-0.518-0.054-0.779-0.086c-1.369-0.271-2.85-0.344-4.377-0.272
			c-4.004-0.062-8.303,0.477-11.209,2.571c-2.098,0.828-3.968,1.763-5.42,2.666c-3.175,1.981-8.002,3.598-10.492,6.498
			c-3.989,4.642-6.883,9.608-9.217,15.282c-1.977,4.819-1.819,9.099-2.07,14.301C1.226-9.366-0.25-5.494,1.382-1.223
			C1.665-0.482,1.956,0.233,2.25,0.93C2.014,3.292,2.422,5.707,3.572,7.698c0.015,0.024,0.037,0.046,0.053,0.071
			c0.789,4.63,6.778,9.235,9.548,12.736c1.058,1.336,2.356,1.948,3.643,2.041c0.985,1.182,2.056,2.282,3.328,3.036
			c-0.649-0.93-1.315-1.848-2.048-2.722c-0.597-0.712-1.186-1.396-1.642-2.136c-0.532-0.53-0.982-1.173-1.436-1.761
			c-0.197-0.255-0.387-0.515-0.579-0.773c-2.783-1.904-5.182-4.272-6.099-7.413c-0.218-0.745,0.698-1.574,1.389-1.068
			c3.944,2.87,7.458,6.275,11.84,8.523c0.122,0.062,0.247,0.106,0.37,0.167c-4.833-3.512-8.276-8.394-9.979-14.209
			c-0.085-0.29,0.307-0.417,0.465-0.194c2.411,3.411,5.099,6.951,8.326,9.755c-2.043-2.295-3.676-5.102-4.641-7.946
			C11.601,1.992,8.004-2.977,6.247-8.224c0.268,3.339,0.39,6.729,1.797,9.729c0.146,0.309-0.224,0.635-0.49,0.376
			C3.173-2.399,1.276-9.816,3.036-15.794c0.191-0.648,1.188-0.872,1.518-0.2c0.21,0.432,0.354,0.883,0.512,1.331
			c-0.155-6.035,2.508-11.889,9.33-16.15c0.437-0.275,1.077,0.295,0.742,0.742C3.113-14.119,16.081,1.913,29.686,11.584
			c0.164,0.116,0.23,0.277,0.226,0.432c0.15,0.073,0.296,0.155,0.444,0.233c-0.207-0.445-0.418-0.894-0.619-1.351
			C23.188,6.153,16.312-0.729,14.591-8.66c-0.02-0.092,0.095-0.136,0.147-0.06c3.735,5.184,9.912,10.287,15.233,13.992
			c0.151,0.05,0.298,0.119,0.421,0.229c0.061,0.053,0.107,0.119,0.166,0.176c0.074,0.051,0.152,0.106,0.227,0.157
			c2.692,1.831,6.223,4.688,9.654,4.769c1.461,0.036,2.479-0.62,3.445-1.446c-0.574-1.72-1.652-3.246-3.246-4.036
			c-0.205-0.101-0.328-0.142-0.41-0.159c-0.344,0.441-0.627,0.893-1.053,1.279c-1.01,0.911-2.473,0.986-3.459,0
			c-2.784-2.785,1.029-6.725,3.922-7.01c0.068-0.005,0.131,0.003,0.197,0c-1.133-0.63-2.318-1.027-3.5-1.025
			c-0.527,0-0.6-0.628-0.246-0.903c3.037-2.336,4.75-3.15,8.715-1.638c2.9,1.108,5.51,3.873,7.24,6.711
			c-0.033-0.407-0.043-0.809-0.025-1.209c0.045-1.083,1.387-1.416,1.979-0.538c0.461,0.689,0.865,1.475,1.242,2.295
			c0.016,0.006,0.029,0.017,0.045,0.025c-0.484-1.45-1.068-2.876-1.773-4.228c-0.09-1.165-0.359-2.295-1.139-3.218
			c-1.955-2.323-1.754-8.687-0.885-12.372c0.361-1.516-0.031-2.687-0.805-3.494c0.104-0.19,0.189-0.401,0.309-0.563
			c2.955-4.142,5.928-6.04,9.979-6.964c0.898,0.134,1.701,0.27,2.258,0.338c0.135,0.017,0.252-0.001,0.381,0.003
			c1.082,1.436,2.945,2.604,4.039,3.429c0.566,0.425,1.174,0.487,1.725,0.351c0.393,1.059,0.807,2.123,1.596,2.955
			c0.748,0.79,0.785,1.433,0.771,2.5c0.047,0.417,0.152,0.807,0.305,1.186c0.121,0.646,0.404,1.803,0.463,2.188
			c0.225,1.6,1.031,2.647,2.207,3.689c0.053,0.046,0.113,0.068,0.168,0.111c-0.303,1.197-0.471,2.435-0.604,3.641
			c-0.113,0.409-0.225,0.826-0.359,1.223c-0.195,0.589-0.092,1.114,0.166,1.542c0.012,0.148,0.033,0.298,0.053,0.448
			c-0.109,0.181-0.207,0.375-0.252,0.604c-0.166,0.743-0.313,1.529-0.383,2.314c-0.143-1.269-0.24-2.56-0.355-3.84
			c-0.029-0.247-0.367-0.23-0.422-0.012c-4.492,18.581,15.447,23.341,27.988,14.469c0.104-0.075,0.199-0.177,0.311-0.252
			c5.154-1.878,8.162-7.764,9.727-12.699c0.395-1.003,0.75-2.03,1.074-3.053C111.867-6.876,111.697-6.926,111.67-6.805z
			 M9.914-32.709c-0.142,0.208-0.453,0.027-0.337-0.199c2.367-4.659,6.393-7.463,11.35-8.795c0.577-0.155,0.997,0.746,0.418,0.99
			C17.014-38.881,12.613-36.707,9.914-32.709z M32.676-40.312c-5.972,4.089-10.069,9.629-13.256,16.06
			c-0.155,0.316-0.734,0.18-0.688-0.186C20.64-39.261,38.324-51.861,53.08-50.005c1.055,0.133,1.293,1.47,0.252,1.858
			C46.344-45.541,39.012-44.648,32.676-40.312z M68.164-32.63c-4.277-4.427-10.254-10.304-16.969-8.742
			c-0.395,0.09-0.559-0.5-0.17-0.6c7.137-1.851,13.283,3.98,17.496,8.985C68.73-32.742,68.395-32.39,68.164-32.63z"/>
		<g id="Layer_1_2_">

				<linearGradient id="SVGID_3_" gradientUnits="userSpaceOnUse" x1="-4.3574" y1="3.6372" x2="72.5078" y2="-40.7409" gradientTransform="matrix(0.9915 0.1303 -0.1303 0.9915 2.3601 -6.0378)">
				<stop  offset="0.1034" style="stop-color:#375879"/>
				<stop  offset="0.4975" style="stop-color:#7298AC"/>
			</linearGradient>
			<path fill="url(#SVGID_3_)" d="M81.598-7.898c0.82-2.824,1.449-5.685,1.471-8.631c0.053-5.684-0.904-11.038-2.107-16.373
				c-5.156-7.868-6.373-8.719-8.76-10.755c-2.447-2.087-8.252-5.389-11.498-6.74c-3.236-1.35-13.23-2.314-21.143,0.262
				c-7.918,2.576-14.312,6.463-17.043,9.065c-1.943,1.859-5.227,5.381-7.606,10.282c0.258,0.142,0.432,0.442,0.227,0.717
				c-0.561,0.745-1.016,1.49-1.471,2.236c-0.41,1.141-0.777,2.321-1.045,3.581c-1.805,8.454-0.945,14.797,2.996,19.073
				c0.059,0.063,0.131,0.142,0.194,0.211c-0.512-1.204-0.948-2.427-1.22-3.689c-0.02-0.092,0.095-0.136,0.147-0.06
				c2.487,3.45,6.057,6.867,9.737,9.857c3.167,0.996,7.065,0.982,11.726-1.407c0.107-0.136,0.207-0.274,0.313-0.412
				c-0.217,0.138-0.434,0.271-0.666,0.387c-0.086,0.041-0.145-0.083-0.074-0.14c0.457-0.337,0.809-0.78,1.104-1.281
				c-0.18-0.017-0.361-0.078-0.541-0.078c-0.527,0-0.6-0.628-0.246-0.903c0.564-0.433,1.072-0.793,1.568-1.115
				c0.346-1.635,0.338-3.577,0.166-5.561c-0.289,0.199-0.559,0.392-0.762,0.628c-2.057-1.143-8.605-2.772-12.088-5.941
				c-3.293-3.826-0.848-8.375,1.2-9.527c0.875-0.409,3.997-1.126,5.238,3.445c0.969-3.462-1.579-7.895-6.992-6.867
				c-3.156-6.416,9.139-12.406,14.563-14.052c10.002-3.029,18.133-0.199,19.236-0.042c-5.863-2.179-10.938-3.427-17.488-2.475
				c-2.785,0.966-5.504,2.144-8.055,3.891c-5.972,4.089-10.069,9.629-13.256,16.06c-0.155,0.316-0.734,0.18-0.688-0.186
				C20.64-39.261,38.324-51.861,53.08-50.005c1.055,0.133,1.293,1.47,0.252,1.858c-1.412,0.525-2.838,0.974-4.264,1.402
				c5.186,0.032,11.68,1.267,15.805,3.944c4.965,3.217,9.938,6.729,13.947,14.486c3.006,5.836,3.385,13.234,3.141,17.405
				C81.908-9.974,81.779-8.961,81.598-7.898z"/>

				<linearGradient id="SVGID_4_" gradientUnits="userSpaceOnUse" x1="-3.5601" y1="4.9893" x2="73.3027" y2="-39.3874" gradientTransform="matrix(0.9915 0.1303 -0.1303 0.9915 2.3601 -6.0378)">
				<stop  offset="0.1034" style="stop-color:#375879"/>
				<stop  offset="0.4975" style="stop-color:#7298AC"/>
			</linearGradient>
			<path fill="url(#SVGID_4_)" d="M47.93-56.279C23.758-59.454,1.542-42.009-1.702-17.315c-2.579,19.623,7.63,37.863,24.054,46.131
				c-1.354-1.99-2.645-4.01-4.187-5.866C10.952,18.097,5.529,10.088,3.256,6.315C3.11,6.136,2.958,5.967,2.813,5.775
				C2.772,5.726,2.765,5.678,2.766,5.628c-0.121-0.151-0.252-0.3-0.202-0.496c-0.313-0.55-0.488-0.88-0.488-0.88
				S2.229,4.513,2.642,5.09c0.045,0.003,0.093,0.003,0.137,0.01c0.026,0,0.024,0.031,0.002,0.034
				C2.778,5.14,2.864,5.229,2.987,5.361c0.089-0.021,0.186-0.019,0.26,0.082C3.519,5.8,3.823,6.134,4.125,6.473
				c0.547,0.494,1.069,1.012,1.604,1.516c0.966,1.223,2.017,2.326,2.718,3.048c-0.028-0.09-0.079-0.168-0.106-0.26
				c-0.218-0.745,0.698-1.574,1.389-1.068c3.944,2.87,7.458,6.275,11.84,8.523c0.123,0.063,0.25,0.106,0.372,0.169
				c-2.695-1.958-4.958-4.341-6.725-7.078C11.007,8.067,8.52,4.382,7.043,1.296c-3.996-4.344-5.692-11.364-4.007-17.09
				c0.191-0.648,1.188-0.872,1.518-0.2c0.213,0.435,0.356,0.89,0.517,1.339c-0.128-4.938,1.625-9.756,6.008-13.68
				c0.726-2.178,1.619-4.223,2.825-5.981c0.942-1.374,2.146-2.964,3.595-4.617c-2.954,1.522-5.691,3.419-7.584,6.224
				c-0.142,0.208-0.453,0.027-0.337-0.199c2.175-4.282,5.762-6.98,10.175-8.425c2.57-2.528,5.769-5.053,9.698-7.091
				c7.803-4.054,17.371-6.337,27.832-3.733c0.889-0.059,2.826-0.37,3.834-2.646C56.457-53.313,52.102-55.731,47.93-56.279z"/>

				<linearGradient id="SVGID_5_" gradientUnits="userSpaceOnUse" x1="3.4434" y1="17.1528" x2="80.3112" y2="-27.2268" gradientTransform="matrix(0.9915 0.1303 -0.1303 0.9915 2.3601 -6.0378)">
				<stop  offset="0.1034" style="stop-color:#375879"/>
				<stop  offset="0.4975" style="stop-color:#7298AC"/>
			</linearGradient>
			<path fill="url(#SVGID_5_)" d="M76.174-12.524c1.01-7.304-2.523-12.794-4.49-15.768c0.283,0.955,0.246,0.853-0.512,3.517
				c-1.363-2.126-7.082-4.722-11.533-5.153c-7.594-0.742-9.811,2.865-10.211,2.401c-0.396-0.46-0.424-0.671,0.021-5.637
				c-4.387,3.082-6.629,9.029-7.898,13.901c-0.176,3.172-0.326,6.294,0.203,9.326c0.105-0.168,0.104-0.121,0.104-0.121
				s-0.039,0.075-0.094,0.201c0.311,1.73,0.863,3.428,1.74,5.094c0.41,0.114,0.836,0.252,1.301,0.429
				C45.703-3.99,46.57-3.486,47.4-2.875c2.148,0.42,3.334,0.598,4.322,2.73c0.127,0.284,0.262,0.649,0.391,1.056
				c0.252-0.843,1.352-1.069,1.885-0.281c0.463,0.691,0.871,1.479,1.254,2.301c0.08,0.032,0.152,0.086,0.199,0.17
				c0.311,0.57,0.563,1.173,0.789,1.791c1.057,0.7,2.01,2.243,2.697,3.558c-0.031-0.264-0.061-0.527-0.092-0.793
				c-1.234-1.858-2.26-3.989-3.064-6.244c-0.549-1.352-1-2.759-1.387-4.166c-0.484-0.975-0.918-1.97-1.289-2.978
				c-2.152-2.429-2.537-6.722-1.35-9.849c-0.049-3.027,1.912-5.81,4.631-7.124c3.693-1.785,7.881-1.483,10.912,1.433
				c1.363,1.316,2.525,3.04,3.072,4.873c0.311,1.058,0.65,2.135,0.727,3.245c0.035,0.42,0.051,0.841,0.043,1.263
				c0.02,0.363,0.021,0.597,0.02,0.728c0.012,0.037,0.025,0.068,0.033,0.107c0.773,3.575-4.664,4.871-6.035,1.659
				c-0.65-1.529-0.303-3.231-0.746-4.851c-0.625,2.214-1.488,4.34-2.152,6.559c-0.021,0.058-0.047,0.104-0.066,0.162
				C63.271-2.28,67.512,4.283,70.484,7.05c0.201-0.703,0.393-1.386,0.564-2.042c0.154-0.394,0.283,0.249,3.244,2.631
				c-0.383-1.742-0.654-5.928-0.568-7.357C73.807-1.149,75.166-5.218,76.174-12.524z"/>

				<linearGradient id="SVGID_6_" gradientUnits="userSpaceOnUse" x1="5.2139" y1="20.2295" x2="82.0911" y2="-24.1555" gradientTransform="matrix(0.9915 0.1303 -0.1303 0.9915 2.3601 -6.0378)">
				<stop  offset="0.1034" style="stop-color:#375879"/>
				<stop  offset="0.4975" style="stop-color:#7298AC"/>
			</linearGradient>
			<path fill="url(#SVGID_6_)" d="M29.911,12.016c0.15,0.073,0.296,0.155,0.444,0.233c-0.208-0.446-0.418-0.896-0.621-1.354
				c-3.302-2.402-6.671-5.357-9.44-8.708c-0.733-0.322-1.466-0.655-2.194-1.067c3.343,3.959,7.43,7.512,11.585,10.465
				C29.85,11.7,29.916,11.861,29.911,12.016z"/>

				<linearGradient id="SVGID_7_" gradientUnits="userSpaceOnUse" x1="0.6426" y1="12.3062" x2="77.5145" y2="-32.0758" gradientTransform="matrix(0.9915 0.1303 -0.1303 0.9915 2.3601 -6.0378)">
				<stop  offset="0.1034" style="stop-color:#375879"/>
				<stop  offset="0.4975" style="stop-color:#7298AC"/>
			</linearGradient>
			<path fill="url(#SVGID_7_)" d="M12.426,3.995c1.541,2.18,3.191,4.421,5.016,6.492c0.499,0.329,1.004,0.638,1.511,0.941
				c-1.206-1.759-2.182-3.678-2.841-5.623C11.6,1.993,8.002-2.977,6.247-8.224c0.213,2.65,0.348,5.327,1.089,7.818
				c1.5,2.912,3.433,5.318,5.606,7.359c-0.367-0.901-0.704-1.814-0.981-2.764C11.876,3.9,12.268,3.772,12.426,3.995z"/>

				<linearGradient id="SVGID_8_" gradientUnits="userSpaceOnUse" x1="7.3945" y1="23.9966" x2="84.2602" y2="-20.3818" gradientTransform="matrix(0.9915 0.1303 -0.1303 0.9915 2.3601 -6.0378)">
				<stop  offset="0.1034" style="stop-color:#375879"/>
				<stop  offset="0.4975" style="stop-color:#7298AC"/>
			</linearGradient>
			<path fill="url(#SVGID_8_)" d="M40.639,5.121c-0.205-0.101-0.328-0.142-0.41-0.159c-0.344,0.441-0.627,0.893-1.053,1.279
				c-1.01,0.911-2.473,0.986-3.459,0c-1.02-1.02-1.141-2.192-0.762-3.284c-2.273,0.63-4.574,0.991-6.885,0.949
				c0.646,0.473,1.285,0.928,1.915,1.37c0.146,0.05,0.288,0.118,0.407,0.225c0.059,0.052,0.105,0.116,0.161,0.171
				c0.077,0.052,0.155,0.109,0.231,0.161c2.677,1.819,6.184,4.651,9.594,4.763c1.115-1.064,1.813-2.348,2.266-3.801
				C42.102,6.102,41.436,5.518,40.639,5.121z"/>
		</g>
	</g>
</g>
<g id="Layer_7" display="none">
	<path display="inline" fill="#2F4B4F" d="M53.86,31.09c-3.605-1.126-6.999,1.042-10.075,2.743c-4.486,2.48-8.782,4.601-13.951,5.16
		c-5.777,0.625-13.897,1.396-9.577-7.093c2.369-4.654,6.165-5.203,10.2-7.618c0.884-0.529,0.301-1.922-0.698-1.656
		c-1.056,0.282-2.071,0.566-3.153,0.714c-1.766,0.417-3.536,0.466-5.309,0.147c-1.45-2.992-1.081-5.019,1.108-6.081
		c3.131-2.143,7.008-3.468,10.762-3.856c0.064-0.007,0.065-0.096,0-0.102c-5.119-0.431-13.849,2.235-15.487,7.768
		c-0.893,3.015,2.123,3.855,5.46,3.907c-0.764,0.317-1.502,0.69-2.183,1.183c-2.371,1.717-4.16,3.898-5.846,6.255
		c-3.529,4.936-0.461,10.458,4.35,12.759c6.619,3.167,15.063,3.019,21.769,0.304C46.147,43.634,55.513,39.362,55.314,33
		C55.286,32.092,54.727,31.36,53.86,31.09z"/>
</g>
</svg>
