<?xml version="1.0" encoding="utf-8"?>
<!-- Generator: Adobe Illustrator 16.0.0, SVG Export Plug-In . SVG Version: 6.00 Build 0)  -->
<!DOCTYPE svg PUBLIC "-//W3C//DTD SVG 1.1//EN" "http://www.w3.org/Graphics/SVG/1.1/DTD/svg11.dtd">
<svg version="1.1" id="Layer_1" xmlns="http://www.w3.org/2000/svg" xmlns:xlink="http://www.w3.org/1999/xlink" x="0px" y="0px"
	 width="56px" height="56px" viewBox="0 0 56 56" enable-background="new 0 0 56 56" xml:space="preserve">
<g id="Layer_2">
	<path fill="#FFFFFF" d="M41.163,5.575c0,0-4.931-2.767-8.996-3.575c-4.065-0.808-11.833,2.25-11.833,2.25l-10.75,6.083
		c0,0-3.583,11.75-3.583,12.5S4.333,36.667,4.333,36.667l0.162,3.366l1.838,2.217l1.5,2.084l3.417,3.5l4.605,2.171l2.979,2.412
		l3.915,1.25l5.252,0.5l7.833-3.667l3.417-5.583l3.167-8.417l3.916-3v-3.416l-4,0.583l-5.75,1.417l-2.833-1.167L31.083,30
		l-1.5-2.417l-1.48-0.5l-1.769,4l-2,3.166l-8.083-2.166L12.583,25.5L14.25,16l9.667-8.583l4.917-1.667L34.5,4.833l5.833,1.333
		L41.163,5.575"/>
</g>
<g id="Layer_3">
	<path fill="#FFFFFF" d="M13.625,17.875l11.708-11.75L31.75,4.75L36.125,5L41.5,7.5c0,0,6.875,6.375,7.5,6.5
		s1.877,6.454,1.877,6.454L53,28.625c0,0-1.625,9.25-1.875,9.875s-7.25,10-7.25,10l-4.5,1L40,44.25l4.625-8.125l2.125-3.75L45,29
		l-6.75,2.75L36.5,32l-2-0.875L32.125,29.5L28,27.315l-2.667,5.352L19.25,32.25L11.75,24L13.625,17.875z"/>
</g>
<g id="Layer_4">
	<polygon fill="#FFFFFF" points="32.375,29 29.75,26.5 29.75,23.375 33,23.375 35.323,26.188 34,29 	"/>
	<polygon fill="#FFFFFF" points="39.25,29 37.125,27.125 37.125,23.375 40.5,22.125 44.5,22.125 45.125,26.188 42.625,29 	"/>
</g>
<g id="Layer_1_1_">
	<polygon fill="#377254" points="35.332,9 35.323,9 35.326,9 	"/>
	<linearGradient id="SVGID_1_" gradientUnits="userSpaceOnUse" x1="5.3252" y1="14.5889" x2="51.1924" y2="41.0703">
		<stop  offset="0" style="stop-color:#CC94B0"/>
		<stop  offset="1" style="stop-color:#4E6384"/>
	</linearGradient>
	<path fill="url(#SVGID_1_)" d="M49.77,12.806c-3.937-4.599-4.709-4.987-6.324-6.033c-1.612-1.046-5.301-2.548-7.325-3.095
		c-2.022-0.546-8.008-0.34-12.49,1.797c-4.483,2.139-7.964,4.938-9.375,6.689c-1.41,1.752-4.144,5.613-4.55,10.717
		c-0.41,5.142,0.591,8.828,3.255,11.051c1.908,1.594,6.528,5.512,12.603,1.28c1.365-0.887,1.274-1.114,1.274-1.114l2.479,0.637
		c-4.3,3.255-8.167,5.461-13.423,3.23c-5.255-2.229-7.749-8.234-7.839-11.703c-0.092-3.465,0.286-6.793,1.628-9.433
		c1.343-2.639,3.799-6.553,8.1-9.556c4.301-3.003,9.783-5.097,16.176-4.368c0.521-0.106,1.642-0.44,2.063-1.865
		c-2.642,1.244-5.406,0.152-7.917,0.152C13.56,1.192,1.771,13.239,1.771,28.1c0,14.862,11.789,26.908,26.332,26.908
		c14.543,0,26.331-12.046,26.331-26.908C54.434,22.418,52.71,17.148,49.77,12.806z M7.443,35.775
		c2.731,5.188,7.463,7.492,11.922,8.918c5.583,0.638,8.949-2.579,9.859-3.368c0.908-0.787,1.912-0.272,0.938,0.789
		c-0.971,1.063-6.915,4.43-10.677,3.793C8.566,43.236,6.625,34.622,6.625,34.622S6.928,35.076,7.443,35.775z M5.684,40.566
		c0,0,0.428,0.578,2.305,2.308c4.409,4.944,9.102,6.369,15.139,6.703c8.767-0.548,7.675-4.156,10.405-4.884
		c0.213,2.82-4.975,6.399-9.769,7.188C14.452,53.036,5.684,40.566,5.684,40.566z M36.688,46.969
		c-1.818,3.307-5.035,6.885-13.922,6.158c6.338-0.939,7.869-0.971,11.67-6.825c1.769-4.61,1.678-6.22,1.646-7.221
		c-0.03-1.001-0.482-3.429-2.458-5.217c-1.517-0.882-2.092-0.548-2.604-0.486c-0.518,0.062-3.01,0.091-3.672-2.396
		c0.758-2.186,0.758-1.974,0.758-1.974s-1.396,3.793,3.429,3.793c1.577,0.119,2.351,0,3.177,1.304
		c0.826,1.305,2.04,5.369,1.979,6.461c1.063-2.334,1.334-2.518,1.457-2.577C38.602,41.325,38.507,43.66,36.688,46.969z
		 M40.032,36.102c0,0,0.204-1.069-0.773-1.685c0,0-0.547,0.706-1.864,3.05c-0.067-0.139-0.112-0.206-0.479-0.662
		c-0.365-0.453-1.891-3.299-2.48-3.843c-0.594-0.547-2.094-0.729-3.596-0.753c-1.592-0.59-1.729-2.479-1.934-4.109
		c0.052,0.166,0.145,0.311,0.256,0.458c0.283,0.86,0.734,1.881,1.171,2.65c0.708,1.25,2.542,0.5,3,0.625s0.834-0.292,2.417,1.291
		c1.75,0.916,1.955-0.2,1.955-0.2c0.053,0.021,0.104,0.039,0.165,0.06c1.344-0.887,2.549-0.797,3.209-0.729
		c2.116,0.273,2.435-0.361,2.798-0.456c0.365-0.089,1.389-0.932,1.957,0.251c-0.113-0.045-0.568-0.374-1.139,1.945
		c0,0-0.576-0.979-1.244,0.445c-0.676-0.293-0.438-1.274-1.213,0.933C41.762,34.463,42.036,34.055,40.032,36.102z M31.789,26.539
		c0.763,0.421,1.248,0.289,1.682,0.165c0.133,0.397,0.122,0.455,0.122,0.455c-1.182,0.648-2.347-0.163-2.608-0.516
		c-0.426-0.401-0.61-1.786-0.188-2.886l0.615,0.432C31.318,24.758,30.863,25.872,31.789,26.539z M32.366,25.997
		c0.249,0.193,0.637,0.193,0.692,0.193c0.057,0,0.455,0.206-0.125,0.308c-0.521,0.069-0.83-0.103-1.06-0.434
		c-0.228-0.327-0.146-0.759,0.138-1.248l0.354,0.363C32.366,25.179,31.934,25.736,32.366,25.997z M35.542,29.084
		c0.167-2.167,0.833-1.542,1-1.084s0.208,2.542,0,2.792s-0.625,0.75-0.625,0.75S35.375,31.251,35.542,29.084z M41.391,24.564
		c0,0,0-0.091,0.803-0.485c0.197,0.395,0.349,0.668,0.365,1.502c0.016,0.833-0.765,1.635-1.853,1.638
		c-1.624,0.006-2.048-1.304-2.048-1.304l0.623-0.409c0.076,0.242,0.354,0.86,0.627,1.027c0.271,0.166,0.758,0.185,1.229-0.012
		c0.469-0.196,0.678-0.837,0.647-1.172C41.753,25.016,41.648,25.005,41.391,24.564z M40.343,27.751c1.601,0,2.458-1.046,2.671-1.76
		c0.213-0.712,0.106-1.642-0.473-2.245c0.563-0.304,0.486-0.257,0.503-0.243c0.728,1.336,0.833,3.854-0.836,4.672
		c-1.424,0.531-1.972,0.531-3.865-1.228c-0.243-0.394-0.38-0.591-0.38-0.591l0.316-0.228C38.279,26.128,39.369,27.751,40.343,27.751
		z M46.092,44.48c-1.133,1.278-5.096,4.095-5.096,4.095s0.729-0.818,1.577-1.88c2.518-2.428,3.519-7.435,3.974-11.043
		c0.061-0.243,0.184,0.123,2.123,1.305c-0.361-1.001-0.848-3.459-0.908-4.309c-0.062-0.852,0.424-3.367,0.454-7.768
		c0.03-4.398-2.487-7.371-3.883-8.979c0.242,0.545,0.212,0.485-0.03,2.123c-0.972-1.153-4.552-2.245-7.221-2.154
		c-4.553,0.152-5.583,2.457-5.855,2.214c-0.271-0.242-0.303-0.363-0.424-3.337c-4.065,3.732-3.701,12.043-4.004,13.349
		c-0.303,1.305-1.092,1.545-1.426,2.063c-1.305-0.518-5.309-0.971-7.614-2.576c-2.246-2.005-1.153-4.888-0.031-5.729
		c0.485-0.31,2.275-0.978,3.367,1.631c0.304-2.124-1.547-4.55-4.671-3.519c-2.366-3.55,4.442-8.049,7.524-9.445
		C29.627,7.952,34.657,8.993,35.323,9C30.952,8,27.374,7.674,22.4,9.707c1.092-0.668,3.205-2.155,5.369-2.666
		c3.153-0.744,8.221-0.711,11.407,0.807c3.188,1.517,6.4,3.209,9.375,7.486c2.237,3.22,3.033,7.566,3.213,10.054
		c0.186,2.486-0.332,5.965-0.938,9.334C50.218,38.09,47.398,43.005,46.092,44.48z"/>
</g>
</svg>
