<?xml version="1.0" encoding="utf-8"?>
<!-- Generator: Adobe Illustrator 16.0.0, SVG Export Plug-In . SVG Version: 6.00 Build 0)  -->
<!DOCTYPE svg PUBLIC "-//W3C//DTD SVG 1.1//EN" "http://www.w3.org/Graphics/SVG/1.1/DTD/svg11.dtd">
<svg version="1.1" id="Layer_1" xmlns="http://www.w3.org/2000/svg" xmlns:xlink="http://www.w3.org/1999/xlink" x="0px" y="0px"
	 width="480px" height="256px" viewBox="0 0 480 256" enable-background="new 0 0 480 256" xml:space="preserve">
<path d="M159.001,27.059c-0.372,0.038-0.52,0.406-0.889,0.444c-0.063,0.006-0.064,0.106,0,0.1c0.372-0.038,0.52-0.406,0.889-0.444
	C159.064,27.152,159.065,27.052,159.001,27.059z"/>
<path d="M215.953,76.379c-2.674-3.019-8.816-2.679-12.529-3.099c-6.963-0.787-13.88,0.112-20.807,0.896
	c-12.995,1.471-26.292,4.723-38.86,8.279c-1.889,0.535-3.768,1.099-5.64,1.682c-0.003-0.001-0.006-0.003-0.009-0.005
	c-0.387-0.206-0.99-0.132-1.194,0.313c-0.015,0.032-0.026,0.06-0.041,0.091c-11.04,3.507-21.789,7.851-32.13,13.1
	c-5.039,2.558-10.603,5.226-14.924,8.919c-3.084,2.636-8.408,6.223-8.215,10.774c0.02,0.476,0.705,0.73,0.946,0.256
	c2.234-4.392,7.668-7.999,11.703-10.619c4.885-3.172,10.434-5.622,15.718-8.033c8.479-3.868,17.134-7.12,25.979-9.888
	c0.017,0.23,0.038,0.468,0.068,0.728c0.508,4.35,0.002,8.96-0.051,13.333c-0.092,7.639,0.35,15.312,0.46,22.952
	c0.11,7.654-0.122,15.182-0.464,22.826c-0.189,4.222-0.541,8.41-0.841,12.622c-0.237,3.325-0.748,7.346,0.537,10.475
	c0.77,1.875,3.736,1.198,3.126-0.861c-1.003-3.392-0.272-7.997-0.03-11.479c0.291-4.18,0.585-8.344,0.765-12.534
	c0.328-7.617,0.443-15.12,0.319-22.747c-0.125-7.751-0.403-15.498-0.498-23.25c-0.039-3.202,0.343-6.81-0.202-9.964
	c-0.153-0.884-0.398-1.913-0.527-2.917c2.654-0.797,5.322-1.562,8.012-2.276c10.833-2.878,22.101-5.341,33.177-7.045
	c6.017-0.926,12.222-1.516,18.309-1.598c3.008-0.041,5.912,0.729,8.889,0.903c1.538,0.09,3.91,0.161,5.604,0.8
	c0.229,0.315,0.56,0.546,0.999,0.605c0.143,0.02,0.286,0.039,0.429,0.058C215.949,79.939,217.358,77.966,215.953,76.379z"/>
<path d="M214.09,140.354c-7.032,10.242-14.297,25.232-26.556,30.09c-8.501,3.368-16.909-1.899-19.794-9.833
	c-2.296-6.314-1.364-13.272,0.396-19.656c1.505-0.195,2.889-0.521,3.918-0.868c8.426-2.837,15.589-12.532,19.943-19.897
	c2.506-4.238,6.322-15.476-2.33-15.05c-7.84,0.386-14.306,12.065-17.821,17.76c-3.224,5.224-5.865,10.831-7.551,16.701
	c-2.765,0.118-5.176-0.955-6.459-4.096c-0.071-0.174-0.346-0.166-0.345,0.047c0.007,3.794,2.983,5.231,6.396,5.529
	c-0.978,3.798-1.547,7.699-1.603,11.675c-0.121,8.589,3.651,18.056,12.155,21.292c20.904,7.955,35.188-16.854,41.578-32.882
	C216.487,139.991,214.724,139.431,214.09,140.354z M168.958,138.177c2.154-6.83,5.972-14.079,10.511-19.651
	c1.794-2.202,3.367-4.532,5.354-6.575c0.415-0.427,6.398-5.034,6.72-1.237c0.112,1.326-0.435,2.72-0.932,3.92
	c-2.786,6.729-7.345,12.027-12.145,17.434c-1.85,2.084-5.688,4.951-9.624,6.482C168.882,138.426,168.919,138.3,168.958,138.177z"/>
<path d="M246.478,133.047c-8.024-0.623-23.221-3.614-16.989-15.329c1.67-3.139,5.54-6.744,8.428-8.754
	c0.83-0.578,1.905-0.951,2.671-1.602c2.928-2.483,4.915-1.917,8.19-2.027c0.493-0.017,0.629-0.767,0.119-0.882
	c-5.246-1.186-7.394,0.178-12.072,2.643c-4.119,2.17-8.268,6.444-10.735,10.331c-2.231,3.516-2,9.225,0.667,12.425
	c3.826,4.592,10.271,6.066,15.923,6.939c5.213,0.806,10.552,0.572,15.654,2.054c9.576,2.78-4.203,16.853-7.558,20.09
	c-5.582,5.387-11.364,10.661-17.767,15.057c-3.865,2.653-7.954,5.845-12.738,3.599c-2.982-1.4-4.408-6.22-5.512-9.005
	c-0.436-1.1-2.323-1.074-2.225,0.301c0.296,4.172,1.056,8.904,4.609,11.629c5.73,4.396,11.157,1.61,16.569-1.836
	c6.305-4.015,11.801-9.052,17.275-14.105c5.849-5.399,11.459-11.516,14.772-18.85C270.804,134.56,252.875,133.543,246.478,133.047z"
	/>
<path d="M311.592,120.897c-3.575,7.895-7.319,15.729-13.555,21.905c-3.753,3.717-10.99,7.883-13.654,0.637
	c-1.813-4.932-0.332-11.709,0.352-16.741c0.594-4.367,1.403-8.699,2.392-12.991c0.177-0.122,0.359-0.236,0.535-0.36
	c6.734-4.74,13.17-9.677,19.365-15.102c0.581-0.509-0.164-1.406-0.805-1.043c-6.347,3.59-12.159,7.781-18.008,12.073
	c0.811-3.108,1.706-6.194,2.688-9.251c2.687-8.36,5.764-17.49,11.373-24.413c0.16-0.051,0.309-0.152,0.383-0.352
	c0.051-0.134,0.101-0.269,0.15-0.403c0.217-0.581-0.405-0.954-0.889-0.889c-3.232,0.435-5.764,5.919-7.377,8.385
	c-3.2,4.895-5.2,11.231-7.151,16.704c-1.581,4.434-2.985,9.052-4.155,13.756c-4.951,3.295-10.307,6.252-14.773,9.981
	c-0.932,0.778,0.328,2.421,1.302,1.688c2.371-1.787,5.274-2.872,7.759-4.571c1.564-1.07,3.17-2.07,4.775-3.073
	c-1.568,7.229-2.547,14.6-2.693,21.785c-0.084,4.135,0.899,9.537,4.84,11.829c4.244,2.47,8.319,1.107,12.345-1.201
	c9.533-5.469,15.109-17.441,16.403-27.919C313.297,120.493,311.936,120.139,311.592,120.897z"/>
</svg>
