<?xml version="1.0" encoding="utf-8"?>
<!-- Generator: Adobe Illustrator 16.0.0, SVG Export Plug-In . SVG Version: 6.00 Build 0)  -->
<!DOCTYPE svg PUBLIC "-//W3C//DTD SVG 1.1//EN" "http://www.w3.org/Graphics/SVG/1.1/DTD/svg11.dtd">
<svg version="1.1" id="Layer_1" xmlns="http://www.w3.org/2000/svg" xmlns:xlink="http://www.w3.org/1999/xlink" x="0px" y="0px"
	 width="56px" height="56px" viewBox="0 0 56 56" enable-background="new 0 0 56 56" xml:space="preserve">
<circle fill="#A67BBF" cx="28" cy="28" r="28"/>
<path fill="#785F8E" d="M26.569,55.963l14.696-14.697l-8.531-8.834L14.161,15.334L0.039,29.457
	c0.346,6.672,3.065,13.245,8.162,18.342C13.305,52.902,19.888,55.623,26.569,55.963z"/>
<circle fill="#A67BBF" cx="28" cy="28" r="18.761"/>
<path fill="#8B6EA0" d="M14.734,41.266c3.662,3.664,8.464,5.495,13.266,5.495V9.239c-4.801,0-9.604,1.832-13.266,5.495
	C7.407,22.061,7.407,33.939,14.734,41.266z"/>
<circle fill="#E6F3FF" cx="28" cy="28" r="14.592"/>
<path fill="#CFDBE6" d="M17.682,38.318c2.85,2.849,6.584,4.273,10.318,4.273V13.408c-3.734,0-7.469,1.425-10.318,4.274
	C11.983,23.38,11.983,32.619,17.682,38.318z"/>
<path fill="#324A5E" d="M32.113,33.892l-4.824-4.823c-0.212-0.213-0.331-0.5-0.331-0.8V18.62c0-0.625,0.507-1.131,1.131-1.131
	s1.131,0.506,1.131,1.131v9.179l4.492,4.493c0.442,0.442,0.442,1.158,0,1.6c-0.221,0.222-0.51,0.331-0.799,0.331
	C32.624,34.223,32.334,34.113,32.113,33.892z"/>
<path fill="#2B3B4E" d="M26.958,18.62v9.648c0,0.3,0.119,0.587,0.331,0.8L28,29.778V17.493
	C27.417,17.539,26.958,18.025,26.958,18.62z"/>
</svg>
